<svg viewBox="0 0 206.767 47.0967" xmlns="http://www.w3.org/2000/svg" xmlns:xlink="http://www.w3.org/1999/xlink" width="206.766724" height="47.096741" fill="none" customFrame="#000000">
	<g id="Group 1427">
		<g id="Group 578">
			<path id="Rectangle 1975" d="M36.6911 21.8073L38.1781 19.5767L39.0253 22.1835C40.5987 27.0245 41.4001 32.083 41.4001 37.1733L36.1954 39.4038L36.6911 21.8073Z" fill="rgb(5,27,50)" fill-rule="nonzero" />
			<path id="Rectangle 1975" d="M36.6911 21.8073L38.1781 19.5767L39.0253 22.1835C40.5987 27.0245 41.4001 32.083 41.4001 37.1733L36.1954 39.4038L36.6911 21.8073ZM38.1489 24.5935L37.7981 37.0462L39.8538 36.1652Q39.7863 32.9609 39.2895 29.8246L39.2895 29.8244Q38.8713 27.1849 38.1489 24.5935Z" fill="rgb(5,27,50)" fill-rule="evenodd" />
			<path id="Rectangle 1976" d="M0.495678 2.23055L1.98271 0L2.82991 2.60676C4.40324 7.44777 5.20462 12.5063 5.20462 17.5966L0 19.8271L0.495678 2.23055Z" fill="rgb(5,27,50)" fill-rule="nonzero" transform="matrix(-1,0,0,1,9.2782,19.3556)" />
			<path id="Rectangle 1976" d="M0.495678 2.23055L1.98271 0L2.82991 2.60676C4.40324 7.44777 5.20462 12.5063 5.20462 17.5966L0 19.8271L0.495678 2.23055ZM1.95349 5.01677L1.60271 17.4695L3.65834 16.5885Q3.5909 13.3842 3.09404 10.2479L3.09402 10.2477Q2.67584 7.60814 1.95349 5.01677Z" fill="rgb(5,27,50)" fill-rule="evenodd" transform="matrix(-1,0,0,1,9.2782,19.3556)" />
			<path id="Rectangle 1977" d="M0 0L21.8099 0L12.2837 14.3747L0 14.3747L0 0Z" fill="rgb(9,68,213)" fill-rule="nonzero" transform="matrix(-1,0,0,1,37.6788,32.722)" />
			<path id="Rectangle 1977" d="M0 0L21.8099 0L12.2837 14.3747L0 14.3747L0 0ZM1.53569 1.53569L1.53569 12.839L11.4591 12.839L18.9499 1.53569L1.53569 1.53569Z" fill="rgb(5,27,50)" fill-rule="evenodd" transform="matrix(-1,0,0,1,37.6788,32.722)" />
			<path id="Rectangle 1978" d="M7.93921 32.722L29.7491 32.722L20.2229 47.0967L7.93921 47.0967L7.93921 32.722Z" fill="rgb(54,195,187)" fill-rule="nonzero" />
			<path id="Rectangle 1978" d="M7.93921 32.722L29.7491 32.722L20.2229 47.0967L7.93921 47.0967L7.93921 32.722ZM9.4749 34.2577L9.4749 45.561L19.3983 45.561L26.8891 34.2577L9.4749 34.2577Z" fill="rgb(5,27,50)" fill-rule="evenodd" />
			<path id="Rectangle 1979" d="M7.93921 1.98277C17.8091 0.666787 27.81 0.666789 37.6799 1.98277L37.6799 34.2019C27.7835 33.3772 17.8356 33.3772 7.93921 34.2019L7.93921 1.98277Z" fill="rgb(249,250,253)" fill-rule="nonzero" />
			<path id="Rectangle 1979" d="M7.93921 1.98277C17.8091 0.666787 27.81 0.666789 37.6799 1.98277L37.6799 34.2019C27.7835 33.3772 17.8356 33.3772 7.93921 34.2019L7.93921 1.98277ZM36.1442 32.5406L36.1442 3.33537Q29.4766 2.52714 22.809 2.52717L22.8088 2.52717Q16.1418 2.52721 9.4749 3.33537L9.4749 32.5406Q16.1384 32.0468 22.802 32.0466L22.8045 32.0466Q29.4743 32.0464 36.1442 32.5406Z" fill="rgb(5,27,50)" fill-rule="evenodd" />
			<path id="Rectangle 1980" d="M16.674 26.002L28.7179 26.002L28.7179 26.9475L16.674 26.1264L16.674 26.002Z" fill="rgb(5,27,50)" fill-rule="nonzero" />
			<path id="Vector 1395" d="M0 12.6286L0 0L17.1749 0L21.9737 4.04115L26.52 0L43.9475 0L43.9475 12.6286L43.545 12.5869C29.2024 11.1032 14.7451 11.1032 0.40254 12.5869L0 12.6286Z" fill="rgb(46,164,255)" fill-rule="evenodd" transform="matrix(1,0,0,-1,0.767578,21.6714)" />
			<path id="Vector 1395" d="M0 12.6286L0.40254 12.5869C14.7451 11.1032 29.2024 11.1032 43.545 12.5869L43.9475 12.6286L43.9475 0L26.52 0L21.9737 4.04115L17.1749 0L0 0L0 12.6286Z" fill-rule="evenodd" stroke="rgb(5,27,50)" stroke-width="1.535263" transform="matrix(1,0,0,-1,0.767578,21.6714)" />
		</g>
		<path id="Choice" d="M56.2697 23.6699L56.2697 29.0238C56.2971 29.3259 56.3246 29.6279 56.3795 29.9299C56.3795 29.9573 56.3795 29.9848 56.4069 30.0123C56.4344 30.3143 56.5168 30.5614 56.5717 30.8359C56.5991 30.8909 56.5991 30.9183 56.6266 30.9732C56.709 31.2203 56.7913 31.44 56.8737 31.6871L56.9561 31.8518C57.0659 32.0715 57.1482 32.2637 57.2581 32.4558C57.313 32.5382 57.3679 32.5931 57.4228 32.6755L57.7523 33.1697C57.8346 33.2521 57.917 33.3344 57.9994 33.4443C58.1092 33.5541 58.219 33.6914 58.3289 33.8012C58.4661 33.911 58.6309 34.0483 58.7682 34.1581C58.8505 34.213 58.9329 34.2954 59.0153 34.3503C60.7999 35.6682 63.4357 36.2997 66.8677 36.2448L73.2101 36.2448C73.5944 36.2448 73.9513 36.2448 74.3082 36.2173L74.5553 36.2173C74.8848 36.1899 75.2143 36.1624 75.5438 36.1075L75.681 36.1075C76.6969 35.9702 77.6304 35.778 78.4541 35.5035C78.509 35.476 78.5639 35.4485 78.5914 35.4485C78.8659 35.3387 79.0856 35.2564 79.3327 35.1465L79.4974 35.0642C80.4858 34.5974 81.2821 33.9659 81.9136 33.2246C81.941 33.1697 81.9685 33.1148 82.0234 33.0873C82.1607 32.8951 82.2705 32.7029 82.4078 32.5382C82.4078 32.4833 82.4352 32.4558 82.4627 32.4009C82.8196 31.7969 83.0942 31.083 83.2589 30.3143C83.2589 30.2594 83.2864 30.2045 83.2864 30.1495C83.3413 29.9299 83.3687 29.6828 83.3962 29.4082C83.3962 29.3533 83.3962 29.271 83.4236 29.216C83.4236 28.9415 83.4511 28.6669 83.4511 28.3924L83.4511 28.1453L77.1637 28.1453C77.1362 28.1727 77.1362 28.2002 77.1362 28.2276L77.1362 28.31C77.0264 28.7218 76.8891 29.0788 76.6969 29.4082C76.6969 29.4357 76.6695 29.4631 76.6695 29.4631C76.6145 29.573 76.5322 29.6828 76.4773 29.7652C76.4498 29.7926 76.4224 29.8201 76.4224 29.8475C76.0929 30.2319 75.6536 30.5614 75.1319 30.8359C75.1045 30.8359 75.077 30.8634 75.0496 30.8634C74.9123 30.9183 74.8024 30.9732 74.6652 31.0281C74.6377 31.0281 74.6103 31.0281 74.5828 31.0556C74.1435 31.1929 73.6493 31.3027 73.1002 31.3851L73.0453 31.3851C72.8805 31.4125 72.6883 31.4125 72.4961 31.4125C72.4687 31.44 72.4138 31.44 72.3863 31.44L68.1032 31.44C66.2911 31.4674 64.8908 31.138 63.9299 30.4516L63.8201 30.3417C63.7377 30.2868 63.6553 30.2045 63.5729 30.1495C63.518 30.0946 63.4631 30.0123 63.4082 29.9573C63.3533 29.9024 63.3258 29.8475 63.2709 29.8201C63.216 29.7377 63.1611 29.6279 63.1062 29.5455C63.0787 29.5181 63.0513 29.4631 63.0238 29.4357C62.9415 29.3259 62.914 29.216 62.8591 29.1062C62.8316 29.0788 62.8316 29.0513 62.8042 29.0238C62.7493 28.914 62.7218 28.7767 62.6669 28.6395C62.6669 28.6395 62.6669 28.612 62.6394 28.5845C62.612 28.4473 62.5845 28.2825 62.5571 28.1453L62.5571 28.0903C62.5296 27.9256 62.5022 27.7883 62.5022 27.6236L62.5022 27.5961L62.4747 24.7956C62.4747 24.6309 62.5022 24.4936 62.5022 24.3563L62.5022 24.2465C62.5296 24.1092 62.5296 23.9719 62.5571 23.8347C62.5845 23.8072 62.5845 23.7797 62.5845 23.7797C62.6669 23.3679 62.8042 22.9835 62.9964 22.6541C63.0238 22.6266 63.0238 22.5991 63.0513 22.5991C63.1062 22.4893 63.1611 22.4069 63.2435 22.2971C63.2709 22.2697 63.2709 22.2422 63.2984 22.2148C63.6279 21.8304 64.0672 21.5009 64.5888 21.2538C64.6163 21.2263 64.6437 21.2263 64.6712 21.1989C64.781 21.144 64.9183 21.0891 65.0556 21.0341L65.1379 21.0341C65.5772 20.8694 66.044 20.7596 66.5931 20.7047C66.6206 20.7047 66.648 20.6772 66.6755 20.6772C66.8402 20.6772 67.0324 20.6498 67.1971 20.6498L67.3344 20.6498C67.5266 20.6223 67.7188 20.6223 67.911 20.6223L71.5901 20.6223C73.4296 20.5949 74.8299 20.9243 75.7634 21.6107C75.8183 21.6656 75.8458 21.6931 75.9007 21.7205C75.9831 21.8029 76.0654 21.8578 76.1203 21.9127L76.3125 22.1049C76.34 22.1598 76.3949 22.2148 76.4224 22.2697C76.5047 22.352 76.5596 22.4344 76.6145 22.5168C76.642 22.5442 76.6695 22.5991 76.6969 22.6266L76.8616 22.9561C76.8616 22.9835 76.8891 23.011 76.8891 23.0384C76.944 23.1757 76.9989 23.2855 77.0264 23.4228C77.0538 23.4503 77.0538 23.4777 77.0538 23.4777C77.1087 23.6425 77.1362 23.7797 77.1637 23.917L83.4236 23.917L83.4236 23.0659C83.3962 22.7364 83.3687 22.4344 83.3138 22.1598L83.3138 22.05C83.2589 21.7755 83.204 21.5009 83.1216 21.2263C83.1216 21.1989 83.0942 21.144 83.0942 21.1165C83.0118 20.8694 82.9294 20.6223 82.8196 20.4027C82.7921 20.3477 82.7647 20.2654 82.7372 20.2105C82.6549 20.0183 82.545 19.7986 82.4352 19.6064C82.4078 19.5515 82.3529 19.4692 82.2979 19.3868C82.1881 19.2221 82.0783 19.0573 81.941 18.92C81.8861 18.8102 81.7763 18.7278 81.6939 18.6455C81.5841 18.5082 81.5017 18.3984 81.3644 18.2885C81.2272 18.1513 81.0899 18.0414 80.9526 17.9042C80.8702 17.8493 80.7879 17.7669 80.7055 17.712C78.9209 16.4215 76.2851 15.7901 72.8531 15.8175L66.4833 15.8175C66.1264 15.8175 65.7694 15.845 65.4125 15.845C65.3301 15.845 65.2478 15.8724 65.1654 15.8724C64.8085 15.8724 64.479 15.8999 64.1495 15.9548L64.0397 15.9548C62.9964 16.0921 62.0903 16.2843 61.2666 16.5863C61.2117 16.5863 61.1568 16.6137 61.1019 16.6412C60.8548 16.7236 60.6077 16.8059 60.3881 16.9157C60.3331 16.9432 60.2782 16.9707 60.2233 16.9981C59.2349 17.4649 58.4387 18.0964 57.8072 18.8651C57.7797 18.8926 57.7248 18.9475 57.6974 19.0024C57.5601 19.1671 57.4228 19.3593 57.313 19.5515C57.2855 19.579 57.2581 19.6064 57.2581 19.6613C56.8737 20.2928 56.6266 20.9792 56.4618 21.748C56.4344 21.8029 56.4344 21.8578 56.4344 21.9127C56.3795 22.1598 56.352 22.4069 56.3246 22.6541C56.2971 22.7364 56.2971 22.7913 56.2971 22.8737C56.2697 23.1208 56.2697 23.3954 56.2697 23.6699ZM141.939 28.3924L141.939 23.0659C141.912 22.7364 141.884 22.4344 141.829 22.1598C141.829 22.1049 141.802 22.0775 141.802 22.05L141.637 21.2263C141.61 21.1989 141.61 21.144 141.582 21.0891C141.5 20.8694 141.418 20.6223 141.335 20.4027C141.308 20.3203 141.28 20.2654 141.253 20.2105C141.143 20.0183 141.061 19.7986 140.951 19.6064C140.896 19.5515 140.841 19.4692 140.786 19.3868C140.676 19.2221 140.566 19.0573 140.457 18.92C140.374 18.8102 140.292 18.7278 140.21 18.618L139.88 18.2885C139.743 18.1513 139.578 18.0414 139.441 17.9042C139.358 17.8493 139.276 17.7669 139.194 17.712C137.409 16.4215 134.773 15.7901 131.341 15.8175L125.685 15.8175C125.328 15.8175 124.971 15.845 124.614 15.845C124.532 15.845 124.45 15.8724 124.367 15.8724C124.01 15.8724 123.681 15.8999 123.352 15.9548L123.242 15.9548C122.198 16.0921 121.292 16.2843 120.469 16.5863C120.414 16.5863 120.359 16.6137 120.304 16.6137C120.057 16.7236 119.81 16.8059 119.59 16.9157L119.425 16.9981C118.437 17.4649 117.641 18.0964 117.009 18.8651C116.982 18.8926 116.927 18.9475 116.899 19.0024C116.762 19.1671 116.625 19.3593 116.515 19.5515C116.488 19.579 116.46 19.6064 116.46 19.6613C116.076 20.2928 115.829 20.9792 115.664 21.748C115.636 21.8029 115.636 21.8578 115.636 21.9127C115.581 22.1598 115.554 22.4069 115.527 22.6541C115.499 22.7364 115.499 22.7913 115.499 22.8737C115.472 23.1208 115.472 23.3953 115.472 23.6698L115.472 29.0238C115.499 29.3259 115.527 29.6279 115.581 29.9299C115.581 29.9573 115.581 29.9848 115.609 30.0123C115.636 30.3143 115.719 30.5614 115.774 30.8359C115.801 30.8909 115.801 30.9183 115.829 30.9732C115.911 31.2203 115.993 31.44 116.076 31.6871L116.158 31.8518C116.268 32.0715 116.35 32.2637 116.46 32.4558C116.515 32.5382 116.57 32.5931 116.625 32.6755L116.954 33.1697C117.037 33.2521 117.119 33.3344 117.201 33.4443C117.311 33.5541 117.421 33.6914 117.531 33.8012C117.668 33.911 117.833 34.0483 117.97 34.1581C118.053 34.213 118.135 34.2954 118.217 34.3503C120.002 35.6407 122.638 36.2997 126.07 36.2448L131.726 36.2448C132.083 36.2448 132.439 36.2448 132.796 36.2173C132.879 36.2173 132.961 36.2173 133.043 36.1899C133.4 36.1899 133.73 36.1624 134.032 36.1075L134.169 36.1075C135.213 35.9702 136.119 35.778 136.942 35.5035C136.997 35.476 137.052 35.4485 137.107 35.4485C137.354 35.3387 137.601 35.2564 137.821 35.1465L137.986 35.0642C138.974 34.5974 139.77 33.9659 140.402 33.2246C140.429 33.1697 140.484 33.1148 140.512 33.0873C140.649 32.8951 140.786 32.7029 140.896 32.5382C140.923 32.4833 140.923 32.4558 140.951 32.4009C141.335 31.7969 141.582 31.083 141.747 30.3143C141.774 30.2594 141.774 30.2045 141.774 30.1495C141.829 29.9299 141.857 29.6828 141.884 29.4082C141.912 29.3533 141.912 29.271 141.912 29.216C141.939 28.9415 141.939 28.6669 141.939 28.3924ZM153.358 28.9689L153.358 29.0238C153.385 29.3259 153.413 29.6279 153.468 29.9299C153.468 29.9573 153.468 29.9848 153.495 30.0123C153.522 30.3143 153.605 30.5614 153.66 30.8359C153.687 30.8909 153.687 30.9183 153.715 30.9732C153.797 31.2203 153.879 31.44 153.962 31.6871L154.044 31.8518C154.154 32.0715 154.236 32.2637 154.346 32.4558C154.401 32.5382 154.456 32.5931 154.511 32.6755L154.84 33.1697C154.923 33.2521 155.005 33.3344 155.087 33.4443C155.197 33.5541 155.307 33.6914 155.417 33.8012C155.554 33.911 155.719 34.0483 155.856 34.1581C155.939 34.213 156.021 34.2954 156.103 34.3503C157.888 35.6682 160.524 36.2997 163.956 36.2448L170.298 36.2448C170.682 36.2448 171.039 36.2448 171.396 36.2173L171.643 36.2173C171.973 36.1899 172.302 36.1624 172.632 36.1075L172.769 36.1075C173.785 35.9702 174.718 35.778 175.542 35.5035C175.597 35.476 175.652 35.4485 175.679 35.4485C175.954 35.3387 176.174 35.2564 176.421 35.1465L176.585 35.0642C177.574 34.5974 178.37 33.9659 179.002 33.2246C179.029 33.1697 179.057 33.1148 179.111 33.0873C179.249 32.8951 179.359 32.7029 179.496 32.5382C179.496 32.4833 179.523 32.4558 179.551 32.4009C179.908 31.7969 180.182 31.083 180.347 30.3143C180.347 30.2594 180.374 30.2045 180.374 30.1495C180.429 29.9299 180.457 29.6828 180.484 29.4082C180.484 29.3533 180.484 29.271 180.512 29.216C180.512 28.9415 180.539 28.6669 180.539 28.3924L180.539 28.1453L174.252 28.1453C174.224 28.1727 174.224 28.2002 174.224 28.2276L174.224 28.31C174.114 28.7218 173.977 29.0788 173.785 29.4082C173.785 29.4357 173.758 29.4631 173.758 29.4631C173.703 29.573 173.62 29.6828 173.565 29.7652C173.538 29.7926 173.51 29.8201 173.51 29.8475C173.181 30.2319 172.742 30.5614 172.22 30.8359C172.193 30.8359 172.165 30.8634 172.138 30.8634C172 30.9183 171.891 30.9732 171.753 31.0281C171.726 31.0281 171.698 31.0281 171.671 31.0556C171.232 31.1929 170.737 31.3027 170.188 31.3851L170.133 31.3851C169.969 31.4125 169.776 31.4125 169.584 31.4125C169.557 31.44 169.502 31.44 169.474 31.44L165.191 31.44C163.379 31.4674 161.979 31.138 161.018 30.4516L160.908 30.3417C160.826 30.2868 160.743 30.2045 160.661 30.1495C160.606 30.0946 160.551 30.0123 160.496 29.9573C160.441 29.9024 160.414 29.8475 160.359 29.8201C160.304 29.7377 160.249 29.6279 160.194 29.5455C160.167 29.5181 160.139 29.4631 160.112 29.4357C160.03 29.3259 160.002 29.216 159.947 29.1062C159.92 29.0788 159.92 29.0513 159.892 29.0238C159.837 28.914 159.81 28.7767 159.755 28.6395C159.755 28.6395 159.755 28.612 159.727 28.5845C159.7 28.4473 159.673 28.2825 159.645 28.1453L159.645 28.0903C159.618 27.9256 159.59 27.7883 159.59 27.6236L159.59 27.5961L159.563 24.7956C159.563 24.6309 159.59 24.4936 159.59 24.3563L159.59 24.2465C159.618 24.1092 159.618 23.9719 159.645 23.8347C159.673 23.8072 159.673 23.7797 159.673 23.7797C159.755 23.3679 159.892 22.9835 160.084 22.6541C160.112 22.6266 160.112 22.5991 160.139 22.5991C160.194 22.4893 160.249 22.4069 160.332 22.2971C160.359 22.2697 160.359 22.2422 160.386 22.2148C160.716 21.8304 161.155 21.5009 161.677 21.2538C161.704 21.2263 161.732 21.2263 161.759 21.1989C161.869 21.144 162.006 21.0891 162.144 21.0341L162.226 21.0341C162.665 20.8694 163.132 20.7596 163.681 20.7047C163.709 20.7047 163.736 20.6772 163.764 20.6772C163.928 20.6772 164.12 20.6498 164.285 20.6498L164.422 20.6498C164.615 20.6223 164.807 20.6223 164.999 20.6223L168.678 20.6223C170.518 20.5949 171.918 20.9243 172.851 21.6107C172.906 21.6656 172.934 21.6931 172.989 21.7205C173.071 21.8029 173.153 21.8578 173.208 21.9127L173.401 22.1049C173.428 22.1598 173.483 22.2148 173.51 22.2697C173.593 22.352 173.648 22.4344 173.703 22.5168C173.73 22.5442 173.757 22.5991 173.785 22.6266L173.95 22.9561C173.95 22.9835 173.977 23.011 173.977 23.0384C174.032 23.1757 174.087 23.2855 174.114 23.4228C174.142 23.4503 174.142 23.4777 174.142 23.4777C174.197 23.6425 174.224 23.7797 174.252 23.917L180.512 23.917L180.512 23.0659C180.484 22.7364 180.457 22.4344 180.402 22.1598L180.402 22.05C180.347 21.7755 180.292 21.5009 180.21 21.2263C180.21 21.1989 180.182 21.144 180.182 21.1165C180.1 20.8694 180.017 20.6223 179.908 20.4027C179.88 20.3477 179.853 20.2654 179.825 20.2105C179.743 20.0183 179.633 19.7986 179.523 19.6064C179.496 19.5515 179.441 19.4692 179.386 19.3868C179.276 19.2221 179.166 19.0573 179.029 18.92C178.974 18.8102 178.864 18.7278 178.782 18.6455C178.672 18.5082 178.59 18.3984 178.452 18.2885C178.315 18.1513 178.178 18.0414 178.041 17.9042C177.958 17.8493 177.876 17.7669 177.794 17.712C176.009 16.4215 173.373 15.7901 169.941 15.8175L163.571 15.8175C163.214 15.8175 162.857 15.845 162.501 15.845C162.418 15.845 162.336 15.8724 162.253 15.8724C161.897 15.8724 161.567 15.8999 161.238 15.9548L161.128 15.9548C160.084 16.0921 159.178 16.2843 158.355 16.5863C158.3 16.5863 158.245 16.6137 158.19 16.6412C157.943 16.7236 157.696 16.8059 157.476 16.9157L157.311 16.9981C156.323 17.4649 155.527 18.0964 154.895 18.8651C154.868 18.8926 154.813 18.9475 154.785 19.0024C154.648 19.1671 154.511 19.3593 154.401 19.5515C154.374 19.579 154.346 19.6064 154.346 19.6613C153.962 20.2928 153.715 20.9792 153.55 21.748C153.522 21.8029 153.522 21.8578 153.522 21.9127C153.468 22.1598 153.44 22.4069 153.413 22.6541C153.385 22.7364 153.385 22.7913 153.385 22.8737C153.358 23.1208 153.358 23.3954 153.358 23.6699L153.358 28.9689ZM92.063 36.2448L85.858 36.2448L85.858 15.8175L92.063 15.8175L92.063 23.917L106.67 23.917L106.67 15.8175L112.875 15.8175L112.875 36.2448L106.67 36.2448L106.67 28.1453L92.063 28.1453L92.063 36.2448ZM150.756 36.2448L144.551 36.2448L144.551 15.8175L150.756 15.8175L150.756 36.2448ZM135.734 27.2941C135.734 27.4314 135.707 27.5687 135.707 27.706L135.707 27.8158C135.679 27.9531 135.652 28.0903 135.652 28.2276C135.624 28.2551 135.624 28.2825 135.624 28.31C135.542 28.7218 135.405 29.0788 135.213 29.4082C135.185 29.4357 135.185 29.4631 135.158 29.4631C135.103 29.573 135.048 29.6828 134.965 29.7652C134.938 29.7926 134.938 29.8201 134.91 29.8475C134.581 30.2319 134.142 30.5614 133.62 30.8085C133.593 30.8359 133.565 30.8634 133.538 30.8634C133.428 30.9183 133.291 30.9732 133.153 31.0281C133.126 31.0281 133.098 31.0281 133.071 31.0556C132.632 31.1929 132.137 31.3027 131.616 31.3576C131.588 31.3851 131.561 31.3851 131.533 31.3851C131.369 31.3851 131.176 31.4125 131.012 31.4125C130.957 31.44 130.929 31.44 130.874 31.44L127.305 31.44C125.493 31.4674 124.093 31.138 123.132 30.4516L123.022 30.3417C122.94 30.2868 122.857 30.2045 122.775 30.1495C122.72 30.0946 122.665 30.0123 122.61 29.9573C122.555 29.9024 122.528 29.8475 122.473 29.8201C122.418 29.7377 122.363 29.6279 122.281 29.5455C122.281 29.5181 122.253 29.4631 122.226 29.4357C122.143 29.3259 122.116 29.216 122.061 29.1062C122.034 29.0788 122.034 29.0513 122.006 29.0238C121.951 28.914 121.924 28.7767 121.869 28.6395C121.869 28.612 121.869 28.612 121.841 28.5845C121.814 28.4473 121.787 28.2825 121.759 28.1453L121.759 28.0903C121.732 27.9256 121.704 27.7883 121.704 27.6236L121.704 27.5961L121.677 24.7956L121.677 24.7955C121.677 24.6308 121.677 24.4936 121.704 24.3563L121.704 24.2465C121.732 24.1092 121.732 23.9719 121.759 23.8347C121.787 23.8072 121.787 23.7797 121.787 23.7523C121.869 23.3679 122.006 22.9835 122.198 22.6541C122.226 22.6266 122.226 22.5991 122.253 22.5991C122.308 22.4893 122.363 22.3795 122.445 22.2971C122.473 22.2697 122.473 22.2422 122.5 22.2148C122.83 21.8304 123.269 21.5009 123.791 21.2538C123.818 21.2263 123.846 21.2263 123.873 21.1989C123.983 21.144 124.12 21.0891 124.258 21.0341C124.285 21.0341 124.312 21.0341 124.34 21.0067C124.779 20.8694 125.246 20.7596 125.795 20.7047C125.823 20.7047 125.85 20.6772 125.877 20.6772C126.042 20.6772 126.234 20.6498 126.399 20.6498C126.454 20.6498 126.481 20.6498 126.536 20.6223L130.106 20.6223C131.918 20.5949 133.318 20.9243 134.279 21.6107C134.306 21.6656 134.361 21.6931 134.389 21.7205C134.471 21.8029 134.554 21.8578 134.636 21.9127C134.691 21.9677 134.746 22.05 134.801 22.1049C134.856 22.1598 134.883 22.2148 134.938 22.2697L135.103 22.5168C135.13 22.5442 135.158 22.5991 135.185 22.6266L135.35 22.9561C135.377 22.9835 135.377 23.011 135.405 23.0384C135.46 23.1757 135.487 23.2855 135.542 23.4228L135.542 23.4777C135.597 23.615 135.624 23.7797 135.652 23.917L135.652 23.9719C135.679 24.1367 135.707 24.3014 135.707 24.4661L135.734 27.2941Z" fill="rgb(5,27,50)" fill-rule="evenodd" />
		<path id="Union" d="M195.853 31.436L195.853 36.3002L189.587 36.3002L189.587 31.1581L178.859 15.8935L186.39 15.8935L192.814 24.462L199.368 15.8813L206.767 15.8813L195.853 31.436Z" fill="rgb(5,27,50)" fill-rule="evenodd" />
	</g>
</svg>
