<svg width="20" height="14" viewBox="0 0 20 14" fill="none" xmlns="http://www.w3.org/2000/svg">
<path d="M1 5V3.84507C1 3.37835 1.37835 3 1.84507 3H2.5M1 5H17M1 5V7M17 5V3.84507C17 3.37835 16.6216 3 16.1549 3H2.5M17 5V7M1 7V12.1549C1 12.6216 1.37835 13 1.84507 13H16.1549C16.6216 13 17 12.6216 17 12.1549V10.5M1 7H17M17 7V10.5M2.5 3V1.84507C2.5 1.37835 2.87835 1 3.34507 1H18.1549C18.6216 1 19 1.37835 19 1.84507V9.65493C19 10.1216 18.6216 10.5 18.1549 10.5H17" stroke="#706F6F" stroke-linecap="round"/>
<path d="M4 10H7.5" stroke="#706F6F" stroke-linecap="round"/>
<path d="M12 10H14" stroke="#706F6F" stroke-linecap="round"/>
</svg>
