<svg width="27" height="23" viewBox="0 0 27 23" fill="none" xmlns="http://www.w3.org/2000/svg">
<path d="M5.47949 2.23242C7.44068 1.46942 10.153 1.88109 12.7578 4.77344L13.5 5.59766L14.2432 4.77344C16.8227 1.90973 19.5172 1.61405 21.4971 2.44434C23.5531 3.30659 25.0361 5.44834 25.0361 7.86719C25.0361 9.1322 24.4194 10.6505 23.332 12.2939C22.2593 13.9152 20.8042 15.5448 19.3047 17.0078C17.8089 18.4672 16.2924 19.7374 15.1152 20.6396C14.5262 21.0911 14.0304 21.4447 13.6709 21.6807C13.6088 21.7214 13.551 21.7561 13.5 21.7881C13.4493 21.7563 13.3926 21.7211 13.3311 21.6807C12.9715 21.4447 12.4749 21.0912 11.8857 20.6396C10.7085 19.7374 9.19208 18.4672 7.69629 17.0078C6.1968 15.5448 4.7417 13.9152 3.66895 12.2939C2.58158 10.6506 1.96485 9.13219 1.96484 7.86719C1.96484 5.12283 3.47249 3.01349 5.47949 2.23242Z" stroke="#706F6F" stroke-width="2"/>
</svg>
