<svg width="270" height="213" viewBox="0 0 270 213" fill="none" xmlns="http://www.w3.org/2000/svg">
<path d="M196.822 123.38C202.643 139.818 205.712 157.099 205.912 174.528L192.796 180.149L194.428 122.221L195.972 120.979L196.822 123.38Z" fill="#706F6F" stroke="#706F6F" stroke-width="5.54565"/>
<path d="M85.543 122.439C79.871 138.946 76.8834 156.252 76.6885 173.697L89.8057 179.319L88.1816 121.642L86.2158 120.481L85.543 122.439Z" fill="#706F6F" stroke="#706F6F" stroke-width="5.54565"/>
<path d="M161.478 163.012L140.984 194.255L152.303 209.376H192.501V163.012H161.478Z" stroke="#706F6F" stroke-width="5.54565"/>
<path d="M161.471 163.012L130.744 209.376H90.6475V163.012H161.471Z" stroke="#706F6F" stroke-width="5.54565"/>
<path d="M90.6465 51.6992C124.461 47.3973 158.685 47.3973 192.5 51.6992V79.6924L195.491 79.4561L218.245 77.6572V117.663H192.5V162.605C158.601 159.939 124.545 159.939 90.6465 162.605V117.663H64.749V77.6553L87.6562 79.4561L90.6465 79.6904V51.6992Z" stroke="#706F6F" stroke-width="5.54565"/>
<path d="M119.426 136.006H162.918V139.421L119.426 136.455V136.006Z" fill="#706F6F"/>
<path d="M122.987 117.594L139.542 103.652L141.377 102.107L143.169 103.701L158.799 117.594H217.907V77.834C166.985 82.9927 115.671 82.9926 64.749 77.834V117.594H122.987Z" stroke="#706F6F" stroke-width="5.54411"/>
<path d="M226.435 21.3288C233.419 24.2575 239.97 28.1258 245.907 32.8266C246.154 33.0222 246.22 33.3708 246.06 33.6423L230.2 60.5009C229.99 60.8572 229.545 60.9992 229.167 60.832C222.356 57.8245 215.92 54.0273 209.995 49.5185C209.666 49.2677 209.576 48.8095 209.786 48.4528L225.648 21.5899C225.809 21.3187 226.144 21.2069 226.435 21.3288Z" stroke="#706F6F" stroke-width="1.37071"/>
<circle cx="231.313" cy="35.3075" r="4.47657" transform="rotate(30.5607 231.313 35.3075)" fill="#706F6F" stroke="#706F6F" stroke-width="1.37173"/>
<circle cx="224.563" cy="46.7391" r="4.47657" transform="rotate(30.5607 224.563 46.7391)" stroke="#706F6F" stroke-width="1.37173"/>
<path d="M229.055 20.2725C234.8 23.0947 240.32 26.3541 245.566 30.0219L246.146 29.04C246.501 28.4382 246.358 27.6666 245.811 27.2321C241.415 23.742 236.559 20.8744 231.38 18.7104C230.735 18.4409 229.99 18.6884 229.635 19.2902L229.055 20.2725Z" fill="#706F6F"/>
<path d="M12.3615 135.449C23.0089 130.129 34.1472 125.853 45.6194 122.682C46.6955 122.385 47.8215 122.953 48.2217 123.995L56.3728 145.229C56.7205 146.135 56.2239 147.145 55.2942 147.423C43.7936 150.856 32.5726 155.166 21.7306 160.314C20.8537 160.73 19.8072 160.312 19.4593 159.406L11.3061 138.166C10.9061 137.124 11.3631 135.948 12.3615 135.449Z" stroke="#706F6F" stroke-width="1.46571"/>
<circle cx="23.9053" cy="144.424" r="4.78685" transform="rotate(-21 23.9053 144.424)" stroke="#706F6F" stroke-width="1.46681"/>
<circle cx="45.994" cy="135.945" r="2.36582" transform="rotate(-21 45.994 135.945)" fill="#706F6F"/>
<circle cx="39.8768" cy="133.225" r="2.36582" transform="rotate(-21 39.8768 133.225)" fill="#706F6F"/>
<circle cx="37.1581" cy="139.337" r="2.36582" transform="rotate(-21 37.1581 139.337)" fill="#706F6F"/>
<circle cx="43.2714" cy="142.059" r="2.36582" transform="rotate(-21 43.2714 142.059)" fill="#706F6F"/>
<path d="M12.1536 44.2785C23.6916 37.3965 35.8475 31.6074 48.463 26.9881C49.7028 26.5341 51.0846 27.0959 51.6563 28.286L62.8761 51.6409C48.4398 56.7105 34.5954 63.3318 21.5865 71.3899L20.8605 71.8384L9.71638 48.641C9.10129 47.3605 9.56481 45.8219 10.7849 45.0942L12.1536 44.2785Z" stroke="#706F6F" stroke-width="1.66175"/>
<path d="M14.9141 77.8922C32.5749 66.6488 51.5131 57.5508 71.3278 50.7909C72.1428 52.4875 71.4282 54.5236 69.7316 55.3388L44.5971 67.4142L19.4629 79.4887C17.7659 80.304 15.7294 79.5892 14.9141 77.8922Z" fill="#706F6F"/>
<path d="M240.219 118.558C249.274 122.133 257.91 126.69 265.971 132.149C266.562 132.548 266.758 133.328 266.428 133.96L250.469 164.55L236.464 157.251L221.135 149.254L237.013 118.821C237.389 118.101 238.249 117.78 239.005 118.079L240.219 118.558Z" stroke="#706F6F" stroke-width="1.39294"/>
<path d="M221.123 147.773C231.822 152.047 242.062 157.389 251.688 163.72L250.762 165.495C249.996 166.963 248.185 167.532 246.717 166.766L234.092 160.18L221.468 153.593C220 152.827 219.431 151.017 220.196 149.549L221.123 147.773Z" fill="#706F6F"/>
<path d="M246.543 124.972L247.75 125.463C250.194 126.457 252.539 127.681 254.753 129.117L255.846 129.826L255.383 130.713L250.903 127.957L246.08 125.86L246.543 124.972Z" fill="#706F6F"/>
<rect x="46.3242" y="165.803" width="15.1168" height="15.1168" rx="3.02335" transform="rotate(25.2004 46.3242 165.803)" fill="#706F6F"/>
<rect x="248.477" y="77.4463" width="22.9806" height="22.9806" rx="4.59611" transform="rotate(25.2004 248.477 77.4463)" fill="#706F6F"/>
<rect x="236.246" y="172.429" width="9.00906" height="9.00906" rx="1.80181" transform="rotate(72.6769 236.246 172.429)" fill="#706F6F"/>
<rect x="46.2812" y="90.6992" width="9.00906" height="9.00906" rx="1.80181" transform="rotate(72.6769 46.2812 90.6992)" fill="#706F6F"/>
<rect x="201.762" y="17.8057" width="14.5365" height="14.5365" rx="2.90731" transform="rotate(72.6769 201.762 17.8057)" fill="#706F6F"/>
<rect x="59.7695" y="5.5791" width="30.2683" height="30.2683" rx="6.05366" transform="rotate(-10.3631 59.7695 5.5791)" fill="#706F6F"/>
</svg>
