<svg width="24" height="24" viewBox="0 0 24 24" fill="none" xmlns="http://www.w3.org/2000/svg">
<path fill-rule="evenodd" clip-rule="evenodd" d="M7 3C7 2.44772 7.44772 2 8 2C8.55228 2 9 2.44772 9 3V4H15V3C15 2.44772 15.4477 2 16 2C16.5523 2 17 2.44772 17 3V4H19C20.1046 4 21 4.89543 21 6V20C21 21.1046 20.1046 22 19 22H5C3.89543 22 3 21.1046 3 20V6C3 4.89543 3.89543 4 5 4H7V3ZM4 8V20C4 20.5523 4.44772 21 5 21H19C19.5523 21 20 20.5523 20 20V8H4ZM9 10C9 9.44772 8.55228 9 8 9H6C5.44772 9 5 9.44772 5 10V11C5 11.5523 5.44772 12 6 12H8C8.55228 12 9 11.5523 9 11V10ZM8 13C8.55228 13 9 13.4477 9 14V15C9 15.5523 8.55228 16 8 16H6C5.44772 16 5 15.5523 5 15V14C5 13.4477 5.44772 13 6 13H8ZM9 18C9 17.4477 8.55228 17 8 17H6C5.44772 17 5 17.4477 5 18V19C5 19.5523 5.44772 20 6 20H8C8.55228 20 9 19.5523 9 19V18ZM18 9C18.5523 9 19 9.44772 19 10V11C19 11.5523 18.5523 12 18 12H16C15.4477 12 15 11.5523 15 11V10C15 9.44772 15.4477 9 16 9H18ZM19 14C19 13.4477 18.5523 13 18 13H16C15.4477 13 15 13.4477 15 14V15C15 15.5523 15.4477 16 16 16H18C18.5523 16 19 15.5523 19 15V14ZM18 17C18.5523 17 19 17.4477 19 18V19C19 19.5523 18.5523 20 18 20H16C15.4477 20 15 19.5523 15 19V18C15 17.4477 15.4477 17 16 17H18ZM14 10C14 9.44772 13.5523 9 13 9H11C10.4477 9 10 9.44772 10 10V11C10 11.5523 10.4477 12 11 12H13C13.5523 12 14 11.5523 14 11V10ZM13 13C13.5523 13 14 13.4477 14 14V15C14 15.5523 13.5523 16 13 16H11C10.4477 16 10 15.5523 10 15V14C10 13.4477 10.4477 13 11 13H13ZM14 18C14 17.4477 13.5523 17 13 17H11C10.4477 17 10 17.4477 10 18V19C10 19.5523 10.4477 20 11 20H13C13.5523 20 14 19.5523 14 19V18Z" fill="#706F6F"/>
</svg>
