<svg width="12" height="13" viewBox="0 0 12 13" fill="none" xmlns="http://www.w3.org/2000/svg">
<path d="M5.97363 1.70703C6.4063 1.0773 7.31765 1.07675 7.75977 1.66406L7.8418 1.78906L7.94824 1.97754C8.09269 2.2336 8.12794 2.53551 8.0498 2.81543L8.00977 2.93359L7.22656 4.86328L7.05371 5.29004H10.4756C11.0772 5.2901 11.5598 5.77017 11.5771 6.35742L11.5742 6.47656L11.2266 10.9941C11.1823 11.568 10.7035 12.0107 10.1279 12.0107H1.41211C0.803622 12.0107 0.30957 11.5177 0.30957 10.9092V6.3916C0.309618 5.78315 0.803651 5.29004 1.41211 5.29004H3.51172L3.60449 5.15527L5.97363 1.70703Z" stroke="#706F6F" stroke-width="0.62"/>
</svg>
