<svg width="18" height="17" viewBox="0 0 18 17" fill="none" xmlns="http://www.w3.org/2000/svg">
<path d="M3.58333 16.501C3.58333 16.7311 3.76988 16.9176 4 16.9176C4.23012 16.9176 4.41667 16.7311 4.41667 16.501L3.58333 16.501ZM4.29463 0.373016C4.13191 0.210297 3.86809 0.210297 3.70537 0.373016L1.05372 3.02467C0.891003 3.18738 0.891003 3.4512 1.05372 3.61392C1.21644 3.77664 1.48026 3.77664 1.64298 3.61392L4 1.2569L6.35702 3.61392C6.51974 3.77664 6.78356 3.77664 6.94628 3.61392C7.109 3.4512 7.109 3.18738 6.94628 3.02467L4.29463 0.373016ZM4.41667 16.501L4.41667 0.667644L3.58333 0.667644L3.58333 16.501L4.41667 16.501Z" fill="#706F6F"/>
<path d="M13.5833 0.66748C13.5833 0.437362 13.7699 0.250814 14 0.250814C14.2301 0.250814 14.4167 0.437362 14.4167 0.66748L13.5833 0.66748ZM14.2946 16.7954C14.1319 16.9582 13.8681 16.9582 13.7054 16.7954L11.0537 14.1438C10.891 13.9811 10.891 13.7173 11.0537 13.5545C11.2164 13.3918 11.4803 13.3918 11.643 13.5545L14 15.9116L16.357 13.5545C16.5197 13.3918 16.7836 13.3918 16.9463 13.5545C17.109 13.7173 17.109 13.9811 16.9463 14.1438L14.2946 16.7954ZM14.4167 0.66748L14.4167 16.5008L13.5833 16.5008L13.5833 0.66748L14.4167 0.66748Z" fill="#706F6F"/>
</svg>
