<svg width="21" height="20" viewBox="0 0 21 20" fill="none" xmlns="http://www.w3.org/2000/svg">
<circle cx="10.5" cy="10" r="10" fill="url(#paint0_linear_323_116847)"/>
<path d="M6.0625 4.88281C8.80983 4.50809 11.5929 4.4846 14.3447 4.8125L14.8945 4.88281C15.0189 4.89978 15.1123 5.0063 15.1123 5.13184V7.81934L15.417 7.78809L16.8896 7.63965V11.5H15.1123V15.2559C12.0279 15.009 8.92909 15.009 5.84473 15.2559V11.5H4.11133V7.64062L5.53906 7.78809L5.84473 7.81934V5.13184C5.84473 5.02192 5.9164 4.92692 6.01758 4.89355L6.0625 4.88281Z" stroke="#F9FAFD" stroke-width="0.555556"/>
<path d="M9.03223 11.4424L10.2793 10.165L10.4785 9.96094L10.6768 10.165L11.9248 11.4424H16.8447V7.77734C12.6129 8.24194 8.34313 8.242 4.11133 7.77734V11.4424H9.03223Z" fill="#F9FAFD" stroke="#F9FAFD" stroke-width="0.555556"/>
<defs>
<linearGradient id="paint0_linear_323_116847" x1="10.5" y1="0" x2="25.5763" y2="0.130898" gradientUnits="userSpaceOnUse">
<stop stop-color="#9747FF"/>
<stop offset="1" stop-color="#0944D5"/>
</linearGradient>
</defs>
</svg>
