<svg width="221" height="221" viewBox="0 0 221 221" fill="none" xmlns="http://www.w3.org/2000/svg">
<path fill-rule="evenodd" clip-rule="evenodd" d="M95.131 123.252H82.5713C82.0875 127.448 83.8393 131.672 87.3154 134.279L92.5078 138.173L109.338 149.953H120.477C125.032 149.953 129.36 151.944 132.324 155.402C136.139 159.852 141.707 162.414 147.568 162.414H148.291C153.685 162.414 158.058 158.041 158.058 152.647V149.868C158.058 148.201 158.447 146.557 159.192 145.065L165.555 132.34L170.099 123.252H128.406C130.071 120.975 131.765 118.588 133.438 116.131H178.469L179.254 118.619L200.615 186.264L202.078 190.896H17.9121L19.375 186.264L40.7363 118.619L41.5215 116.131H90.0988C91.7722 118.588 93.4661 120.975 95.131 123.252ZM84.542 169.534C81.8865 169.534 79.7336 167.382 79.7334 164.727C79.7334 159.576 75.8976 155.232 70.7871 154.593L38.1309 150.51L46.7393 123.252H75.4229C74.961 129.653 77.7402 135.998 83.0439 139.976L88.2773 143.901L88.3242 143.936L88.3721 143.97L104.193 155.045C101.67 163.516 93.8424 169.534 84.8877 169.534H84.542ZM148.291 169.534C157.618 169.534 165.179 161.974 165.179 152.647V149.868C165.179 149.306 165.309 148.752 165.561 148.249L175.111 129.147L192.362 183.775H27.627L35.9512 157.413L69.9043 161.658C71.4515 161.852 72.6123 163.167 72.6123 164.727C72.6125 171.315 77.954 176.655 84.542 176.655H84.8877C97.064 176.655 107.617 168.498 111.019 157.074H120.477C122.953 157.074 125.306 158.157 126.918 160.037C132.085 166.065 139.629 169.534 147.568 169.534H148.291Z" fill="#8CBF5C"/>
<path d="M46.3994 119.69H78.4415L82.0017 133.931L96.2426 144.612L106.923 155.293L99.8028 169.534L82.0017 173.094L74.8812 158.853L35.7188 155.293L46.3994 119.69Z" fill="#8CBF5C"/>
<path fill-rule="evenodd" clip-rule="evenodd" d="M111.768 136.947C111.768 136.947 150.93 92.9593 150.93 69.5352C150.93 46.1111 133.397 27.1221 111.768 27.1221C90.1391 27.1221 72.6055 46.1111 72.6055 69.5352C72.6055 92.9593 111.768 136.947 111.768 136.947ZM111.341 95.2329C127.093 95.2329 139.862 82.4638 139.862 66.7124C139.862 50.9609 127.093 38.1919 111.341 38.1919C95.59 38.1919 82.821 50.9609 82.821 66.7124C82.821 82.4638 95.59 95.2329 111.341 95.2329Z" fill="#FFC915"/>
</svg>
