<svg viewBox="0 0 20 20" xmlns="http://www.w3.org/2000/svg" xmlns:xlink="http://www.w3.org/1999/xlink" width="20.000000" height="20.000000" fill="none">
	<rect id="facebook icon" width="20.000000" height="20.000000" x="0.000000" y="0.000000" />
	<path id="Vector" d="M20 10.0611C20 4.50451 15.5229 0 10 0C4.47715 0 0 4.50451 0 10.0611C0 15.0829 3.65685 19.2452 8.4375 20L8.4375 12.9694L5.89844 12.9694L5.89844 10.0611L8.4375 10.0611L8.4375 7.84453C8.4375 5.32295 9.93043 3.93013 12.2146 3.93013C13.3087 3.93013 14.4531 4.12663 14.4531 4.12663L14.4531 6.60261L13.1922 6.60261C11.9499 6.60261 11.5625 7.37816 11.5625 8.17382L11.5625 10.0611L14.3359 10.0611L13.8926 12.9694L11.5625 12.9694L11.5625 20C16.3431 19.2452 20 15.0829 20 10.0611Z" fill="rgb(249,250,253)" fill-rule="nonzero" />
</svg>
