<svg viewBox="0 0 20 20" xmlns="http://www.w3.org/2000/svg" xmlns:xlink="http://www.w3.org/1999/xlink" width="20.000000" height="20.000000" fill="none">
	<rect id="google icon" width="20.000000" height="20.000000" x="0.000000" y="0.000000" />
	<g id="Group">
		<path id="Vector" d="M20.0009 10.239C20.0009 9.56364 19.9342 8.86648 19.823 8.21289L10.1982 8.21289L10.1982 12.0691L15.7108 12.0691C15.4885 13.3109 14.755 14.4002 13.6658 15.0974L16.9556 17.6028C18.8895 15.8381 20.0009 13.2673 20.0009 10.239Z" fill="rgb(66,128,239)" fill-rule="nonzero" />
		<path id="Vector" d="M10.1966 20.0004C12.9529 20.0004 15.2646 19.1071 16.9539 17.5821L13.6642 15.0985C12.7528 15.7085 11.5747 16.0571 10.1966 16.0571C7.52918 16.0571 5.28413 14.2924 4.46169 11.9395L1.08301 14.4885C2.81681 17.8653 6.32886 20.0004 10.1966 20.0004Z" fill="rgb(52,163,83)" fill-rule="nonzero" />
		<path id="Vector" d="M4.46231 11.9169C4.03997 10.6751 4.03997 9.32432 4.46231 8.0825L1.08362 5.51172C-0.361208 8.34394 -0.361208 11.6772 1.08362 14.4877L4.46231 11.9169Z" fill="rgb(246,183,4)" fill-rule="nonzero" />
		<path id="Vector" d="M10.1966 3.96549C11.6414 3.9437 13.064 4.48836 14.1087 5.46874L17.0206 2.59295C15.1757 0.893619 12.7306 -0.0214061 10.1966 0.000380234C6.32886 0.000380234 2.81681 2.13544 1.08301 5.51232L4.46169 8.0831C5.28413 5.70839 7.52918 3.96549 10.1966 3.96549Z" fill="rgb(229,67,53)" fill-rule="nonzero" />
	</g>
</svg>
