<svg viewBox="0 0 19 19" xmlns="http://www.w3.org/2000/svg" xmlns:xlink="http://www.w3.org/1999/xlink" width="19.000000" height="19.000000" fill="none" customFrame="url(#clipPath_0)">
	<defs>
		<clipPath id="clipPath_0">
			<rect width="19.000000" height="19.000000" x="0.000000" y="0.000000" rx="9.500000" fill="rgb(255,255,255)" />
		</clipPath>
	</defs>
	<path id="i" d="M8.85552 14.4421L8.85552 7.58211L10.1435 7.58211L10.1435 14.4421L8.85552 14.4421ZM9.49952 6.28711C9.25685 6.28711 9.04685 6.20544 8.86952 6.04211C8.69218 5.87877 8.60352 5.67111 8.60352 5.41911C8.60352 5.16711 8.69218 4.96177 8.86952 4.8031C9.04685 4.63977 9.25685 4.55811 9.49952 4.55811C9.74685 4.55811 9.95685 4.63977 10.1295 4.8031C10.3068 4.96177 10.3955 5.16711 10.3955 5.41911C10.3955 5.67111 10.3068 5.87877 10.1295 6.04211C9.95685 6.20544 9.74685 6.28711 9.49952 6.28711Z" fill="rgb(217,217,217)" fill-rule="nonzero" />
	<rect id="Frame 2867" width="18.000000" height="18.000000" x="0.500000" y="0.500000" rx="9.000000" stroke="rgb(217,217,217)" stroke-width="1.000000" />
</svg>
