<svg viewBox="0 0 16 16" xmlns="http://www.w3.org/2000/svg" xmlns:xlink="http://www.w3.org/1999/xlink" width="16.000000" height="16.000000" fill="none">
	<defs>
		<clipPath id="clipPath_0">
			<rect width="13.333334" height="11.555555" x="1.333374" y="2.000000" fill="rgb(255,255,255)" />
		</clipPath>
	</defs>
	<rect id="looked icon 5" width="16.000000" height="16.000000" x="0.000000" y="0.000000" />
	<g id="Group 994" customFrame="url(#clipPath_0)">
		<rect id="Group 994" width="13.333334" height="11.555555" x="1.333374" y="2.000000" />
		<path id="Rectangle 2335" d="M1.33325 6.16226L3.10002 6.34426L3.10002 3.69721Q3.10002 3.39221 3.2003 3.12481L3.2003 3.12479L3.20031 3.12478Q3.3006 2.85738 3.50117 2.6276Q3.50965 2.61788 3.51823 2.60832C3.52015 2.60804 3.52207 2.60777 3.524 2.6075C6.47949 2.20437 9.47603 2.20437 12.4315 2.6075C12.6935 2.64324 12.8889 2.86703 12.8889 3.13147L12.8889 3.31521Q12.0944 3.28899 11.2999 3.289L11.2999 3.289Q8.03328 3.28901 4.76668 3.73222L4.76668 8.19145L2.16659 7.92359L2.16659 9.77778L1.33325 9.77778L1.33325 6.16226ZM4.76668 13.4358C4.19959 13.4674 3.63286 13.5073 3.06665 13.5556L3.06665 12.8333L4.76668 12.8333L4.76668 13.4358Z" fill="rgb(249,250,253)" fill-rule="evenodd" />
		<path id="Vector 1394" d="M0 4.25244L0 0L5.31556 0L6.64444 1.36078L7.97333 0L13.2889 0L13.2889 4.25244C8.87386 3.74383 4.41503 3.74383 0 4.25244Z" fill="rgb(249,250,253)" fill-rule="nonzero" transform="matrix(1,0,0,-1,1.33337,9.71912)" />
		<path id="Vector 1394" d="M9.13812 0L9.96667 0.848436L10.7952 0L13.2889 0L13.2889 0.833333L12.311 0.833333L9.96667 3.23391L7.62235 0.833333L7.15953 0.833333L7.97333 0L9.13812 0ZM0 4.25244L0 0L5.31556 0L6.12936 0.833333L0.833333 0.833333L0.833333 4.16253C0.555397 4.19049 0.277612 4.22046 0 4.25244Z" fill="rgb(249,250,253)" fill-rule="evenodd" transform="matrix(1,0,0,-1,1.33337,9.71912)" />
	</g>
</svg>
