<svg viewBox="0 0 23 23" xmlns="http://www.w3.org/2000/svg" xmlns:xlink="http://www.w3.org/1999/xlink" width="23.000000" height="23.000000" fill="none">
	<defs>
		<linearGradient id="paint_linear_0" x1="-2.12848234" x2="19.75107" y1="-0.279038429" y2="27.4439011" gradientUnits="userSpaceOnUse">
			<stop stop-color="rgb(9,68,213)" offset="0" stop-opacity="1" />
			<stop stop-color="rgb(41,182,249)" offset="0.480769217" stop-opacity="1" />
			<stop stop-color="rgb(64,129,235)" offset="1" stop-opacity="1" />
		</linearGradient>
		<linearGradient id="paint_linear_1" x1="-2.12848234" x2="19.75107" y1="-0.279038429" y2="27.4439011" gradientUnits="userSpaceOnUse">
			<stop stop-color="rgb(9,68,213)" offset="0" stop-opacity="1" />
			<stop stop-color="rgb(41,182,249)" offset="0.480769217" stop-opacity="1" />
			<stop stop-color="rgb(64,129,235)" offset="1" stop-opacity="1" />
		</linearGradient>
	</defs>
	<rect id="safety icon 5" width="23.000000" height="23.000000" x="0.000000" y="0.000000" />
	<path id="Subtract" d="M11.3281 1.29517C14.0247 2.3064 16.8817 2.82446 19.7617 2.82446L20.5039 2.82446C20.5039 9.98229 17.5544 16.8238 12.3506 21.7385L11.3281 22.7043L10.3066 21.7385C5.10281 16.8238 2.15332 9.98229 2.15332 2.82446L2.89551 2.82446C5.77538 2.82446 8.63161 2.30632 11.3281 1.29517ZM15.1689 8.44263C14.9776 8.28313 14.6928 8.30904 14.5332 8.50024L10.3359 13.5344L7.97852 11.177C7.80238 11.001 7.51606 11.0011 7.33984 11.177C7.16368 11.3532 7.16373 11.6395 7.33984 11.8157L10.0479 14.5227L10.3975 14.8723L10.7139 14.4924L15.2266 9.07837C15.3859 8.88693 15.3603 8.60213 15.1689 8.44263Z" fill="url(#paint_linear_0)" fill-rule="nonzero" />
	<path id="Subtract" d="M11.3281 1.29517C14.0247 2.3064 16.8817 2.82446 19.7617 2.82446L20.5039 2.82446C20.5039 9.98229 17.5544 16.8238 12.3506 21.7385L11.3281 22.7043L10.3066 21.7385C5.10281 16.8238 2.15332 9.98229 2.15332 2.82446L2.89551 2.82446C5.77538 2.82446 8.63161 2.30632 11.3281 1.29517ZM13.5679 5.34459Q12.4393 5.08029 11.3286 4.71764Q9.56567 5.29324 7.75781 5.62107L7.75736 5.62115Q6.67231 5.81788 5.57108 5.92536Q5.71648 7.09746 5.97474 8.22092C6.06404 8.17499 6.15548 8.13264 6.24905 8.09386C6.3318 8.05958 6.41566 8.02839 6.50064 8.00031Q7.53 7.6458 8.4416 7.84106L8.44161 7.84107L8.44163 7.84107Q9.33589 8.03263 10.1168 8.75327L12.0517 6.43196L12.0586 6.42363Q12.3583 6.0677 12.724 5.80306Q12.9327 5.65201 13.163 5.5307Q13.1657 5.52927 13.1684 5.52786C13.249 5.48574 13.3289 5.44748 13.4079 5.41308Q13.4881 5.37701 13.5679 5.34459ZM15.1689 8.44263C14.9776 8.28313 14.6928 8.30904 14.5332 8.50024L10.3359 13.5344L7.97852 11.177C7.80238 11.001 7.51606 11.0011 7.33984 11.177C7.25177 11.2651 7.20774 11.3807 7.20774 11.4963C7.20774 11.6119 7.25178 11.7276 7.33984 11.8157L10.0479 14.5227L10.3975 14.8723L10.7139 14.4924L15.2266 9.07837C15.2968 8.99397 15.3311 8.89142 15.3311 8.78947C15.3311 8.66016 15.2759 8.53181 15.1689 8.44263Z" fill="url(#paint_linear_1)" fill-rule="evenodd" />
</svg>
