<svg width="60" height="43" viewBox="0 0 60 43" fill="none" xmlns="http://www.w3.org/2000/svg">
<rect width="60" height="42.8571" rx="9.42857" fill="#0C4178"/>
<g clip-path="url(#clip0_1_9629)">
<path d="M26.1664 7.02995C26.3658 6.71584 26.7746 6.5974 27.1146 6.76725C27.4548 6.93736 27.606 7.33607 27.474 7.68424L27.4437 7.7526L21.5463 19.5465H38.4554L32.558 7.7526L33.2152 7.42448L33.8715 7.09635L40.097 19.5465H46.0717L46.1469 19.5505C46.5174 19.588 46.807 19.9014 46.807 20.2819C46.8066 20.662 46.5172 20.9749 46.1469 21.0124L46.0717 21.0163H43.516L41.9808 34.8268L41.9086 35.4801H18.0931L18.0199 34.8268L16.4857 21.0163H13.9291C13.5237 21.0161 13.1951 20.6872 13.1947 20.2819C13.1947 19.8763 13.5235 19.5467 13.9291 19.5465H19.9037L26.1293 7.09635L26.1664 7.02995ZM19.4086 34.0114H40.5922L42.0365 21.0163H17.9642L19.4086 34.0114ZM34.9047 27.5173C35.3099 27.5584 35.6263 27.901 35.6263 28.3171C35.6263 28.7331 35.3099 29.0758 34.9047 29.1169L34.8226 29.1208H25.1801C24.7363 29.1208 24.3764 28.7608 24.3763 28.3171C24.3763 27.8733 24.7363 27.5133 25.1801 27.5133H34.8226L34.9047 27.5173ZM34.9047 24.3024C35.3098 24.3435 35.6262 24.6862 35.6263 25.1022C35.6263 25.5183 35.3099 25.8609 34.9047 25.902L34.8226 25.9059H25.1801C24.7363 25.9059 24.3763 25.546 24.3763 25.1022C24.3765 24.6585 24.7363 24.2985 25.1801 24.2985H34.8226L34.9047 24.3024ZM32.8861 6.76725C33.249 6.58579 33.69 6.73343 33.8715 7.09635L32.558 7.7526C32.3768 7.38989 32.5236 6.94883 32.8861 6.76725Z" fill="#F9FAFD"/>
</g>
<defs>
<clipPath id="clip0_1_9629">
<rect width="34.2857" height="34.2857" fill="white" transform="translate(12.8572 4.28571)"/>
</clipPath>
</defs>
</svg>
