<svg width="50" height="50" viewBox="0 0 50 50" fill="none" xmlns="http://www.w3.org/2000/svg">
<path d="M8.49207 16.1171C18.7788 14.9875 29.1525 14.9177 39.4501 15.9062L41.5077 16.1171C42.1907 16.1921 42.7079 16.7698 42.7079 17.457V37.707C42.7079 38.8557 41.8354 39.801 40.7167 39.915L40.4901 39.9267L24.9999 39.9326H9.51062C8.28505 39.9325 7.29187 38.9384 7.29187 37.7128V17.457C7.29187 16.8127 7.74629 16.2652 8.36609 16.1376L8.49207 16.1171Z" stroke="#051B32" stroke-width="2.08333"/>
<path d="M14.5699 13.5244C21.435 12.7108 28.3722 12.7108 35.2373 13.5244V11.5347C35.2373 10.8566 34.7888 10.2601 34.1374 10.0716C28.1053 8.32685 21.7021 8.3266 15.6699 10.071C15.0184 10.2594 14.5699 10.8559 14.5699 11.5341V13.5244Z" fill="#051B32"/>
<circle cx="24.9036" cy="27.6858" r="9.29199" stroke="#051B32" stroke-width="2.08333"/>
<circle cx="24.9991" cy="27.0831" r="6.25" fill="#051B32"/>
<circle cx="38.3836" cy="20.6186" r="2.12948" fill="#051B32"/>
</svg>
