<svg width="15" height="25" viewBox="0 0 15 25" fill="none" xmlns="http://www.w3.org/2000/svg">
<path d="M0.539062 1.91699C4.80516 1.04687 9.19503 0.992559 13.4766 1.75391L14.3311 1.91699C14.3539 1.92165 14.371 1.94154 14.3711 1.96484V19.4756C9.75365 19.1356 5.11729 19.1375 0.5 19.4795V1.96484C0.500045 1.95322 0.503792 1.9421 0.510742 1.93359L0.539062 1.91699Z" stroke="#706F6F"/>
<path d="M0 18.8696C4.92819 18.1146 9.94264 18.1146 14.8708 18.8696V23.449C14.8708 24.0807 14.3588 24.5928 13.7271 24.5929L7.43542 24.5939H1.14391C0.512145 24.5939 0 24.0818 0 23.45V18.8696Z" fill="#706F6F"/>
<path d="M5.7207 3.23897C6.85095 2.98893 8.02219 2.98893 9.15244 3.23897V4.00288H7.43657L5.7207 4.00329V3.23897Z" fill="#706F6F"/>
</svg>
