<svg width="15" height="27" viewBox="0 0 15 27" fill="none" xmlns="http://www.w3.org/2000/svg">
<path d="M1 24.4239V4.54907C1 3.76503 1.63559 3.12944 2.41963 3.12944H5.25888V2.41963C5.25888 1.63559 5.89447 1 6.67851 1H8.80796C9.59199 1 10.2276 1.63559 10.2276 2.41963V3.12944H12.7119C13.496 3.12944 14.1316 3.76503 14.1316 4.54907V24.4239C14.1316 25.2079 13.496 25.8435 12.7119 25.8435H2.41963C1.63559 25.8435 1 25.2079 1 24.4239Z" stroke="#706F6F"/>
<path d="M3.91797 21.4677V12.6345C3.91797 11.8504 4.55356 11.2148 5.3376 11.2148H9.79365C10.5777 11.2148 11.2133 11.8504 11.2133 12.6345V21.4677C11.2133 22.2518 10.5777 22.8873 9.79365 22.8873H5.3376C4.55356 22.8873 3.91797 22.2518 3.91797 21.4677Z" stroke="#706F6F" stroke-linecap="round"/>
</svg>
