<svg width="129" height="13" viewBox="0 0 129 13" fill="none" xmlns="http://www.w3.org/2000/svg">
<path d="M-0.000407999 9.84343V-0.000196853H1.32145V9.84343H-0.000407999ZM3.76445 9.84343V2.95289H5.05818V5.66692H8.79173V2.95289H10.0855V9.84343H8.79173V6.76378H5.05818V9.84343H3.76445ZM15.4418 10.0544C14.7152 10.0544 14.0707 9.89499 13.5082 9.57625C12.9457 9.2575 12.5051 8.82391 12.1864 8.27548C11.8676 7.72236 11.7082 7.09659 11.7082 6.39816C11.7082 5.86848 11.802 5.38099 11.9895 4.93568C12.1817 4.49037 12.4512 4.10366 12.7981 3.77554C13.1449 3.44742 13.5504 3.1943 14.0145 3.01617C14.4832 2.83336 14.9941 2.74196 15.5473 2.74196C15.9972 2.74196 16.4121 2.80055 16.7918 2.91774C17.1714 3.03492 17.523 3.21539 17.8464 3.45914L17.1855 4.45756C16.9746 4.27475 16.7285 4.13881 16.4472 4.04975C16.166 3.956 15.8683 3.90913 15.5543 3.90913C15.0387 3.90913 14.591 4.00757 14.2113 4.20444C13.8363 4.39662 13.5457 4.67787 13.3395 5.04818C13.1332 5.41849 13.0301 5.86379 13.0301 6.3841C13.0301 7.1669 13.2551 7.78096 13.7051 8.22626C14.1598 8.66688 14.7738 8.88719 15.5473 8.88719C15.9035 8.88719 16.2363 8.82391 16.5457 8.69735C16.855 8.5661 17.1082 8.39736 17.305 8.19111L17.973 9.17547C17.6121 9.44734 17.216 9.66297 16.7847 9.82234C16.3535 9.97702 15.9058 10.0544 15.4418 10.0544ZM21.0708 9.84343V4.04975H18.7083V2.95289H24.734V4.04975H22.3645V9.84343H21.0708ZM26.2037 12.7965V2.95289H27.392V3.98647C27.6779 3.62085 28.0365 3.3232 28.4678 3.09352C28.9037 2.85914 29.4521 2.74196 30.1131 2.74196C30.7974 2.74196 31.3998 2.90367 31.9201 3.22711C32.4404 3.54585 32.8459 3.98179 33.1365 4.5349C33.4318 5.08802 33.5794 5.70911 33.5794 6.39816C33.5794 6.89972 33.4951 7.37315 33.3263 7.81846C33.1623 8.25908 32.9255 8.64813 32.6162 8.98563C32.3068 9.31844 31.9388 9.58093 31.5123 9.77312C31.0904 9.96062 30.6193 10.0544 30.099 10.0544C29.5178 10.0544 29.0092 9.94656 28.5732 9.73093C28.142 9.51062 27.7811 9.22235 27.4904 8.8661V12.7965H26.2037ZM29.881 8.88719C30.3451 8.88719 30.7553 8.78641 31.1115 8.58485C31.4724 8.37861 31.7537 8.09033 31.9552 7.72002C32.1615 7.34503 32.2646 6.90441 32.2646 6.39816C32.2646 5.88723 32.1615 5.44661 31.9552 5.0763C31.7537 4.70131 31.4724 4.41303 31.1115 4.21147C30.7553 4.00991 30.3451 3.90913 29.881 3.90913C29.417 3.90913 29.0045 4.00991 28.6436 4.21147C28.2873 4.41303 28.0061 4.70131 27.7998 5.0763C27.5936 5.44661 27.4904 5.88723 27.4904 6.39816C27.4904 6.90441 27.5936 7.34503 27.7998 7.72002C28.0061 8.09033 28.2873 8.37861 28.6436 8.58485C29.0045 8.78641 29.417 8.88719 29.881 8.88719ZM35.566 13.0004C35.341 13.0004 35.1183 12.9723 34.898 12.916C34.6777 12.8645 34.455 12.7707 34.23 12.6348L34.5324 11.5168C34.6777 11.6106 34.8347 11.6809 35.0035 11.7278C35.1722 11.7747 35.3222 11.7981 35.4535 11.7981C35.8003 11.7981 36.0699 11.7137 36.262 11.545C36.4542 11.3762 36.6089 11.1184 36.7261 10.7715L37.0003 9.98405L34.2722 2.95289H35.6925L37.7316 8.50751L39.7214 2.95289H41.0925L38.0761 10.9403C37.8698 11.484 37.6402 11.9036 37.387 12.1989C37.1386 12.4989 36.8644 12.7075 36.5644 12.8246C36.2644 12.9418 35.9316 13.0004 35.566 13.0004ZM42.3809 9.84343V2.95289H43.5129H43.5551L46.7473 7.49502L46.1848 7.50909L49.2363 2.95289H50.3964V9.84343H49.1941L49.2082 4.5349L49.4472 4.64037L46.8316 8.39501H45.9527L43.2317 4.62631L43.4637 4.52084L43.4778 9.84343H42.3809ZM55.7263 10.0544C54.995 10.0544 54.3505 9.90202 53.7927 9.59734C53.2349 9.29266 52.799 8.86844 52.4849 8.3247C52.1709 7.77627 52.0138 7.13878 52.0138 6.41222C52.0138 5.88723 52.1029 5.39974 52.281 4.94974C52.4638 4.49975 52.7169 4.11069 53.0404 3.78257C53.3685 3.45445 53.7505 3.19898 54.1865 3.01617C54.6271 2.83336 55.1052 2.74196 55.6208 2.74196C56.1786 2.74196 56.6755 2.84039 57.1114 3.03727C57.552 3.23414 57.9153 3.5107 58.2013 3.86694C58.4919 4.2185 58.7005 4.63334 58.827 5.11146C58.9536 5.58489 58.9794 6.10051 58.9044 6.65831H53.2935C53.2794 7.11768 53.3732 7.5208 53.5747 7.86767C53.7763 8.20986 54.0669 8.47704 54.4466 8.66923C54.831 8.86141 55.2857 8.95751 55.8107 8.95751C56.195 8.95751 56.57 8.89657 56.9356 8.77469C57.3013 8.65282 57.6247 8.47235 57.9059 8.2333L58.4544 9.19656C58.2294 9.37937 57.9622 9.5364 57.6528 9.66765C57.3481 9.79421 57.0294 9.89031 56.6966 9.95593C56.3638 10.0216 56.0403 10.0544 55.7263 10.0544ZM53.3638 5.65286H57.6106C57.5919 5.07162 57.4114 4.61928 57.0692 4.29584C56.727 3.96772 56.2372 3.80366 55.5997 3.80366C54.981 3.80366 54.47 3.96772 54.0669 4.29584C53.6638 4.61928 53.4294 5.07162 53.3638 5.65286ZM60.5768 9.84343V2.95289H61.8705V5.66692H65.6041V2.95289H66.8978V9.84343H65.6041V6.76378H61.8705V9.84343H60.5768ZM70.7284 9.84343V4.04975H68.3659V2.95289H74.3916V4.04975H72.0221V9.84343H70.7284ZM80.973 9.84343V4.04975H78.6105V2.95289H84.6362V4.04975H82.2667V9.84343H80.973ZM89.038 10.0544C88.3442 10.0544 87.7302 9.89265 87.1958 9.56922C86.6614 9.24578 86.2442 8.80985 85.9442 8.26142C85.6442 7.7083 85.4942 7.08722 85.4942 6.39816C85.4942 5.88254 85.581 5.40208 85.7544 4.95677C85.9278 4.51147 86.1716 4.12475 86.4856 3.79663C86.7997 3.46382 87.1724 3.20601 87.6036 3.0232C88.0395 2.83571 88.5176 2.74196 89.038 2.74196C89.7317 2.74196 90.3082 2.88727 90.7676 3.17789C91.227 3.46851 91.5856 3.83882 91.8434 4.28881L91.6535 4.57006V2.95289H92.8348V9.84343H91.6535V8.22626L91.8434 8.50048C91.5856 8.95047 91.227 9.32313 90.7676 9.61843C90.3082 9.90906 89.7317 10.0544 89.038 10.0544ZM89.1786 8.88719C89.6379 8.88719 90.0458 8.78641 90.402 8.58485C90.7582 8.37861 91.0371 8.09033 91.2387 7.72002C91.445 7.34503 91.5481 6.90441 91.5481 6.39816C91.5481 5.88723 91.445 5.44661 91.2387 5.0763C91.0371 4.70131 90.7582 4.41303 90.402 4.21147C90.0458 4.00991 89.6379 3.90913 89.1786 3.90913C88.7192 3.90913 88.3114 4.00991 87.9552 4.21147C87.5989 4.41303 87.3177 4.70131 87.1114 5.0763C86.9052 5.44661 86.802 5.88723 86.802 6.39816C86.802 6.90441 86.9052 7.34503 87.1114 7.72002C87.3177 8.09033 87.5989 8.37861 87.9552 8.58485C88.3114 8.78641 88.7192 8.88719 89.1786 8.88719ZM101.521 10.0544C100.827 10.0544 100.213 9.89265 99.6788 9.56922C99.1445 9.24578 98.7273 8.80985 98.4273 8.26142C98.1273 7.7083 97.9773 7.08722 97.9773 6.39816C97.9773 5.88254 98.064 5.40208 98.2375 4.95677C98.4109 4.51147 98.6546 4.12475 98.9687 3.79663C99.2828 3.46382 99.6554 3.20601 100.087 3.0232C100.523 2.83571 101.001 2.74196 101.521 2.74196C102.215 2.74196 102.791 2.88727 103.251 3.17789C103.71 3.46851 104.069 3.83882 104.326 4.28881L104.137 4.57006V2.95289H105.318V9.84343H104.137V8.22626L104.326 8.50048C104.069 8.95047 103.71 9.32313 103.251 9.61843C102.791 9.90906 102.215 10.0544 101.521 10.0544ZM101.662 8.88719C102.121 8.88719 102.529 8.78641 102.885 8.58485C103.241 8.37861 103.52 8.09033 103.722 7.72002C103.928 7.34503 104.031 6.90441 104.031 6.39816C104.031 5.88723 103.928 5.44661 103.722 5.0763C103.52 4.70131 103.241 4.41303 102.885 4.21147C102.529 4.00991 102.121 3.90913 101.662 3.90913C101.202 3.90913 100.794 4.00991 100.438 4.21147C100.082 4.41303 99.8007 4.70131 99.5945 5.0763C99.3882 5.44661 99.2851 5.88723 99.2851 6.39816C99.2851 6.90441 99.3882 7.34503 99.5945 7.72002C99.8007 8.09033 100.082 8.37861 100.438 8.58485C100.794 8.78641 101.202 8.88719 101.662 8.88719ZM107.556 9.84343V2.95289H110.721C111.489 2.95289 112.108 3.10289 112.577 3.40289C113.05 3.70288 113.287 4.14819 113.287 4.73881C113.287 5.0013 113.226 5.23802 113.104 5.44895C112.982 5.65989 112.809 5.84036 112.584 5.99035C112.359 6.13567 112.094 6.24348 111.789 6.31379L111.768 6.03254C112.354 6.12629 112.802 6.33254 113.111 6.65128C113.425 6.96534 113.582 7.35909 113.582 7.83252C113.582 8.2497 113.472 8.60829 113.252 8.90829C113.036 9.20828 112.727 9.44031 112.324 9.60437C111.921 9.76375 111.44 9.84343 110.882 9.84343H107.556ZM108.815 8.83798H110.706C111.213 8.83798 111.604 8.7536 111.881 8.58485C112.162 8.41611 112.303 8.16298 112.303 7.82549C112.303 7.48799 112.164 7.23721 111.888 7.07315C111.611 6.90441 111.217 6.82003 110.706 6.82003H108.618V5.8427H110.545C111.023 5.8427 111.393 5.77004 111.656 5.62473C111.918 5.47942 112.049 5.23802 112.049 4.90052C112.049 4.56772 111.918 4.32866 111.656 4.18335C111.398 4.03335 111.028 3.95835 110.545 3.95835H108.815V8.83798ZM117.021 9.84343V4.04975H114.659V2.95289H120.685V4.04975H118.315V9.84343H117.021ZM125.241 10.0544C124.529 10.0544 123.893 9.88796 123.336 9.55515C122.778 9.22235 122.34 8.77938 122.021 8.22626C121.702 7.67315 121.543 7.06378 121.543 6.39816C121.543 5.90598 121.634 5.43958 121.817 4.99896C122 4.55834 122.258 4.16928 122.59 3.83179C122.923 3.4896 123.315 3.22242 123.765 3.03023C124.215 2.83805 124.707 2.74196 125.241 2.74196C125.958 2.74196 126.596 2.90836 127.154 3.24117C127.711 3.57398 128.15 4.01694 128.468 4.57006C128.787 5.12318 128.947 5.73255 128.947 6.39816C128.947 6.89034 128.855 7.35674 128.672 7.79736C128.489 8.23798 128.232 8.62704 127.899 8.96454C127.566 9.30203 127.175 9.56922 126.725 9.76609C126.275 9.95827 125.78 10.0544 125.241 10.0544ZM125.241 8.88719C125.705 8.88719 126.115 8.78641 126.472 8.58485C126.832 8.37861 127.116 8.09033 127.322 7.72002C127.529 7.34503 127.632 6.90441 127.632 6.39816C127.632 5.88723 127.529 5.44661 127.322 5.0763C127.121 4.70131 126.839 4.41303 126.479 4.21147C126.118 4.00991 125.705 3.90913 125.241 3.90913C124.777 3.90913 124.365 4.00991 124.004 4.21147C123.647 4.41303 123.366 4.70131 123.16 5.0763C122.958 5.44661 122.858 5.88723 122.858 6.39816C122.858 6.90441 122.958 7.34503 123.16 7.72002C123.366 8.09033 123.65 8.37861 124.011 8.58485C124.372 8.78641 124.782 8.88719 125.241 8.88719Z" fill="#323030"/>
</svg>
