<svg width="255" height="24" viewBox="0 0 255 24" fill="none" xmlns="http://www.w3.org/2000/svg">
<path d="M14.0333 3.99312C17.7372 3.38062 21.512 3.34299 25.2247 3.87886L25.9669 3.99312C26.2744 4.04397 26.5001 4.31034 26.5001 4.62202V10.3662L26.4942 10.4814C26.4402 11.0146 26.0166 11.4387 25.4835 11.4931L25.3673 11.499L19.6671 11.5H14.6329C14.0073 11.4998 13.5002 10.9927 13.5001 10.3671V4.62202L13.5108 4.50777C13.5514 4.28453 13.7084 4.09896 13.922 4.02242L14.0333 3.99312Z" stroke="#706F6F"/>
<path d="M26.6112 5.01778C27.7995 5.15546 28.7224 6.16363 28.7225 7.38887C28.7225 8.61414 27.7996 9.62224 26.6112 9.75996V5.01778Z" stroke="#706F6F"/>
<path d="M20.5 11.5V17.499L18.1299 17.5H15.5V11.5H20.5Z" stroke="#706F6F"/>
<path d="M29.8309 6.55585C30.2004 6.55587 30.4998 6.85534 30.4999 7.22479V7.55292C30.4999 7.92252 30.2005 8.22259 29.8309 8.22284H29.0555V6.55585H29.8309Z" stroke="#706F6F"/>
<path d="M21.3916 11.5C21.8197 11.5002 22.167 11.8473 22.167 12.2754V12.3906C22.167 12.8188 21.8197 13.1666 21.3916 13.167H20.5V11.5H21.3916Z" stroke="#706F6F"/>
<path d="M14.6328 17.5H21.9824C22.6079 17.5003 23.1151 18.0073 23.1152 18.6328V19.4492C23.1152 20.0359 22.6691 20.5182 22.0977 20.5762L21.9824 20.582L18.5381 20.583H14.6328C14.0072 20.5829 13.5 20.0749 13.5 19.4492V18.6328C13.5001 18.0461 13.9461 17.5637 14.5176 17.5059L14.6328 17.5Z" stroke="#706F6F"/>
<path d="M13.6128 19.2669C16.7971 18.8463 20.0228 18.8463 23.2071 19.2669V19.4496C23.2071 20.3515 22.4761 21.0826 21.5742 21.0827L18.41 21.0829H15.2459C14.3439 21.0829 13.6128 20.3518 13.6128 19.4498V19.2669Z" fill="#706F6F"/>
<path d="M15 7.22481C18.056 6.95316 21.1301 6.95316 24.1861 7.22481C24.1861 6.85503 23.9106 6.53743 23.5437 6.49175C20.9201 6.16518 18.266 6.16514 15.6424 6.49163C15.2755 6.5373 15 6.85503 15 7.22481Z" fill="#706F6F"/>
<path d="M15 9.06221C18.056 8.79057 21.1301 8.79057 24.1861 9.06221C24.1861 8.69243 23.9106 8.37483 23.5437 8.32916C20.9201 8.00258 18.266 8.00254 15.6424 8.32903C15.2755 8.3747 15 8.69243 15 9.06221Z" fill="#706F6F"/>
<path d="M42.316 17V7.2H43.632V17H42.316ZM46.0642 17V10.14H47.3522V12.842H51.0692V10.14H52.3572V17H51.0692V13.934H47.3522V17H46.0642ZM57.6898 17.21C56.9664 17.21 56.3248 17.0513 55.7648 16.734C55.2048 16.4167 54.7661 15.985 54.4488 15.439C54.1314 14.8883 53.9728 14.2653 53.9728 13.57C53.9728 13.0427 54.0661 12.5573 54.2528 12.114C54.4441 11.6707 54.7124 11.2857 55.0578 10.959C55.4031 10.6323 55.8068 10.3803 56.2688 10.203C56.7354 10.021 57.2441 9.93 57.7948 9.93C58.2428 9.93 58.6558 9.98833 59.0338 10.105C59.4118 10.2217 59.7618 10.4013 60.0838 10.644L59.4258 11.638C59.2158 11.456 58.9708 11.3207 58.6908 11.232C58.4108 11.1387 58.1144 11.092 57.8018 11.092C57.2884 11.092 56.8428 11.19 56.4648 11.386C56.0914 11.5773 55.8021 11.8573 55.5968 12.226C55.3914 12.5947 55.2888 13.038 55.2888 13.556C55.2888 14.3353 55.5128 14.9467 55.9608 15.39C56.4134 15.8287 57.0248 16.048 57.7948 16.048C58.1494 16.048 58.4808 15.985 58.7888 15.859C59.0968 15.7283 59.3488 15.5603 59.5448 15.355L60.2098 16.335C59.8504 16.6057 59.4561 16.8203 59.0268 16.979C58.5974 17.133 58.1518 17.21 57.6898 17.21ZM63.2938 17V11.232H60.9418V10.14H66.9408V11.232H64.5818V17H63.2938ZM68.404 19.94V10.14H69.587V11.169C69.8717 10.805 70.2287 10.5087 70.658 10.28C71.092 10.0467 71.638 9.93 72.296 9.93C72.9773 9.93 73.577 10.091 74.095 10.413C74.613 10.7303 75.0167 11.1643 75.306 11.715C75.6 12.2657 75.747 12.884 75.747 13.57C75.747 14.0693 75.663 14.5407 75.495 14.984C75.3317 15.4227 75.096 15.81 74.788 16.146C74.48 16.4773 74.1137 16.7387 73.689 16.93C73.269 17.1167 72.8 17.21 72.282 17.21C71.7033 17.21 71.197 17.1027 70.763 16.888C70.3337 16.6687 69.9743 16.3817 69.685 16.027V19.94H68.404ZM72.065 16.048C72.527 16.048 72.9353 15.9477 73.29 15.747C73.6493 15.5417 73.9293 15.2547 74.13 14.886C74.3353 14.5127 74.438 14.074 74.438 13.57C74.438 13.0613 74.3353 12.6227 74.13 12.254C73.9293 11.8807 73.6493 11.5937 73.29 11.393C72.9353 11.1923 72.527 11.092 72.065 11.092C71.603 11.092 71.1923 11.1923 70.833 11.393C70.4783 11.5937 70.1983 11.8807 69.993 12.254C69.7877 12.6227 69.685 13.0613 69.685 13.57C69.685 14.074 69.7877 14.5127 69.993 14.886C70.1983 15.2547 70.4783 15.5417 70.833 15.747C71.1923 15.9477 71.603 16.048 72.065 16.048ZM77.7247 20.143C77.5007 20.143 77.2791 20.115 77.0597 20.059C76.8404 20.0077 76.6187 19.9143 76.3947 19.779L76.6957 18.666C76.8404 18.7593 76.9967 18.8293 77.1647 18.876C77.3327 18.9227 77.4821 18.946 77.6127 18.946C77.9581 18.946 78.2264 18.862 78.4177 18.694C78.6091 18.526 78.7631 18.2693 78.8797 17.924L79.1527 17.14L76.4367 10.14H77.8507L79.8807 15.67L81.8617 10.14H83.2267L80.2237 18.092C80.0184 18.6333 79.7897 19.051 79.5377 19.345C79.2904 19.6437 79.0174 19.8513 78.7187 19.968C78.4201 20.0847 78.0887 20.143 77.7247 20.143ZM84.5095 17V10.14H85.6365H85.6785L88.8565 14.662L88.2965 14.676L91.3345 10.14H92.4895V17H91.2925L91.3065 11.715L91.5445 11.82L88.9405 15.558H88.0655L85.3565 11.806L85.5875 11.701L85.6015 17H84.5095ZM97.7957 17.21C97.0677 17.21 96.426 17.0583 95.8707 16.755C95.3154 16.4517 94.8814 16.0293 94.5687 15.488C94.256 14.942 94.0997 14.3073 94.0997 13.584C94.0997 13.0613 94.1884 12.576 94.3657 12.128C94.5477 11.68 94.7997 11.2927 95.1217 10.966C95.4484 10.6393 95.8287 10.385 96.2627 10.203C96.7014 10.021 97.1774 9.93 97.6907 9.93C98.246 9.93 98.7407 10.028 99.1747 10.224C99.6134 10.42 99.975 10.6953 100.26 11.05C100.549 11.4 100.757 11.813 100.883 12.289C101.009 12.7603 101.034 13.2737 100.96 13.829H95.3737C95.3597 14.2863 95.453 14.6877 95.6537 15.033C95.8544 15.3737 96.1437 15.6397 96.5217 15.831C96.9044 16.0223 97.357 16.118 97.8797 16.118C98.2624 16.118 98.6357 16.0573 98.9997 15.936C99.3637 15.8147 99.6857 15.635 99.9657 15.397L100.512 16.356C100.288 16.538 100.022 16.6943 99.7137 16.825C99.4104 16.951 99.093 17.0467 98.7617 17.112C98.4304 17.1773 98.1084 17.21 97.7957 17.21ZM95.4437 12.828H99.6717C99.653 12.2493 99.4734 11.799 99.1327 11.477C98.792 11.1503 98.3044 10.987 97.6697 10.987C97.0537 10.987 96.545 11.1503 96.1437 11.477C95.7424 11.799 95.509 12.2493 95.4437 12.828ZM102.625 17V10.14H103.913V12.842H107.63V10.14H108.918V17H107.63V13.934H103.913V17H102.625ZM112.731 17V11.232H110.379V10.14H116.378V11.232H114.019V17H112.731ZM122.931 17V11.232H120.579V10.14H126.578V11.232H124.219V17H122.931ZM129.938 17.21C129.452 17.21 129.03 17.1213 128.671 16.944C128.311 16.7667 128.034 16.517 127.838 16.195C127.642 15.8683 127.544 15.4833 127.544 15.04C127.544 14.676 127.637 14.3447 127.824 14.046C128.01 13.7427 128.304 13.493 128.706 13.297C129.107 13.0963 129.627 12.9633 130.267 12.898C130.906 12.828 131.678 12.8397 132.584 12.933L132.619 13.878C131.919 13.7847 131.324 13.7497 130.834 13.773C130.344 13.7917 129.947 13.857 129.644 13.969C129.34 14.0763 129.116 14.221 128.972 14.403C128.832 14.5803 128.762 14.781 128.762 15.005C128.762 15.3643 128.89 15.6467 129.147 15.852C129.408 16.0527 129.765 16.153 130.218 16.153C130.605 16.153 130.95 16.083 131.254 15.943C131.562 15.7983 131.804 15.6 131.982 15.348C132.164 15.0913 132.255 14.795 132.255 14.459V12.541C132.255 12.219 132.182 11.939 132.038 11.701C131.898 11.463 131.69 11.2787 131.415 11.148C131.139 11.0173 130.801 10.952 130.4 10.952C130.04 10.952 129.683 11.0057 129.329 11.113C128.974 11.2203 128.633 11.3953 128.307 11.638L127.915 10.644C128.339 10.3547 128.778 10.1517 129.231 10.035C129.683 9.91833 130.117 9.86 130.533 9.86C131.163 9.86 131.699 9.96033 132.143 10.161C132.586 10.357 132.924 10.6533 133.158 11.05C133.391 11.4467 133.508 11.9413 133.508 12.534V17H132.325V16.16C132.087 16.5007 131.758 16.762 131.338 16.944C130.918 17.1213 130.451 17.21 129.938 17.21ZM141.039 17.21C140.554 17.21 140.132 17.1213 139.772 16.944C139.413 16.7667 139.135 16.517 138.939 16.195C138.743 15.8683 138.645 15.4833 138.645 15.04C138.645 14.676 138.739 14.3447 138.925 14.046C139.112 13.7427 139.406 13.493 139.807 13.297C140.209 13.0963 140.729 12.9633 141.368 12.898C142.008 12.828 142.78 12.8397 143.685 12.933L143.72 13.878C143.02 13.7847 142.425 13.7497 141.935 13.773C141.445 13.7917 141.049 13.857 140.745 13.969C140.442 14.0763 140.218 14.221 140.073 14.403C139.933 14.5803 139.863 14.781 139.863 15.005C139.863 15.3643 139.992 15.6467 140.248 15.852C140.51 16.0527 140.867 16.153 141.319 16.153C141.707 16.153 142.052 16.083 142.355 15.943C142.663 15.7983 142.906 15.6 143.083 15.348C143.265 15.0913 143.356 14.795 143.356 14.459V12.541C143.356 12.219 143.284 11.939 143.139 11.701C142.999 11.463 142.792 11.2787 142.516 11.148C142.241 11.0173 141.903 10.952 141.501 10.952C141.142 10.952 140.785 11.0057 140.43 11.113C140.076 11.2203 139.735 11.3953 139.408 11.638L139.016 10.644C139.441 10.3547 139.88 10.1517 140.332 10.035C140.785 9.91833 141.219 9.86 141.634 9.86C142.264 9.86 142.801 9.96033 143.244 10.161C143.688 10.357 144.026 10.6533 144.259 11.05C144.493 11.4467 144.609 11.9413 144.609 12.534V17H143.426V16.16C143.188 16.5007 142.859 16.762 142.439 16.944C142.019 17.1213 141.553 17.21 141.039 17.21ZM146.744 17V10.14H149.894C150.659 10.14 151.275 10.2893 151.742 10.588C152.213 10.8867 152.449 11.33 152.449 11.918C152.449 12.1793 152.388 12.415 152.267 12.625C152.146 12.835 151.973 13.0147 151.749 13.164C151.525 13.3087 151.261 13.416 150.958 13.486L150.937 13.206C151.52 13.2993 151.966 13.5047 152.274 13.822C152.587 14.1347 152.743 14.5267 152.743 14.998C152.743 15.4133 152.633 15.7703 152.414 16.069C152.199 16.3677 151.891 16.5987 151.49 16.762C151.089 16.9207 150.61 17 150.055 17H146.744ZM147.997 15.999H149.88C150.384 15.999 150.774 15.915 151.049 15.747C151.329 15.579 151.469 15.327 151.469 14.991C151.469 14.655 151.331 14.4053 151.056 14.242C150.781 14.074 150.389 13.99 149.88 13.99H147.801V13.017H149.719C150.195 13.017 150.564 12.9447 150.825 12.8C151.086 12.6553 151.217 12.415 151.217 12.079C151.217 11.7477 151.086 11.5097 150.825 11.365C150.568 11.2157 150.2 11.141 149.719 11.141H147.997V15.999ZM156.167 17V11.232H153.815V10.14H159.814V11.232H157.455V17H156.167ZM164.35 17.21C163.641 17.21 163.008 17.0443 162.453 16.713C161.898 16.3817 161.461 15.9407 161.144 15.39C160.827 14.8393 160.668 14.2327 160.668 13.57C160.668 13.08 160.759 12.6157 160.941 12.177C161.123 11.7383 161.38 11.351 161.711 11.015C162.042 10.6743 162.432 10.4083 162.88 10.217C163.328 10.0257 163.818 9.93 164.35 9.93C165.064 9.93 165.699 10.0957 166.254 10.427C166.809 10.7583 167.246 11.1993 167.563 11.75C167.88 12.3007 168.039 12.9073 168.039 13.57C168.039 14.06 167.948 14.5243 167.766 14.963C167.584 15.4017 167.327 15.789 166.996 16.125C166.665 16.461 166.275 16.727 165.827 16.923C165.379 17.1143 164.887 17.21 164.35 17.21ZM164.35 16.048C164.812 16.048 165.22 15.9477 165.575 15.747C165.934 15.5417 166.217 15.2547 166.422 14.886C166.627 14.5127 166.73 14.074 166.73 13.57C166.73 13.0613 166.627 12.6227 166.422 12.254C166.221 11.8807 165.941 11.5937 165.582 11.393C165.223 11.1923 164.812 11.092 164.35 11.092C163.888 11.092 163.477 11.1923 163.118 11.393C162.763 11.5937 162.483 11.8807 162.278 12.254C162.077 12.6227 161.977 13.0613 161.977 13.57C161.977 14.074 162.077 14.5127 162.278 14.886C162.483 15.2547 162.766 15.5417 163.125 15.747C163.484 15.9477 163.893 16.048 164.35 16.048Z" fill="#323030"/>
</svg>
