<svg width="20" height="20" viewBox="0 0 20 20" fill="none" xmlns="http://www.w3.org/2000/svg">
<path d="M4.58333 17.5C4.58333 17.7301 4.76988 17.9167 5 17.9167C5.23012 17.9167 5.41667 17.7301 5.41667 17.5L4.58333 17.5ZM5.29463 1.37204C5.13191 1.20932 4.86809 1.20932 4.70537 1.37204L2.05372 4.02369C1.891 4.18641 1.891 4.45023 2.05372 4.61295C2.21644 4.77566 2.48026 4.77566 2.64298 4.61295L5 2.25592L7.35702 4.61295C7.51974 4.77566 7.78356 4.77566 7.94628 4.61295C8.109 4.45023 8.109 4.18641 7.94628 4.02369L5.29463 1.37204ZM5.41667 17.5L5.41667 1.66667L4.58333 1.66667L4.58333 17.5L5.41667 17.5Z" fill="#706F6F"/>
<path d="M14.5833 1.66797C14.5833 1.43785 14.7699 1.2513 15 1.2513C15.2301 1.2513 15.4167 1.43785 15.4167 1.66797L14.5833 1.66797ZM15.2946 17.7959C15.1319 17.9586 14.8681 17.9586 14.7054 17.7959L12.0537 15.1443C11.891 14.9816 11.891 14.7177 12.0537 14.555C12.2164 14.3923 12.4803 14.3923 12.643 14.555L15 16.912L17.357 14.555C17.5197 14.3923 17.7836 14.3923 17.9463 14.555C18.109 14.7177 18.109 14.9816 17.9463 15.1443L15.2946 17.7959ZM15.4167 1.66797L15.4167 17.5013L14.5833 17.5013L14.5833 1.66797L15.4167 1.66797Z" fill="#706F6F"/>
</svg>
