<svg width="50" height="50" viewBox="0 0 50 50" fill="none" xmlns="http://www.w3.org/2000/svg">
<path d="M28.1401 6.25018C29.0975 6.25018 29.9558 6.84062 30.2983 7.73456L30.9087 9.32733C31.225 10.1536 31.0418 11.0879 30.437 11.7336L26.3159 16.134C25.7222 16.7676 24.7419 16.8068 24.1001 16.2521L23.977 16.134L19.855 11.7336C19.2504 11.0879 19.0671 10.1534 19.3833 9.32733L19.9936 7.73456L20.064 7.5705C20.444 6.76908 21.2544 6.25025 22.1518 6.25018H28.1401ZM22.1518 8.03729C21.9348 8.03737 21.7402 8.17149 21.6626 8.37421L21.0522 9.966C20.9805 10.1533 21.0226 10.3655 21.1597 10.5119L25.146 14.7678L29.1323 10.5119C29.2695 10.3655 29.3115 10.1534 29.2397 9.966L28.6304 8.37421C28.5527 8.17147 28.3572 8.03729 28.1401 8.03729H22.1518Z" fill="#051B32"/>
<path d="M20.4344 10.3344H30.0433" stroke="#051B32" stroke-width="1.78711"/>
<circle cx="25.0009" cy="29.4815" r="13.5417" stroke="#051B32" stroke-width="2.08333"/>
</svg>
