<svg width="19" height="24" viewBox="0 0 19 24" fill="none" xmlns="http://www.w3.org/2000/svg">
<path d="M1 21.6529V2.23301C1 1.55204 1.55204 1 2.23301 1H17.2757C17.9567 1 18.5087 1.55204 18.5087 2.23301V21.6529C18.5087 22.3339 17.9567 22.8859 17.2757 22.8859H2.23301C1.55204 22.8859 1 22.3339 1 21.6529Z" stroke="#706F6F" stroke-linecap="round"/>
<path d="M13.7715 12.1357C14.1936 13.3277 14.4157 14.5802 14.4336 15.8438L13.5684 16.2148L13.6846 12.0576L13.7305 12.0205L13.7715 12.1357Z" fill="#706F6F" stroke="#706F6F" stroke-width="0.5"/>
<path d="M5.69043 12.0664C5.2791 13.2635 5.06326 14.5182 5.0459 15.7832L5.91113 16.1543L5.79492 12.0195L5.72168 11.9756L5.69043 12.0664Z" fill="#706F6F" stroke="#706F6F" stroke-width="0.5"/>
<path d="M11.2461 15.0781L9.77441 17.3232L10.5703 18.3877H13.4512V15.0781H11.2461Z" stroke="#706F6F" stroke-width="0.5"/>
<path d="M11.1338 15.0781L8.93945 18.3877H6.06836V15.0781H11.1338Z" stroke="#706F6F" stroke-width="0.5"/>
<path d="M6.06836 6.90234C8.5197 6.59391 10.9998 6.59391 13.4512 6.90234V8.96582L13.7207 8.94434L15.3408 8.81543V11.6553H13.4512V14.9512C10.9939 14.7605 8.52566 14.7605 6.06836 14.9512V11.6553H4.16797V8.81543L5.79883 8.94434L6.06836 8.96484V6.90234Z" stroke="#706F6F" stroke-width="0.5"/>
<path d="M8.13379 13.0469H11.3258V13.2975L8.13379 13.0799V13.0469Z" fill="#706F6F"/>
<path d="M8.37793 11.6484L9.58105 10.6357L9.74609 10.4971L9.9082 10.6406L11.041 11.6484H15.3154V8.82812C11.6089 9.20015 7.87449 9.20016 4.16797 8.82812V11.6484H8.37793Z" stroke="#706F6F" stroke-width="0.5"/>
</svg>
