<svg width="50" height="50" viewBox="0 0 50 50" fill="none" xmlns="http://www.w3.org/2000/svg">
<path d="M11.5226 5.77356C20.1456 4.09125 29.0049 4.03921 37.6427 5.61633L38.4786 5.77356C38.5156 5.7809 38.5421 5.81401 38.5421 5.85168V38.4581C29.5255 37.8261 20.4754 37.8272 11.4591 38.463V5.85168C11.4591 5.82322 11.4738 5.79724 11.4972 5.78333L11.5226 5.77356Z" stroke="#051B32" stroke-width="2.08333"/>
<path d="M10.4171 33.6707C20.0733 32.068 29.9276 32.068 39.5838 33.6707V43.5703C39.5838 44.8189 38.5717 45.8311 37.3232 45.8313L25.0004 45.8335H12.6781C11.4294 45.8335 10.4171 44.8212 10.4171 43.5725V33.6707Z" fill="#051B32"/>
<path d="M22.9167 9.02476C24.2694 8.57587 25.731 8.57587 27.0837 9.02476V10.4161H25.0002L22.9167 10.4169V9.02476Z" fill="#051B32"/>
</svg>
