<svg width="30" height="15" viewBox="0 0 30 15" fill="none" xmlns="http://www.w3.org/2000/svg">
<rect width="30" height="15" rx="5" fill="#ED021D"/>
<path d="M5.97216 7.918V7.1375H7.91816V7.918H5.97216ZM10.159 9.605C9.85337 9.605 9.56054 9.56183 9.28054 9.4755C9.00054 9.38683 8.76954 9.26667 8.58754 9.115L8.86754 8.3905C9.0262 8.53517 9.21637 8.64367 9.43804 8.716C9.6597 8.78833 9.8837 8.8245 10.11 8.8245C10.3247 8.8245 10.509 8.79067 10.663 8.723C10.8194 8.65533 10.9395 8.55617 11.0235 8.4255C11.1075 8.29483 11.1495 8.13617 11.1495 7.9495C11.1495 7.77917 11.1052 7.63333 11.0165 7.512C10.9302 7.39067 10.8089 7.29733 10.6525 7.232C10.4962 7.16667 10.3154 7.134 10.11 7.134C9.9817 7.134 9.84637 7.14917 9.70404 7.1795C9.56404 7.20983 9.42054 7.25767 9.27354 7.323L8.89904 6.917L9.15454 4.607H11.895V5.3945H9.79154L9.65504 6.532C9.7647 6.497 9.87437 6.47133 9.98404 6.455C10.0937 6.43633 10.2022 6.427 10.3095 6.427C10.6385 6.427 10.9314 6.48883 11.188 6.6125C11.4447 6.73617 11.6465 6.91467 11.7935 7.148C11.9405 7.379 12.014 7.65783 12.014 7.9845C12.014 8.31117 11.9359 8.59583 11.7795 8.8385C11.6255 9.08117 11.4085 9.27017 11.1285 9.4055C10.8509 9.5385 10.5277 9.605 10.159 9.605ZM14.7961 9.605C14.4764 9.605 14.1906 9.5385 13.9386 9.4055C13.6866 9.2725 13.4731 9.08817 13.2981 8.8525C13.1254 8.61683 12.9924 8.345 12.8991 8.037C12.8081 7.729 12.7626 7.4 12.7626 7.05C12.7626 6.69767 12.8081 6.3675 12.8991 6.0595C12.9924 5.7515 13.1254 5.48083 13.2981 5.2475C13.4731 5.01183 13.6866 4.8275 13.9386 4.6945C14.1906 4.5615 14.4764 4.495 14.7961 4.495C15.1158 4.495 15.4004 4.5615 15.6501 4.6945C15.9021 4.8275 16.1156 5.01183 16.2906 5.2475C16.4656 5.48083 16.5986 5.7515 16.6896 6.0595C16.7829 6.3675 16.8296 6.69767 16.8296 7.05C16.8296 7.4 16.7829 7.729 16.6896 8.037C16.5986 8.345 16.4656 8.61683 16.2906 8.8525C16.1156 9.08817 15.9021 9.2725 15.6501 9.4055C15.4004 9.5385 15.1158 9.605 14.7961 9.605ZM14.7961 8.8105C14.9711 8.8105 15.1286 8.77083 15.2686 8.6915C15.4109 8.61217 15.5323 8.49667 15.6326 8.345C15.7353 8.19333 15.8134 8.009 15.8671 7.792C15.9231 7.575 15.9511 7.32767 15.9511 7.05C15.9511 6.679 15.9033 6.36283 15.8076 6.1015C15.7119 5.83783 15.5766 5.63717 15.4016 5.4995C15.2289 5.3595 15.0271 5.2895 14.7961 5.2895C14.6234 5.2895 14.4659 5.32917 14.3236 5.4085C14.1836 5.48783 14.0623 5.60333 13.9596 5.755C13.8569 5.90433 13.7776 6.08867 13.7216 6.308C13.6679 6.525 13.6411 6.77233 13.6411 7.05C13.6411 7.41867 13.6889 7.73483 13.7846 7.9985C13.8826 8.25983 14.0179 8.4605 14.1906 8.6005C14.3633 8.7405 14.5651 8.8105 14.7961 8.8105ZM19.6832 9.6225L19.2002 9.3355L21.9197 4.4775L22.4027 4.747L19.6832 9.6225ZM18.7697 7.197C18.5177 7.197 18.2879 7.1375 18.0802 7.0185C17.8749 6.8995 17.7104 6.7385 17.5867 6.5355C17.4654 6.3325 17.4047 6.10733 17.4047 5.86C17.4047 5.61267 17.4654 5.38867 17.5867 5.188C17.7104 4.98733 17.8749 4.8275 18.0802 4.7085C18.2879 4.5895 18.5177 4.53 18.7697 4.53C19.0241 4.53 19.2527 4.5895 19.4557 4.7085C19.6611 4.8275 19.8244 4.98733 19.9457 5.188C20.0671 5.38867 20.1277 5.61267 20.1277 5.86C20.1277 6.10733 20.0671 6.3325 19.9457 6.5355C19.8244 6.73617 19.6611 6.89717 19.4557 7.0185C19.2527 7.1375 19.0241 7.197 18.7697 7.197ZM18.7697 6.5985C18.9144 6.5985 19.0416 6.567 19.1512 6.504C19.2632 6.441 19.3496 6.35467 19.4102 6.245C19.4732 6.133 19.5047 6.00467 19.5047 5.86C19.5047 5.643 19.4371 5.46683 19.3017 5.3315C19.1664 5.19617 18.9891 5.1285 18.7697 5.1285C18.6251 5.1285 18.4967 5.16 18.3847 5.223C18.2751 5.28367 18.1887 5.36883 18.1257 5.4785C18.0627 5.58817 18.0312 5.71533 18.0312 5.86C18.0312 6.077 18.1001 6.25433 18.2377 6.392C18.3754 6.52967 18.5527 6.5985 18.7697 6.5985ZM22.8402 9.57C22.5882 9.57 22.3584 9.5105 22.1507 9.3915C21.9454 9.27017 21.7809 9.10917 21.6572 8.9085C21.5359 8.7055 21.4752 8.48033 21.4752 8.233C21.4752 7.98567 21.5359 7.76167 21.6572 7.561C21.7809 7.36033 21.9454 7.2005 22.1507 7.0815C22.3584 6.9625 22.5882 6.903 22.8402 6.903C23.0946 6.903 23.3232 6.9625 23.5262 7.0815C23.7316 7.2005 23.8949 7.36033 24.0162 7.561C24.1376 7.76167 24.1982 7.98567 24.1982 8.233C24.1982 8.48033 24.1376 8.7055 24.0162 8.9085C23.8949 9.10917 23.7316 9.27017 23.5262 9.3915C23.3232 9.5105 23.0946 9.57 22.8402 9.57ZM22.8402 8.9715C22.9849 8.9715 23.1121 8.94 23.2217 8.877C23.3337 8.814 23.4201 8.72767 23.4807 8.618C23.5437 8.506 23.5752 8.37767 23.5752 8.233C23.5752 8.016 23.5076 7.83983 23.3722 7.7045C23.2369 7.56917 23.0596 7.5015 22.8402 7.5015C22.6956 7.5015 22.5672 7.533 22.4552 7.596C22.3456 7.65667 22.2592 7.74183 22.1962 7.8515C22.1332 7.96117 22.1017 8.08833 22.1017 8.233C22.1017 8.44767 22.1706 8.625 22.3082 8.765C22.4459 8.90267 22.6232 8.9715 22.8402 8.9715Z" fill="#F9FAFD"/>
</svg>
