<svg width="115" height="20" viewBox="0 0 115 20" fill="none" xmlns="http://www.w3.org/2000/svg">
<mask id="path-1-inside-1_1_9633" fill="white">
<path d="M0 0H115V20H0V0Z"/>
</mask>
<path d="M0 0H115V20H0V0Z" fill="#8CBF5C" fill-opacity="0.2"/>
<path d="M0 20H3V0H0H-3V20H0Z" fill="#8CBF5C" mask="url(#path-1-inside-1_1_9633)"/>
<path d="M15.354 14.18C14.742 14.18 14.182 14.098 13.674 13.934C13.166 13.77 12.726 13.536 12.354 13.232L12.924 12.314C13.208 12.578 13.556 12.784 13.968 12.932C14.38 13.08 14.818 13.154 15.282 13.154C15.714 13.154 16.088 13.092 16.404 12.968C16.72 12.84 16.964 12.662 17.136 12.434C17.308 12.206 17.396 11.938 17.4 11.63C17.4 11.142 17.242 10.772 16.926 10.52C16.614 10.268 16.124 10.142 15.456 10.142H13.83V9.2H15.366C15.726 9.2 16.038 9.144 16.302 9.032C16.57 8.92 16.776 8.76 16.92 8.552C17.068 8.34 17.142 8.088 17.142 7.796C17.142 7.512 17.07 7.272 16.926 7.076C16.782 6.876 16.572 6.726 16.296 6.626C16.024 6.522 15.696 6.47 15.312 6.47C14.904 6.47 14.518 6.534 14.154 6.662C13.79 6.79 13.472 6.974 13.2 7.214L12.642 6.38C12.986 6.072 13.398 5.836 13.878 5.672C14.358 5.504 14.874 5.42 15.426 5.42C16.01 5.42 16.514 5.51 16.938 5.69C17.366 5.866 17.694 6.122 17.922 6.458C18.154 6.79 18.27 7.186 18.27 7.646C18.27 7.918 18.204 8.182 18.072 8.438C17.94 8.694 17.77 8.918 17.562 9.11C17.358 9.302 17.146 9.442 16.926 9.53C17.394 9.67 17.784 9.924 18.096 10.292C18.408 10.66 18.562 11.126 18.558 11.69C18.554 12.146 18.418 12.562 18.15 12.938C17.882 13.314 17.508 13.616 17.028 13.844C16.552 14.068 15.994 14.18 15.354 14.18ZM20.1962 14V8.12H21.3002V10.436H24.4862V8.12H25.5902V14H24.4862V11.372H21.3002V14H20.1962ZM27.497 14V8.12H28.571V12.344L31.991 8.12H32.939V14H31.865V9.728L28.415 14H27.497ZM37.9886 14V11.372H36.3866V10.436H37.9886V8.12H39.0926V10.436H40.6826V11.372H39.0926V14H37.9886ZM34.1846 14L36.0746 10.874L34.4546 8.12H35.6666L37.2686 10.862L35.4566 14H34.1846ZM41.5826 14L39.8006 10.862L41.4446 8.12H42.6146L40.9946 10.808L42.9026 14H41.5826ZM48.0913 14L46.1053 10.862L47.8873 8.12H49.0753L47.2993 10.808L49.4233 14H48.0913ZM44.1493 14V8.12H45.2533V10.436H47.0113V11.372H45.2533V14H44.1493ZM53.0498 14.18C52.4578 14.18 51.9338 14.042 51.4778 13.766C51.0218 13.49 50.6658 13.118 50.4098 12.65C50.1538 12.178 50.0258 11.648 50.0258 11.06C50.0258 10.62 50.0998 10.21 50.2478 9.83C50.3958 9.45 50.6038 9.12 50.8718 8.84C51.1398 8.556 51.4578 8.336 51.8258 8.18C52.1978 8.02 52.6058 7.94 53.0498 7.94C53.6418 7.94 54.1338 8.064 54.5258 8.312C54.9178 8.56 55.2238 8.876 55.4438 9.26L55.2818 9.5V8.12H56.2898V14H55.2818V12.62L55.4438 12.854C55.2238 13.238 54.9178 13.556 54.5258 13.808C54.1338 14.056 53.6418 14.18 53.0498 14.18ZM53.1698 13.184C53.5618 13.184 53.9098 13.098 54.2138 12.926C54.5178 12.75 54.7558 12.504 54.9278 12.188C55.1038 11.868 55.1918 11.492 55.1918 11.06C55.1918 10.624 55.1038 10.248 54.9278 9.932C54.7558 9.612 54.5178 9.366 54.2138 9.194C53.9098 9.022 53.5618 8.936 53.1698 8.936C52.7778 8.936 52.4298 9.022 52.1258 9.194C51.8218 9.366 51.5818 9.612 51.4058 9.932C51.2298 10.248 51.1418 10.624 51.1418 11.06C51.1418 11.492 51.2298 11.868 51.4058 12.188C51.5818 12.504 51.8218 12.75 52.1258 12.926C52.4298 13.098 52.7778 13.184 53.1698 13.184ZM61.0021 14V13.154L62.8321 11.468C63.4161 10.932 63.8901 10.466 64.2541 10.07C64.6181 9.67 64.8861 9.306 65.0581 8.978C65.2301 8.646 65.3161 8.312 65.3161 7.976C65.3161 7.488 65.1461 7.104 64.8061 6.824C64.4701 6.544 64.0041 6.404 63.4081 6.404C63.0401 6.404 62.6841 6.466 62.3401 6.59C61.9961 6.714 61.7081 6.894 61.4761 7.13L61.0501 6.302C61.3781 6.014 61.7541 5.796 62.1781 5.648C62.6061 5.496 63.0601 5.42 63.5401 5.42C64.1041 5.42 64.6001 5.522 65.0281 5.726C65.4561 5.926 65.7881 6.212 66.0241 6.584C66.2641 6.952 66.3841 7.386 66.3841 7.886C66.3841 8.234 66.3141 8.584 66.1741 8.936C66.0341 9.288 65.7841 9.684 65.4241 10.124C65.0681 10.56 64.5621 11.084 63.9061 11.696L62.4661 13.022H66.5941V14H61.0021ZM74.3805 14.18C73.8525 14.18 73.3765 14.066 72.9525 13.838C72.5325 13.61 72.1745 13.294 71.8785 12.89C71.5865 12.486 71.3625 12.02 71.2065 11.492C71.0505 10.964 70.9725 10.4 70.9725 9.8C70.9725 9.196 71.0505 8.63 71.2065 8.102C71.3625 7.574 71.5865 7.11 71.8785 6.71C72.1745 6.306 72.5325 5.99 72.9525 5.762C73.3765 5.534 73.8525 5.42 74.3805 5.42C74.9045 5.42 75.3765 5.534 75.7965 5.762C76.2165 5.99 76.5745 6.306 76.8705 6.71C77.1665 7.11 77.3925 7.574 77.5485 8.102C77.7045 8.63 77.7825 9.196 77.7825 9.8C77.7825 10.4 77.7045 10.964 77.5485 11.492C77.3925 12.02 77.1665 12.486 76.8705 12.89C76.5745 13.294 76.2165 13.61 75.7965 13.838C75.3765 14.066 74.9045 14.18 74.3805 14.18ZM74.3805 13.16C74.7205 13.16 75.0285 13.084 75.3045 12.932C75.5845 12.776 75.8245 12.552 76.0245 12.26C76.2285 11.968 76.3845 11.616 76.4925 11.204C76.6045 10.788 76.6605 10.32 76.6605 9.8C76.6605 9.108 76.5645 8.51 76.3725 8.006C76.1805 7.502 75.9125 7.114 75.5685 6.842C75.2285 6.57 74.8325 6.434 74.3805 6.434C74.0405 6.434 73.7305 6.512 73.4505 6.668C73.1705 6.824 72.9285 7.048 72.7245 7.34C72.5245 7.632 72.3705 7.986 72.2625 8.402C72.1545 8.814 72.1005 9.28 72.1005 9.8C72.1005 10.492 72.1945 11.09 72.3825 11.594C72.5745 12.098 72.8405 12.486 73.1805 12.758C73.5245 13.026 73.9245 13.16 74.3805 13.16ZM82.5133 14.18C81.9853 14.18 81.5093 14.066 81.0853 13.838C80.6653 13.61 80.3073 13.294 80.0113 12.89C79.7193 12.486 79.4953 12.02 79.3393 11.492C79.1833 10.964 79.1053 10.4 79.1053 9.8C79.1053 9.196 79.1833 8.63 79.3393 8.102C79.4953 7.574 79.7193 7.11 80.0113 6.71C80.3073 6.306 80.6653 5.99 81.0853 5.762C81.5093 5.534 81.9853 5.42 82.5133 5.42C83.0373 5.42 83.5093 5.534 83.9293 5.762C84.3493 5.99 84.7073 6.306 85.0033 6.71C85.2993 7.11 85.5253 7.574 85.6813 8.102C85.8373 8.63 85.9153 9.196 85.9153 9.8C85.9153 10.4 85.8373 10.964 85.6813 11.492C85.5253 12.02 85.2993 12.486 85.0033 12.89C84.7073 13.294 84.3493 13.61 83.9293 13.838C83.5093 14.066 83.0373 14.18 82.5133 14.18ZM82.5133 13.16C82.8533 13.16 83.1613 13.084 83.4373 12.932C83.7173 12.776 83.9573 12.552 84.1573 12.26C84.3613 11.968 84.5173 11.616 84.6253 11.204C84.7373 10.788 84.7933 10.32 84.7933 9.8C84.7933 9.108 84.6973 8.51 84.5053 8.006C84.3133 7.502 84.0453 7.114 83.7013 6.842C83.3613 6.57 82.9653 6.434 82.5133 6.434C82.1733 6.434 81.8633 6.512 81.5833 6.668C81.3033 6.824 81.0613 7.048 80.8573 7.34C80.6573 7.632 80.5033 7.986 80.3953 8.402C80.2873 8.814 80.2333 9.28 80.2333 9.8C80.2333 10.492 80.3273 11.09 80.5153 11.594C80.7073 12.098 80.9733 12.486 81.3133 12.758C81.6573 13.026 82.0573 13.16 82.5133 13.16ZM90.6461 14.18C90.1181 14.18 89.6421 14.066 89.2181 13.838C88.7981 13.61 88.4401 13.294 88.1441 12.89C87.8521 12.486 87.6281 12.02 87.4721 11.492C87.3161 10.964 87.2381 10.4 87.2381 9.8C87.2381 9.196 87.3161 8.63 87.4721 8.102C87.6281 7.574 87.8521 7.11 88.1441 6.71C88.4401 6.306 88.7981 5.99 89.2181 5.762C89.6421 5.534 90.1181 5.42 90.6461 5.42C91.1701 5.42 91.6421 5.534 92.0621 5.762C92.4821 5.99 92.8401 6.306 93.1361 6.71C93.4321 7.11 93.6581 7.574 93.8141 8.102C93.9701 8.63 94.0481 9.196 94.0481 9.8C94.0481 10.4 93.9701 10.964 93.8141 11.492C93.6581 12.02 93.4321 12.486 93.1361 12.89C92.8401 13.294 92.4821 13.61 92.0621 13.838C91.6421 14.066 91.1701 14.18 90.6461 14.18ZM90.6461 13.16C90.9861 13.16 91.2941 13.084 91.5701 12.932C91.8501 12.776 92.0901 12.552 92.2901 12.26C92.4941 11.968 92.6501 11.616 92.7581 11.204C92.8701 10.788 92.9261 10.32 92.9261 9.8C92.9261 9.108 92.8301 8.51 92.6381 8.006C92.4461 7.502 92.1781 7.114 91.8341 6.842C91.4941 6.57 91.0981 6.434 90.6461 6.434C90.3061 6.434 89.9961 6.512 89.7161 6.668C89.4361 6.824 89.1941 7.048 88.9901 7.34C88.7901 7.632 88.6361 7.986 88.5281 8.402C88.4201 8.814 88.3661 9.28 88.3661 9.8C88.3661 10.492 88.4601 11.09 88.6481 11.594C88.8401 12.098 89.1061 12.486 89.4461 12.758C89.7901 13.026 90.1901 13.16 90.6461 13.16ZM98.4429 14.18C97.8549 14.18 97.3529 14.078 96.9369 13.874C96.5249 13.666 96.2109 13.39 95.9949 13.046C95.7789 12.698 95.6709 12.312 95.6709 11.888C95.6709 11.48 95.7509 11.134 95.9109 10.85C96.0749 10.566 96.3129 10.324 96.6249 10.124C96.9369 9.92 97.3169 9.734 97.7649 9.566L98.6589 9.236C99.0829 9.08 99.4149 8.932 99.6549 8.792C99.8949 8.648 100.063 8.49 100.159 8.318C100.259 8.142 100.309 7.924 100.309 7.664C100.309 7.396 100.233 7.16 100.081 6.956C99.9329 6.752 99.7249 6.592 99.4569 6.476C99.1889 6.356 98.8789 6.296 98.5269 6.296C98.1309 6.296 97.7429 6.36 97.3629 6.488C96.9869 6.612 96.6569 6.792 96.3729 7.028L95.8509 6.272C96.1589 6.012 96.5349 5.806 96.9789 5.654C97.4269 5.498 97.9069 5.42 98.4189 5.42C98.9589 5.42 99.4409 5.508 99.8649 5.684C100.293 5.86 100.631 6.116 100.879 6.452C101.127 6.784 101.251 7.186 101.251 7.658C101.251 8.07 101.165 8.418 100.993 8.702C100.821 8.986 100.575 9.23 100.255 9.434C99.9389 9.638 99.5629 9.822 99.1269 9.986L98.2989 10.298C97.8709 10.458 97.5349 10.616 97.2909 10.772C97.0509 10.924 96.8809 11.092 96.7809 11.276C96.6809 11.46 96.6309 11.678 96.6309 11.93C96.6309 12.21 96.7049 12.452 96.8529 12.656C97.0009 12.856 97.2069 13.012 97.4709 13.124C97.7349 13.232 98.0449 13.286 98.4009 13.286C98.7129 13.286 99.0149 13.254 99.3069 13.19C99.6029 13.126 99.8809 13.034 100.141 12.914C100.405 12.794 100.643 12.652 100.855 12.488L101.371 13.28C100.999 13.56 100.553 13.78 100.033 13.94C99.5129 14.1 98.9829 14.18 98.4429 14.18ZM94.9929 9.326V8.534H102.205V9.326H94.9929ZM94.9929 11.216V10.43H102.205V11.216H94.9929Z" fill="#8CBF5C"/>
</svg>
