<svg width="34" height="29" viewBox="0 0 34 29" fill="none" xmlns="http://www.w3.org/2000/svg">
<path d="M13.0661 0.342786C13.2669 0.0263994 13.6787 -0.0929062 14.0212 0.0781799C14.3639 0.249526 14.5161 0.651141 14.3832 1.00184L14.3527 1.0707L8.41233 12.9505H25.4445L19.5042 1.0707L20.1662 0.740188L20.8272 0.409676L27.0981 12.9505H33.1162L33.1919 12.9544C33.5652 12.9922 33.8569 13.3079 33.8569 13.6912C33.8565 14.0741 33.5649 14.3892 33.1919 14.4269L33.1162 14.4309H30.5419L28.9956 28.3419L28.9228 29H4.93408L4.8603 28.3419L3.31496 14.4309H0.739718C0.331405 14.4307 0.000398159 14.0994 0 13.6912C0 13.2826 0.331159 12.9506 0.739718 12.9505H6.7578L13.0287 0.409676L13.0661 0.342786ZM6.25908 27.5205H27.5968L29.0516 14.4309H4.80423L6.25908 27.5205ZM21.8679 20.9792C22.2761 21.0206 22.5948 21.3657 22.5948 21.7848C22.5948 22.2038 22.2761 22.549 21.8679 22.5904L21.7853 22.5943H12.0726C11.6256 22.5943 11.2631 22.2317 11.263 21.7848C11.263 21.3377 11.6255 20.9752 12.0726 20.9752H21.7853L21.8679 20.9792ZM21.8679 17.7409C22.276 17.7823 22.5947 18.1275 22.5948 18.5465C22.5948 18.9657 22.2761 19.3108 21.8679 19.3522L21.7853 19.3561H12.0726C11.6255 19.3561 11.263 18.9936 11.263 18.5465C11.2631 18.0996 11.6256 17.737 12.0726 17.737H21.7853L21.8679 17.7409ZM19.8347 0.0781799C20.2002 -0.104602 20.6444 0.0441123 20.8272 0.409676L19.5042 1.0707C19.3216 0.705348 19.4696 0.261081 19.8347 0.0781799Z" fill="#F9FAFD"/>
</svg>
