<svg width="14" height="14" viewBox="0 0 14 14" fill="none" xmlns="http://www.w3.org/2000/svg">
<path d="M5.30559 3.91256C5.80839 3.39087 5.81244 2.75801 5.30802 2.24036C4.69331 1.60912 4.0648 0.990075 3.44197 0.366956C3.29275 0.219289 3.11839 0.104893 2.91483 0.0472755C2.46636 -0.0817288 2.08845 0.0618795 1.76651 0.373436C1.41131 0.715819 1.07962 1.08419 0.713872 1.4144C0.209445 1.87362 -0.0233047 2.43428 0.00183665 3.02007C0.00183665 3.63264 0.101587 4.17301 0.305132 4.77502C0.842797 6.36202 1.69432 7.76558 2.75263 9.05419C4.3405 10.9836 6.26578 12.4707 8.56982 13.4557C9.28997 13.7632 10.0393 13.9668 10.8284 13.9977C11.4301 14.0204 11.9824 13.8792 12.4252 13.4476C12.8339 13.0484 13.2345 12.6395 13.6335 12.2306C13.8225 12.035 13.9555 11.807 13.9904 11.5304C14.0423 11.1271 13.8801 10.8034 13.606 10.5275C13.1762 10.0935 12.7423 9.66343 12.3084 9.2318C12.0886 9.01354 11.8786 8.78311 11.6418 8.58757C11.1868 8.21192 10.6346 8.22409 10.1821 8.60218C10.0945 8.6752 10.0158 8.75552 9.93472 8.83666C9.60466 9.16687 9.27621 9.4971 8.94615 9.82731C8.87965 9.89384 8.81315 9.95388 8.71178 9.8979C8.41496 9.73806 8.1076 9.59689 7.8254 9.41596C6.72898 8.71414 5.81986 7.80624 5.01209 6.79034C4.66987 6.36033 4.37063 5.90111 4.14597 5.39645C4.04866 5.17657 4.05028 5.16764 4.21896 4.99969C4.58227 4.63863 4.94964 4.2792 5.30647 3.91166L5.30559 3.91256Z" fill="#2EA4FF"/>
</svg>
