<svg width="24" height="24" viewBox="0 0 24 24" fill="none" xmlns="http://www.w3.org/2000/svg">
<path d="M13.3594 5.81836C14.2039 4.77416 15.5555 4.29501 16.8574 4.55859L17.1172 4.62207L19.5078 5.29297C20.1399 5.47069 20.576 6.04756 20.5762 6.7041V9.53613C20.5759 10.1009 20.0535 10.5071 19.5195 10.3916L19.4131 10.3613L18.3711 9.99707L17.8076 9.7998V17.7842C17.8076 18.7738 17.0052 19.576 16.0156 19.5762H12.1387L7.98535 19.5781L7.80176 19.5693C6.89797 19.4778 6.19238 18.7142 6.19238 17.7861V9.7998L5.62891 9.99707L4.60449 10.3555C4.02744 10.5574 3.42383 10.129 3.42383 9.51758V6.73242C3.42399 6.09685 3.8156 5.532 4.40039 5.30566L4.51953 5.26562L6.44141 4.69727C7.84868 4.28139 9.3637 4.62058 10.457 5.5791L10.6699 5.77832L10.8379 5.94824C11.5051 6.619 12.5798 6.60761 13.2344 5.95703L13.3594 5.81836Z" stroke="#706F6F" stroke-width="0.846702"/>
<path d="M6 16.2932C9.95459 15.4409 14.0454 15.4409 18 16.2932V17.834C18 19.0299 17.0306 19.9993 15.8348 19.9995L12 20H8.1655C6.96953 20 6 19.0305 6 17.8345V16.2932Z" fill="#706F6F"/>
</svg>
