<svg width="24" height="24" viewBox="0 0 24 24" fill="none" xmlns="http://www.w3.org/2000/svg">
<path d="M18.9651 7.53027C20.0902 7.63522 21.0084 8.50997 21.1497 9.65137L21.9847 16.3975C22.1088 17.4015 21.469 18.3417 20.4895 18.5947L20.3265 18.6309C19.5667 18.7672 18.7894 18.4967 18.2776 17.9189L18.1722 17.79L16.3606 15.4072C16.5557 15.2326 16.7156 15.0212 16.8313 14.7832L18.7708 17.335C19.1273 17.8039 19.7307 18.0133 20.3011 17.8662L20.4134 17.8311C20.9627 17.6335 21.3106 17.0788 21.2376 16.4893L20.4026 9.74414C20.2986 8.90386 19.5842 8.27263 18.7376 8.27246H5.2161C4.36769 8.27246 3.65222 8.90582 3.55009 9.74805L2.76298 16.2422C2.69707 16.7859 2.96418 17.3161 3.43973 17.5879L3.5579 17.6494C4.15829 17.9246 4.87726 17.7702 5.31083 17.2578L7.2288 14.9893C7.36633 15.2041 7.54308 15.3908 7.7493 15.54L5.88505 17.7441L5.7493 17.8916C5.08864 18.5446 4.08879 18.7211 3.24442 18.334L3.06571 18.2422C2.37325 17.8465 1.96598 17.0975 2.00223 16.3096L2.01591 16.1514L2.80301 9.65723C2.94182 8.51348 3.86066 7.63568 4.98759 7.53027L5.2161 7.51953H18.7376L18.9651 7.53027ZM13.1331 13.1465C13.0396 13.3794 12.9866 13.633 12.9866 13.8994H10.9602C10.9602 13.6331 10.9072 13.3794 10.8138 13.1465H13.1331Z" fill="#706F6F"/>
<circle cx="8.93558" cy="13.899" r="1.66663" stroke="#706F6F" stroke-width="0.717578"/>
<circle cx="15.0098" cy="13.899" r="1.66663" stroke="#706F6F" stroke-width="0.717578"/>
<circle cx="19.13" cy="10.8609" r="0.540112" fill="#706F6F"/>
<circle cx="18.0479" cy="9.78084" r="0.540112" fill="#706F6F"/>
<circle cx="16.9698" cy="10.8609" r="0.540112" fill="#706F6F"/>
<circle cx="18.0479" cy="11.9415" r="0.540112" fill="#706F6F"/>
<circle cx="11.9748" cy="11.469" r="0.607626" fill="#706F6F"/>
<path d="M4.27734 7.92444L4.37575 7.50623C4.55694 6.73616 5.22991 6.18178 6.02043 6.15137V6.15137C6.79057 6.12175 7.4903 6.59691 7.74681 7.32368L7.9231 7.82317" stroke="#706F6F" stroke-width="0.753457" stroke-linecap="round"/>
<path d="M19.4688 7.82288L19.3703 7.40467C19.1892 6.6346 18.5162 6.08021 17.7257 6.04981V6.04981C16.9555 6.02019 16.2558 6.49535 15.9993 7.22212L15.823 7.72161" stroke="#706F6F" stroke-width="0.753457" stroke-linecap="round"/>
<path d="M4.48047 10.3552C4.48047 10.2992 4.52581 10.2539 4.58174 10.2539H5.16043C5.37679 10.2539 5.56925 10.3914 5.63942 10.596C5.67591 10.7025 5.67591 10.818 5.63942 10.9245C5.56925 11.1291 5.37679 11.2666 5.16043 11.2666H4.58174C4.52581 11.2666 4.48047 11.2213 4.48047 11.1653V10.3552Z" fill="#706F6F"/>
<path d="M5.59346 9.24072C5.53753 9.24072 5.49219 9.28606 5.49219 9.34199V9.92069C5.49219 10.137 5.62966 10.3295 5.83432 10.3997C5.94076 10.4362 6.05632 10.4362 6.16277 10.3997C6.36743 10.3295 6.5049 10.137 6.5049 9.92069V9.34199C6.5049 9.28606 6.45956 9.24072 6.40363 9.24072H5.59346Z" fill="#706F6F"/>
<path d="M5.59346 12.2793C5.53753 12.2793 5.49219 12.234 5.49219 12.178V11.5993C5.49219 11.383 5.62966 11.1905 5.83432 11.1203C5.94076 11.0839 6.05632 11.0839 6.16277 11.1203C6.36743 11.1905 6.5049 11.383 6.5049 11.5993V12.178C6.5049 12.234 6.45956 12.2793 6.40363 12.2793H5.59346Z" fill="#706F6F"/>
<path d="M7.51562 11.1648C7.51562 11.2208 7.47028 11.2661 7.41435 11.2661H6.83566C6.6193 11.2661 6.42685 11.1286 6.35668 10.924C6.32018 10.8175 6.32018 10.702 6.35668 10.5955C6.42685 10.3909 6.6193 10.2534 6.83566 10.2534H7.41435C7.47028 10.2534 7.51562 10.2987 7.51562 10.3547V11.1648Z" fill="#706F6F"/>
<path d="M8.22656 7.93213L8.62189 8.72279C8.84006 9.15913 9.28604 9.43476 9.77388 9.43476H13.9777C14.4656 9.43476 14.9115 9.15913 15.1297 8.72279L15.525 7.93213" stroke="#706F6F"/>
<path d="M4.57422 7.59127C5.54393 7.94958 6.60976 7.94958 7.57947 7.59127V7.50284C7.57947 6.67291 6.90678 6.00006 6.07685 5.99988C5.24697 5.99988 4.57422 6.67262 4.57422 7.5025V7.59127Z" fill="#706F6F"/>
<path d="M7.8511 15.0507L8.19868 15.0507C9.32656 15.0506 10.1764 14.025 9.96714 12.9168L9.90435 12.8545C9.31503 12.2701 8.36359 12.274 7.77909 12.8632C7.19476 13.4525 7.19878 14.4039 7.78806 14.9882L7.8511 15.0507Z" fill="#706F6F"/>
<path d="M13.8628 15.0507L14.2104 15.0507C15.3383 15.0506 16.1882 14.025 15.9789 12.9168L15.9161 12.8545C15.3267 12.2701 14.3753 12.274 13.7908 12.8632C13.2065 13.4525 13.2105 14.4039 13.7998 14.9882L13.8628 15.0507Z" fill="#706F6F"/>
<path d="M16.168 7.59127C17.1377 7.94958 18.2035 7.94958 19.1732 7.59127V7.50284C19.1732 6.67291 18.5005 6.00006 17.6706 5.99988C16.8407 5.99988 16.168 6.67262 16.168 7.5025V7.59127Z" fill="#706F6F"/>
</svg>
