<svg width="56" height="46" viewBox="0 0 56 46" fill="none" xmlns="http://www.w3.org/2000/svg">
<path d="M1.75 8.70598V32.7361C1.75 39.3259 7.09206 44.6679 13.6818 44.6679H42.3182C48.9079 44.6679 54.25 39.3259 54.25 32.7361V31.6817M1.75 8.70598V1.71338H41.6723C45.5342 1.71338 48.6649 4.84407 48.6649 8.70598V8.70598M1.75 8.70598H48.6649M48.6649 8.70598V8.70598C51.7495 8.70598 54.25 11.2065 54.25 14.2911V21.6922M54.25 21.6922H38.0213C35.2628 21.6922 33.0266 23.9284 33.0266 26.6869V26.6869C33.0266 29.4455 35.2628 31.6817 38.0213 31.6817H54.25M54.25 21.6922V31.6817" stroke="#0C4178" stroke-width="2.38636" stroke-linecap="round"/>
<path d="M1.75 16.0316V8.87256H25.6136V44.668H11.2955L5.32955 41.0885L1.75 35.1226V16.0316Z" fill="#0C4178"/>
</svg>
