<svg width="60" height="55" viewBox="0 0 60 55" fill="none" xmlns="http://www.w3.org/2000/svg">
<path fill-rule="evenodd" clip-rule="evenodd" d="M3.16504 40.1294C3.16521 36.9079 5.7765 34.2964 8.99805 34.2964H21.8311V45.9634H19.4036C19.4672 46.3427 19.5003 46.7323 19.5003 47.1297C19.5003 47.5272 19.4672 47.917 19.4035 48.2964H38.2615C38.1978 47.917 38.1647 47.5272 38.1647 47.1297C38.1647 46.7323 38.1978 46.3427 38.2614 45.9634H24.165V17.9634H46.3311C52.13 17.9634 56.8311 22.6644 56.8311 28.4634V45.9634H52.068C52.1316 46.3427 52.1647 46.7323 52.1647 47.1297C52.1647 47.5272 52.1316 47.917 52.0679 48.2964H59.165V28.4634C59.165 21.3757 53.4187 15.6294 46.3311 15.6294H21.8311V23.7964H19.8252C14.5595 23.7964 9.90172 27.1103 8.13769 32.0083C4.0319 32.4382 0.831217 35.9098 0.831053 40.1294V48.2964H5.59711C5.53346 47.917 5.50033 47.5272 5.50033 47.1297C5.50033 46.7323 5.53344 46.3427 5.59706 45.9634H3.16504V40.1294ZM21.8311 31.9634H10.6748C12.3093 28.4487 15.8551 26.1294 19.8252 26.1294H21.8311V31.9634Z" fill="#0C4178"/>
<circle cx="7" cy="7" r="5.83333" transform="matrix(-1 0 0 1 52.165 40.1294)" stroke="#0C4178" stroke-width="2.33333"/>
<circle cx="7" cy="7" r="5.83333" transform="matrix(-1 0 0 1 19.501 40.1294)" stroke="#0C4178" stroke-width="2.33333"/>
<path fill-rule="evenodd" clip-rule="evenodd" d="M56.833 29.9631V23.7964L54.4997 20.2964L48.6663 16.7964L40.4997 17.9631H24.1663V45.963H38.1663L41.6663 42.4631L47.4997 41.2964L52.1663 45.963H56.833V29.9631ZM28.8346 23.797L28.7155 23.8038C28.1271 23.8635 27.6676 24.3599 27.6676 24.964C27.6676 25.5681 28.1271 26.0644 28.7155 26.1241L28.8346 26.131H49.8346C50.479 26.131 51.0016 25.6083 51.0016 24.964C51.0016 24.3197 50.479 23.797 49.8346 23.797H28.8346ZM28.7155 31.9699L28.8346 31.9631H49.8346C50.479 31.9631 51.0016 32.4858 51.0016 33.1301C51.0016 33.7744 50.479 34.2971 49.8346 34.2971H28.8346L28.7155 34.2902C28.1271 34.2305 27.6676 33.7342 27.6676 33.1301C27.6676 32.526 28.1271 32.0296 28.7155 31.9699Z" fill="#0C4178"/>
<path d="M58.001 9.79655C58.6453 9.79655 59.1676 9.27421 59.1676 8.62988C59.1676 7.98555 58.6453 7.46322 58.001 7.46322V9.79655ZM1.17602 7.80492C0.720407 8.26054 0.720407 8.99923 1.17602 9.45484L8.60064 16.8795C9.05625 17.3351 9.79494 17.3351 10.2506 16.8795C10.7062 16.4238 10.7062 15.6852 10.2506 15.2295L3.65089 8.62988L10.2506 2.03022C10.7062 1.57461 10.7062 0.835916 10.2506 0.380304C9.79494 -0.0753077 9.05625 -0.0753077 8.60064 0.380304L1.17602 7.80492ZM58.001 8.62988V7.46322H2.00098V8.62988V9.79655H58.001V8.62988Z" fill="#0C4178"/>
</svg>
