<svg width="22" height="22" viewBox="0 0 22 22" fill="none" xmlns="http://www.w3.org/2000/svg">
<path fill-rule="evenodd" clip-rule="evenodd" d="M19.5 11C19.5 15.6944 15.6944 19.5 11 19.5C6.30558 19.5 2.5 15.6944 2.5 11C2.5 6.30558 6.30558 2.5 11 2.5C15.6944 2.5 19.5 6.30558 19.5 11ZM21.5 11C21.5 16.799 16.799 21.5 11 21.5C5.20101 21.5 0.5 16.799 0.5 11C0.5 5.20101 5.20101 0.5 11 0.5C16.799 0.5 21.5 5.20101 21.5 11ZM10.1256 13.7209V13.8402H11.922V13.7209C11.9304 13.2393 11.9848 12.8352 12.0853 12.5086C12.1858 12.182 12.3449 11.8993 12.5627 11.6606C12.7846 11.4219 13.0736 11.1916 13.4295 10.9697C13.8064 10.7436 14.1288 10.4839 14.3968 10.1908C14.669 9.89768 14.8784 9.56478 15.0249 9.19209C15.1715 8.81521 15.2448 8.39228 15.2448 7.92328C15.2448 7.24072 15.0836 6.644 14.7611 6.13312C14.4429 5.61806 13.9948 5.21816 13.4169 4.93341C12.8391 4.64447 12.1649 4.5 11.3944 4.5C10.6909 4.5 10.0481 4.634 9.46603 4.902C8.88815 5.17 8.42334 5.56572 8.07159 6.08915C7.71984 6.6084 7.52931 7.2449 7.5 7.99865H9.4095C9.43881 7.55478 9.54978 7.19256 9.7424 6.912C9.93503 6.62725 10.1779 6.41787 10.471 6.28387C10.7642 6.14987 11.0719 6.08287 11.3944 6.08287C11.7503 6.08287 12.0727 6.15825 12.3617 6.309C12.6548 6.45556 12.8893 6.66494 13.0652 6.93712C13.2411 7.20931 13.329 7.53175 13.329 7.90443C13.329 8.21431 13.2704 8.49696 13.1531 8.7524C13.0359 9.00784 12.8767 9.23396 12.6757 9.43078C12.4747 9.62759 12.2486 9.80556 11.9974 9.96468C11.6079 10.1992 11.275 10.4588 10.9987 10.7436C10.7223 11.0283 10.5087 11.401 10.358 11.8616C10.2114 12.3222 10.1339 12.942 10.1256 13.7209ZM10.1884 17.2949C10.4354 17.5378 10.7307 17.6592 11.074 17.6592C11.3043 17.6592 11.5137 17.6027 11.7022 17.4896C11.8906 17.3765 12.0413 17.2258 12.1544 17.0374C12.2717 16.8447 12.3303 16.6333 12.3303 16.403C12.3303 16.0596 12.2047 15.7665 11.9534 15.5236C11.7063 15.2765 11.4132 15.153 11.074 15.153C10.7307 15.153 10.4354 15.2765 10.1884 15.5236C9.94131 15.7665 9.81778 16.0596 9.81778 16.403C9.81778 16.7505 9.94131 17.0478 10.1884 17.2949Z" fill="#D9D9D9"/>
</svg>
