<svg width="21" height="14" viewBox="0 0 21 14" fill="none" xmlns="http://www.w3.org/2000/svg">
<path d="M4.10352 12.8623H1.44859C0.981867 12.8623 0.603516 12.4839 0.603516 12.0172V9.86227M4.10352 12.8623L0.603516 9.86227M4.10352 12.8623H15.1035M0.603516 9.86227V6.36227M0.603516 6.36227V3.70734C0.603516 3.24062 0.981867 2.86227 1.44859 2.86227H2.35352M0.603516 6.36227L4.10352 2.86227M4.10352 2.86227H15.1035M4.10352 2.86227H2.35352M15.1035 2.86227H17.7584C18.2252 2.86227 18.6035 3.24062 18.6035 3.70734V6.36227M15.1035 2.86227L18.6035 6.36227M18.6035 6.36227V9.61227M18.6035 9.61227L15.1035 12.8623M18.6035 9.61227V11.725M15.1035 12.8623H17.7584C18.2252 12.8623 18.6035 12.4839 18.6035 12.0172V11.725M2.35352 2.86227V1.98277C2.35352 1.51605 2.73187 1.1377 3.19859 1.1377H19.553C20.0197 1.1377 20.398 1.51605 20.398 1.98277V10.88C20.398 11.3467 20.0197 11.725 19.553 11.725H18.6035" stroke="#706F6F" stroke-linecap="round"/>
<circle cx="9.60352" cy="7.8623" r="1.5" stroke="#706F6F"/>
</svg>
