<svg width="40" height="41" viewBox="0 0 40 41" fill="none" xmlns="http://www.w3.org/2000/svg">
<path d="M20 23.6299C18.125 23.6299 16.5 22.1299 16.5 20.1299C16.5 18.2549 18 16.6299 20 16.6299C21.875 16.6299 23.5 18.1299 23.5 20.1299C23.5 22.0049 21.875 23.6299 20 23.6299Z" fill="#2EA4FF"/>
<path fill-rule="evenodd" clip-rule="evenodd" d="M24.25 11.6299H15.75C14.75 11.7549 14.25 11.8799 13.875 12.0049C13.375 12.1299 13 12.3799 12.625 12.7549C12.3283 13.0516 12.1881 13.3483 12.0186 13.707C11.9739 13.8015 11.9271 13.9006 11.875 14.0049C11.8557 14.0629 11.8333 14.1239 11.8094 14.1893C11.6786 14.5465 11.5 15.0346 11.5 15.8799V24.3799C11.625 25.3799 11.75 25.8799 11.875 26.2549C12 26.7549 12.25 27.1299 12.625 27.5049C12.9217 27.8016 13.2185 27.9418 13.5771 28.1113C13.6717 28.156 13.7706 28.2027 13.875 28.2549C13.933 28.2742 13.994 28.2965 14.0594 28.3205C14.4167 28.4512 14.9047 28.6299 15.75 28.6299H24.25C25.25 28.5049 25.75 28.3799 26.125 28.2549C26.625 28.1299 27 27.8799 27.375 27.5049C27.6717 27.2081 27.8119 26.9114 27.9814 26.5527C28.0261 26.4582 28.0728 26.3592 28.125 26.2549C28.1443 26.1969 28.1667 26.1359 28.1906 26.0705C28.3214 25.7132 28.5 25.2252 28.5 24.3799V15.8799C28.375 14.8799 28.25 14.3799 28.125 14.0049C28 13.5049 27.75 13.1299 27.375 12.7549C27.0783 12.4581 26.7815 12.3179 26.4229 12.1485C26.3284 12.1039 26.2292 12.057 26.125 12.0049C26.067 11.9855 26.006 11.9632 25.9406 11.9393C25.5833 11.8085 25.0953 11.6299 24.25 11.6299ZM20 14.7549C17 14.7549 14.625 17.1299 14.625 20.1299C14.625 23.1299 17 25.5049 20 25.5049C23 25.5049 25.375 23.1299 25.375 20.1299C25.375 17.1299 23 14.7549 20 14.7549ZM26.75 14.6299C26.75 15.3202 26.1904 15.8799 25.5 15.8799C24.8096 15.8799 24.25 15.3202 24.25 14.6299C24.25 13.9395 24.8096 13.3799 25.5 13.3799C26.1904 13.3799 26.75 13.9395 26.75 14.6299Z" fill="#2EA4FF"/>
<path fill-rule="evenodd" clip-rule="evenodd" d="M0 20.1299C0 9.08419 8.95431 0.129883 20 0.129883C31.0457 0.129883 40 9.08419 40 20.1299C40 31.1756 31.0457 40.1299 20 40.1299C8.95431 40.1299 0 31.1756 0 20.1299ZM15.75 9.75488H24.25C25.375 9.87988 26.125 10.0049 26.75 10.2549C27.5 10.6299 28 10.8799 28.625 11.5049C29.25 12.1299 29.625 12.7549 29.875 13.3799C30.125 14.0049 30.375 14.7549 30.375 15.8799V24.3799C30.25 25.5049 30.125 26.2549 29.875 26.8799C29.5 27.6299 29.25 28.1299 28.625 28.7549C28 29.3799 27.375 29.7549 26.75 30.0049C26.125 30.2549 25.375 30.5049 24.25 30.5049H15.75C14.625 30.3799 13.875 30.2549 13.25 30.0049C12.5 29.6299 12 29.3799 11.375 28.7549C10.75 28.1299 10.375 27.5049 10.125 26.8799C9.875 26.2549 9.625 25.5049 9.625 24.3799V15.8799C9.75 14.7549 9.875 14.0049 10.125 13.3799C10.5 12.6299 10.75 12.1299 11.375 11.5049C12 10.8799 12.625 10.5049 13.25 10.2549C13.875 10.0049 14.625 9.75488 15.75 9.75488Z" fill="#2EA4FF"/>
</svg>
