<svg width="19" height="20" viewBox="0 0 19 20" fill="none" xmlns="http://www.w3.org/2000/svg">
<path fill-rule="evenodd" clip-rule="evenodd" d="M12.2151 1.01953C12.5359 1.01953 12.7961 1.2798 12.7961 1.60059V2.69141H13.8156V1.60059C13.8156 0.716469 13.0992 0 12.2151 0H7.30588C6.4218 4.79652e-05 5.70535 0.716498 5.7053 1.60059V2.69141H6.72483V1.60059C6.72488 1.27983 6.98513 1.01958 7.30588 1.01953H12.2151ZM17.6709 7.05482H17.0595L16.0353 19.6014H3.52848L2.46765 7.05482H1.85254C1.25009 7.05477 0.761719 6.56646 0.761719 5.964V3.78236C0.761767 3.17994 1.25012 2.69159 1.85254 2.69154H17.6709L17.7822 2.6974C18.3323 2.75322 18.7617 3.21753 18.7617 3.78236V5.964C18.7617 6.52889 18.3324 6.99415 17.7822 7.04994L17.6709 7.05482ZM1.85254 6.03529H17.6709C17.71 6.03524 17.7422 6.00313 17.7422 5.964V3.78236C17.7421 3.74327 17.71 3.71112 17.6709 3.71107H1.85254C1.81345 3.71112 1.7813 3.74327 1.78125 3.78236V5.964C1.78125 6.00313 1.81342 6.03524 1.85254 6.03529ZM4.46598 18.5819H15.0949L16.0197 7.25764H3.50895L4.46598 18.5819ZM6.79753 9.78346C6.79753 9.50237 7.02523 9.27467 7.30632 9.27467C7.5874 9.27467 7.81511 9.50237 7.81511 9.78346V15.8909C7.81511 16.172 7.5874 16.3997 7.30632 16.3997C7.02523 16.3997 6.79753 16.172 6.79753 15.8909V9.78346ZM12.214 9.27467C11.9329 9.27467 11.7052 9.50237 11.7052 9.78346V15.8909C11.7052 16.172 11.9329 16.3997 12.214 16.3997C12.4951 16.3997 12.7228 16.172 12.7228 15.8909V9.78346C12.7228 9.50237 12.4951 9.27467 12.214 9.27467Z" fill="#706F6F"/>
</svg>
