<svg width="24" height="24" viewBox="0 0 24 24" fill="none" xmlns="http://www.w3.org/2000/svg">
<path d="M18.1035 4.48047H8.56348C6.30825 4.48048 4.4805 6.30825 4.48047 8.56348C4.48047 10.7479 6.19528 12.5318 8.35254 12.6416L8.5625 12.6475H18.1035C18.8857 12.6475 19.5194 12.0137 19.5195 11.2314V5.89648C19.5194 5.16305 18.9624 4.55983 18.248 4.4873L18.1035 4.48047Z" stroke="#706F6F" stroke-width="0.960001"/>
<path d="M8.48047 18.1035V13.4805H12.5195V18.1035C12.5195 18.8858 11.8858 19.5195 11.1035 19.5195H9.89648C9.16298 19.5195 8.5597 18.9625 8.4873 18.248L8.48047 18.1035Z" stroke="#706F6F" stroke-width="0.960001"/>
<path d="M8 17.7759C9.62835 17.2705 11.3716 17.2705 13 17.7759V18.1034C13 19.1507 12.1511 19.9997 11.1039 19.9999L10.5 20H9.89648C8.84908 20 8 19.1509 8 18.1035V17.7759Z" fill="#706F6F"/>
<path d="M17.1877 12.3535C16.6593 9.79991 16.6593 7.16518 17.1877 4.61157H17.5868C18.6341 4.61157 19.4831 5.46051 19.4832 6.50781L19.4835 8.48255V10.457C19.4835 11.5044 18.6344 12.3535 17.587 12.3535H17.1877Z" fill="#706F6F"/>
<circle cx="8.64289" cy="8.48274" r="1.96258" stroke="#706F6F" stroke-width="0.72"/>
<path d="M20.0526 16.4052C20.0526 17.6609 17.6526 19.4363 17.5263 19.4362C17.4 19.4362 15 17.6609 15 16.4052C15 15.1495 16.3895 14.3845 17.5263 15.6468C18.6632 14.3847 20.0526 15.2684 20.0526 16.4052Z" fill="#706F6F"/>
</svg>
