<svg width="24" height="24" viewBox="0 0 24 24" fill="none" xmlns="http://www.w3.org/2000/svg">
<path d="M8.2666 3.49609H15.7334C17.816 3.49613 19.5039 5.18397 19.5039 7.2666V11.5039H4.49609V7.2666C4.49613 5.24916 6.07996 3.60216 8.07227 3.50098L8.2666 3.49609Z" stroke="#706F6F" stroke-width="0.991258"/>
<path d="M8.2666 20.5039H15.7334C17.816 20.5039 19.5039 18.816 19.5039 16.7334V11.4961H4.49609V16.7334C4.49613 18.7508 6.07996 20.3978 8.07227 20.499L8.2666 20.5039Z" stroke="#706F6F" stroke-width="0.991258"/>
<path d="M11 13.5039H13C14.2132 13.5039 15.2238 12.6415 15.4541 11.4961H8.5459C8.75978 12.5599 9.6467 13.3798 10.7441 13.4912L11 13.5039Z" stroke="#706F6F" stroke-width="0.991258"/>
<path d="M9.59766 15.6763H14.3977" stroke="#706F6F" stroke-width="0.992" stroke-linecap="round"/>
<mask id="path-5-inside-1_0_34386" fill="white">
<path d="M8 6.05091C8.00001 5.47066 8.47053 5.00013 9.05078 5.00013H9.85938C10.9656 5.00013 11.8645 5.89391 11.8701 7.00013L11.8896 10.8976C11.8922 11.4022 11.3659 11.7352 10.9111 11.5167C10.8778 11.5007 10.8559 11.4669 10.8555 11.4298L10.8203 8.73353L10.4707 8.89271C9.86991 9.16623 9.21677 9.30775 8.55664 9.30775C8.24932 9.30755 8.00023 9.05842 8 8.75111V6.05091Z"/>
</mask>
<path d="M8 6.05091C8.00001 5.47066 8.47053 5.00013 9.05078 5.00013H9.85938C10.9656 5.00013 11.8645 5.89391 11.8701 7.00013L11.8896 10.8976C11.8922 11.4022 11.3659 11.7352 10.9111 11.5167C10.8778 11.5007 10.8559 11.4669 10.8555 11.4298L10.8203 8.73353L10.4707 8.89271C9.86991 9.16623 9.21677 9.30775 8.55664 9.30775C8.24932 9.30755 8.00023 9.05842 8 8.75111V6.05091Z" fill="#706F6F"/>
<path d="M8 6.05091L7.46624 6.0509V6.05091H8ZM11.8701 7.00013L12.4039 6.99746L12.4039 6.99741L11.8701 7.00013ZM11.8896 10.8976L11.3559 10.9003L11.3559 10.9003L11.8896 10.8976ZM10.9111 11.5167L10.6797 11.9977L10.68 11.9978L10.9111 11.5167ZM10.8555 11.4298L11.3892 11.4229L11.3892 11.4229L10.8555 11.4298ZM10.8203 8.73353L11.354 8.72657L11.3434 7.9089L10.5991 8.24775L10.8203 8.73353ZM10.4707 8.89271L10.6919 9.37849L10.6919 9.37848L10.4707 8.89271ZM8.55664 9.30775L8.5563 9.8415H8.55664V9.30775ZM8 8.75111H7.46624L7.46624 8.7515L8 8.75111ZM8 6.05091L8.53376 6.05092C8.53376 5.76544 8.76532 5.53389 9.05078 5.53389V5.00013V4.46637C8.17574 4.46637 7.46626 5.17588 7.46624 6.0509L8 6.05091ZM9.05078 5.00013V5.53389H9.85938V5.00013V4.46637H9.05078V5.00013ZM9.85938 5.00013V5.53389C10.6721 5.53389 11.3322 6.19053 11.3364 7.00285L11.8701 7.00013L12.4039 6.99741C12.3967 5.59729 11.2592 4.46637 9.85938 4.46637V5.00013ZM11.8701 7.00013L11.3364 7.00281L11.3559 10.9003L11.8896 10.8976L12.4234 10.8949L12.4039 6.99746L11.8701 7.00013ZM11.8896 10.8976L11.3559 10.9003C11.3565 11.0108 11.2415 11.0833 11.1423 11.0356L10.9111 11.5167L10.68 11.9978C11.4903 12.3872 12.428 11.7936 12.4234 10.8949L11.8896 10.8976ZM10.9111 11.5167L11.1425 11.0357C11.2896 11.1065 11.387 11.255 11.3892 11.4229L10.8555 11.4298L10.3218 11.4367C10.3249 11.6787 10.4659 11.8949 10.6797 11.9977L10.9111 11.5167ZM10.8555 11.4298L11.3892 11.4229L11.354 8.72657L10.8203 8.73353L10.2866 8.74049L10.3218 11.4368L10.8555 11.4298ZM10.8203 8.73353L10.5991 8.24775L10.2495 8.40693L10.4707 8.89271L10.6919 9.37848L11.0415 9.2193L10.8203 8.73353ZM10.4707 8.89271L10.2495 8.40693C9.71828 8.6488 9.14056 8.77399 8.55664 8.77399V9.30775V9.8415C9.29298 9.8415 10.0215 9.68367 10.6919 9.37849L10.4707 8.89271ZM8.55664 9.30775L8.55698 8.77399C8.54424 8.77398 8.53377 8.7636 8.53376 8.75071L8 8.75111L7.46624 8.7515C7.46669 9.35323 7.95441 9.84112 8.5563 9.8415L8.55664 9.30775ZM8 8.75111H8.53376V6.05091H8H7.46624V8.75111H8Z" fill="#706F6F" mask="url(#path-5-inside-1_0_34386)"/>
<mask id="path-7-inside-2_0_34386" fill="white">
<path d="M16 6.05078C16 5.47053 15.5295 5 14.9492 5H14.1484C13.039 5.00023 12.1395 5.8993 12.1387 7.00879L12.1357 10.8096C12.1356 11.3116 12.5428 11.7188 13.0449 11.7188C13.1164 11.7186 13.1747 11.6604 13.1748 11.5889L13.1797 8.7334L13.5293 8.89258C14.1301 9.1661 14.7832 9.30762 15.4434 9.30762C15.7507 9.30742 15.9998 9.05832 16 8.75098V6.05078Z"/>
</mask>
<path d="M16 6.05078C16 5.47053 15.5295 5 14.9492 5H14.1484C13.039 5.00023 12.1395 5.8993 12.1387 7.00879L12.1357 10.8096C12.1356 11.3116 12.5428 11.7188 13.0449 11.7188C13.1164 11.7186 13.1747 11.6604 13.1748 11.5889L13.1797 8.7334L13.5293 8.89258C14.1301 9.1661 14.7832 9.30762 15.4434 9.30762C15.7507 9.30742 15.9998 9.05832 16 8.75098V6.05078Z" fill="#706F6F"/>
<path d="M16 6.05078L16.5338 6.05077V6.05078H16ZM14.1484 5L14.1483 4.46624H14.1484V5ZM12.1387 7.00879L12.6724 7.0092L12.1387 7.00879ZM12.1357 10.8096L11.602 10.8094V10.8092L12.1357 10.8096ZM13.0449 11.7188L13.0462 12.2525H13.0449V11.7188ZM13.1748 11.5889L13.7086 11.5898V11.5898L13.1748 11.5889ZM13.1797 8.7334L12.6459 8.73249L12.6473 7.90454L13.4009 8.24762L13.1797 8.7334ZM13.5293 8.89258L13.3081 9.37836L13.3081 9.37835L13.5293 8.89258ZM15.4434 9.30762L15.4437 9.84137H15.4434V9.30762ZM16 8.75098H16.5338L16.5338 8.75131L16 8.75098ZM16 6.05078L15.4662 6.05079C15.4662 5.76531 15.2347 5.53376 14.9492 5.53376V5V4.46624C15.8243 4.46624 16.5337 5.17575 16.5338 6.05077L16 6.05078ZM14.9492 5V5.53376H14.1484V5V4.46624H14.9492V5ZM14.1484 5L14.1486 5.53376C13.3337 5.53393 12.6731 6.19425 12.6724 7.0092L12.1387 7.00879L11.6049 7.00838C11.606 5.60435 12.7443 4.46654 14.1483 4.46624L14.1484 5ZM12.1387 7.00879L12.6724 7.0092L12.6695 10.81L12.1357 10.8096L11.602 10.8092L11.6049 7.00838L12.1387 7.00879ZM12.1357 10.8096L12.6695 10.8097C12.6694 11.0168 12.8375 11.185 13.0449 11.185V11.7188V12.2525C12.2481 12.2525 11.6018 11.6065 11.602 10.8094L12.1357 10.8096ZM13.0449 11.7188L13.0437 11.185C12.8217 11.1855 12.6414 11.365 12.641 11.5879L13.1748 11.5889L13.7086 11.5898C13.7079 11.9558 13.4111 12.2517 13.0462 12.2525L13.0449 11.7188ZM13.1748 11.5889L12.641 11.588L12.6459 8.73249L13.1797 8.7334L13.7134 8.73431L13.7086 11.5898L13.1748 11.5889ZM13.1797 8.7334L13.4009 8.24762L13.7505 8.4068L13.5293 8.89258L13.3081 9.37835L12.9585 9.21917L13.1797 8.7334ZM13.5293 8.89258L13.7505 8.4068C14.2817 8.64867 14.8594 8.77386 15.4434 8.77386V9.30762V9.84137C14.707 9.84137 13.9785 9.68354 13.3081 9.37836L13.5293 8.89258ZM15.4434 9.30762L15.443 8.77386C15.4558 8.77385 15.4662 8.76345 15.4662 8.75064L16 8.75098L16.5338 8.75131C16.5334 9.35318 16.0456 9.84099 15.4437 9.84137L15.4434 9.30762ZM16 8.75098H15.4662V6.05078H16H16.5338V8.75098H16Z" fill="#706F6F" mask="url(#path-7-inside-2_0_34386)"/>
</svg>
