<svg width="24" height="24" viewBox="0 0 24 24" fill="none" xmlns="http://www.w3.org/2000/svg">
<path d="M5.4043 5.13428C9.51556 4.70575 13.6583 4.67823 17.7734 5.05322L18.5957 5.13428C19.1095 5.18787 19.4998 5.62066 19.5 6.13721V19.8608C19.5 20.3003 19.1982 20.6775 18.7783 20.7798L18.6924 20.7964C14.5328 21.4145 10.3085 21.454 6.14062 20.9146L5.30762 20.7993C4.84389 20.7306 4.50018 20.3325 4.5 19.8638V6.13721C4.50017 5.65293 4.84332 5.24254 5.30957 5.14893L5.4043 5.13428Z" stroke="#706F6F"/>
<circle cx="12.0014" cy="9.12052" r="1.85294" stroke="#706F6F"/>
<circle cx="12.0011" cy="15.7087" r="2.79412" stroke="#706F6F"/>
<path d="M5.88281 3.94385C9.93739 3.32007 14.0635 3.32007 18.1181 3.94385V3.40388C18.1181 3.11508 17.9165 2.86545 17.6342 2.80463C13.921 2.00467 10.08 2.00455 6.36674 2.80432C6.0844 2.86513 5.88281 3.11477 5.88281 3.40358V3.94385Z" fill="#706F6F"/>
</svg>
