<svg width="18" height="20" viewBox="0 0 18 20" fill="none" xmlns="http://www.w3.org/2000/svg">
<path d="M16.9933 15.5861C16.6909 16.2848 16.3329 16.928 15.9181 17.5193C15.3526 18.3255 14.8897 18.8835 14.5329 19.1934C13.9798 19.702 13.3873 19.9625 12.7527 19.9773C12.2972 19.9773 11.7478 19.8477 11.1083 19.5847C10.4667 19.323 9.87712 19.1934 9.338 19.1934C8.77259 19.1934 8.16619 19.323 7.51757 19.5847C6.86795 19.8477 6.34464 19.9847 5.94453 19.9983C5.33603 20.0242 4.7295 19.7563 4.12409 19.1934C3.73768 18.8563 3.25436 18.2786 2.67537 17.4601C2.05415 16.586 1.54343 15.5725 1.14331 14.417C0.714808 13.1689 0.5 11.9603 0.5 10.7902C0.5 9.44984 0.789621 8.29382 1.36973 7.32509C1.82564 6.54696 2.43216 5.93316 3.19128 5.48255C3.95039 5.03195 4.77061 4.80233 5.65392 4.78763C6.13724 4.78763 6.77104 4.93714 7.55867 5.23096C8.34408 5.52576 8.84839 5.67526 9.06949 5.67526C9.2348 5.67526 9.79503 5.50045 10.7448 5.15195C11.6429 4.82874 12.4009 4.69492 13.0218 4.74764C14.7045 4.88343 15.9687 5.54675 16.8094 6.74177C15.3045 7.6536 14.5601 8.93072 14.5749 10.5691C14.5885 11.8452 15.0514 12.9071 15.9613 13.7503C16.3736 14.1417 16.8341 14.4441 17.3464 14.6589C17.2353 14.9812 17.118 15.2898 16.9933 15.5861ZM13.1342 0.400114C13.1342 1.40034 12.7688 2.33425 12.0404 3.19867C11.1614 4.22629 10.0982 4.8201 8.9453 4.7264C8.93061 4.60641 8.92209 4.48011 8.92209 4.3474C8.92209 3.38718 9.3401 2.35956 10.0824 1.51934C10.453 1.09392 10.9244 0.74019 11.496 0.458013C12.0663 0.180046 12.6058 0.0263242 13.1132 0C13.128 0.133715 13.1342 0.267451 13.1342 0.400114Z" fill="#F9FAFD"/>
</svg>
