<svg width="40" height="40" viewBox="0 0 40 40" fill="none" xmlns="http://www.w3.org/2000/svg">
<path d="M19.6399 13.759L16.9899 26.1483H13.7845L16.4348 13.759H19.6399ZM33.1246 21.7589L34.8115 17.1065L35.7824 21.7589H33.1246ZM36.7019 26.1483H39.6657L37.0764 13.759H34.3426C33.7265 13.759 33.207 14.1162 32.9771 14.6671L28.1678 26.1483H31.534L32.2022 24.298H36.3138L36.7019 26.1483ZM28.3348 22.1036C28.3487 18.8338 23.8147 18.6527 23.8451 17.1917C23.8548 16.7478 24.2784 16.275 25.2041 16.154C25.663 16.0949 26.9295 16.047 28.3651 16.7085L28.9266 14.0803C28.1556 13.8013 27.1633 13.5327 25.9286 13.5327C22.76 13.5327 20.531 15.2158 20.5132 17.6278C20.4928 19.4115 22.1054 20.406 23.3179 21.0001C24.5679 21.6073 24.9867 21.9966 24.9806 22.5391C24.9719 23.3704 23.9838 23.7385 23.0637 23.7524C21.4514 23.7775 20.5168 23.3166 19.772 22.9694L19.1901 25.6854C19.9403 26.0287 21.3224 26.3274 22.7536 26.3428C26.1222 26.3428 28.3247 24.6795 28.3348 22.1036ZM15.0599 13.759L9.86662 26.1483H6.47901L3.92318 16.2607C3.76825 15.6527 3.63311 15.4292 3.1619 15.1723C2.39114 14.7538 1.1188 14.3623 0 14.1187L0.075795 13.759H5.52963C6.22432 13.759 6.84934 14.2213 7.00845 15.0216L8.35854 22.1914L11.6926 13.759H15.0599Z" fill="#072849"/>
</svg>
