<svg width="24" height="24" viewBox="0 0 24 24" fill="none" xmlns="http://www.w3.org/2000/svg">
<path d="M6.21289 5.12012C9.81966 4.73572 13.4551 4.7115 17.0654 5.04785L17.7871 5.12012C18.1922 5.1633 18.5 5.50471 18.5 5.91211V18.0225C18.5 18.4889 18.1667 18.8837 17.7168 18.9688L17.625 18.9814C14.117 19.3035 10.5879 19.3245 7.07715 19.0439L6.375 18.9834C5.87952 18.9381 5.50021 18.5229 5.5 18.0254V5.91211C5.5 5.55565 5.73524 5.24935 6.06543 5.14941L6.21289 5.12012Z" stroke="#706F6F"/>
<path d="M7 4C10.3123 3.47004 13.6877 3.47004 17 4V3.42528C17 3.16445 16.8153 2.94015 16.5593 2.89017C13.5482 2.30228 10.4518 2.3022 7.44076 2.88996C7.18475 2.93994 7 3.16424 7 3.42508V4Z" fill="#706F6F"/>
<path d="M7 20C10.3123 20.53 13.6877 20.53 17 20V20.5747C17 20.8356 16.8153 21.0599 16.5593 21.1098C13.5482 21.6977 10.4518 21.6978 7.44076 21.11C7.18475 21.0601 7 20.8358 7 20.5749V20Z" fill="#706F6F"/>
<path d="M7.5 11.5835C10.5516 11.3616 13.6152 11.3616 16.6667 11.5835V11.1324C16.6667 10.7804 16.4057 10.4829 16.0566 10.4371C13.4191 10.0917 10.7477 10.0917 8.1102 10.4369C7.76109 10.4826 7.5 10.7801 7.5 11.1322V11.5835Z" fill="#706F6F"/>
<path d="M7.5 14.084C10.5516 13.8621 13.6152 13.8621 16.6667 14.084V13.6329C16.6667 13.2808 16.4057 12.9833 16.0566 12.9376C13.4191 12.5922 10.7477 12.5922 8.1102 12.9374C7.76109 12.9831 7.5 13.2806 7.5 13.6327V14.084Z" fill="#706F6F"/>
</svg>
