<svg width="22" height="20" viewBox="0 0 22 20" fill="none" xmlns="http://www.w3.org/2000/svg">
<path d="M0.5 4.16699V4.16699C1.90862 4.16699 3.07776 5.25559 3.17812 6.66064L3.20833 7.08366M3.83333 13.3337H14.9297C16.5486 13.3337 18.0209 12.396 18.7055 10.929L20.5 7.08366H3.20833M3.83333 13.3337L3.20833 7.08366M3.83333 13.3337V13.3337C3.83333 14.4843 4.76607 15.417 5.91667 15.417H16.75" stroke="#706F6F" stroke-width="0.833333" stroke-linecap="round"/>
<circle cx="5.91602" cy="17.5" r="2.08333" stroke="#706F6F" stroke-width="0.833333"/>
<path d="M3.83398 10H18.834L17.584 12.5L15.1853 13.3333H3.83398V10Z" fill="#706F6F"/>
<circle cx="16.75" cy="17.5" r="2.08333" stroke="#706F6F" stroke-width="0.833333"/>
<rect x="16.6973" y="1.66699" width="2.81529" height="2.81529" rx="0.563058" transform="rotate(25.2004 16.6973 1.66699)" fill="#706F6F"/>
<rect x="8.83203" y="0.46875" width="4.82038" height="4.82038" rx="0.964076" transform="rotate(-5.5805 8.83203 0.46875)" fill="#706F6F"/>
<rect x="6.625" y="2.5" width="2.16845" height="2.16845" rx="0.43369" transform="rotate(64.614 6.625 2.5)" fill="#706F6F"/>
</svg>
