<svg width="21" height="18" viewBox="0 0 21 18" fill="none" xmlns="http://www.w3.org/2000/svg">
<path fill-rule="evenodd" clip-rule="evenodd" d="M8.88641 10.4393H7.52173C7.46918 10.8949 7.65958 11.3537 8.03709 11.6368L8.60044 12.0593L10.4286 13.339H11.6382C12.1329 13.339 12.603 13.5552 12.9249 13.9308C13.3392 14.4141 13.9439 14.6922 14.5804 14.6922H14.6589C15.2446 14.6922 15.7195 14.2173 15.7195 13.6316V13.3298C15.7195 13.1487 15.7617 12.9701 15.8426 12.8082L16.5336 11.4263L17.0271 10.4393H12.5002C12.681 10.192 12.865 9.93279 13.0467 9.66602H17.6527H17.936L18.0214 9.93622L20.3411 17.2822L20.5 17.7853H19.9725H1.02754H0.5L0.65886 17.2822L1.81875 13.6092L2.97865 9.93622L3.06397 9.66602H3.34733H7.21364H8.33997C8.52168 9.93279 8.70562 10.192 8.88641 10.4393ZM2.69586 13.3996L3.63069 10.4393H6.74521C6.69505 11.1344 6.99716 11.8234 7.57313 12.2554L8.14155 12.6817L8.14143 12.6819L8.15181 12.6892L9.87001 13.8919C9.59596 14.8119 8.74586 15.4655 7.77337 15.4655H7.73582C7.44743 15.4655 7.21364 15.2317 7.21364 14.9433C7.21364 14.384 6.79716 13.9122 6.24217 13.8428L2.69586 13.3996ZM17.2252 11.7721L17.5715 11.0795L19.4449 17.012H1.55509L2.45912 14.1492L6.14626 14.6101C6.31429 14.6311 6.44038 14.774 6.44038 14.9433C6.44038 15.6588 7.02037 16.2387 7.73582 16.2387H7.77337C9.09573 16.2387 10.2418 15.3529 10.6112 14.1123H11.6382C11.9072 14.1123 12.1628 14.2298 12.3378 14.434C12.899 15.0887 13.7181 15.4655 14.5804 15.4655H14.6589C15.6717 15.4655 16.4928 14.6444 16.4928 13.6316V13.3298C16.4928 13.2687 16.507 13.2085 16.5343 13.154L17.2252 11.7721Z" fill="#706F6F"/>
<path d="M3.59349 10.0527H7.07316L7.45979 11.5993L9.00632 12.7592L10.1662 13.919L9.39295 15.4656L7.45979 15.8522L6.68653 14.3057L2.43359 13.919L3.59349 10.0527Z" fill="#706F6F"/>
<path fill-rule="evenodd" clip-rule="evenodd" d="M10.6924 11.9267C10.6924 11.9267 14.9453 7.14975 14.9453 4.60595C14.9453 2.06215 13.0412 0 10.6924 0C8.34356 0 6.43945 2.06215 6.43945 4.60595C6.43945 7.14975 10.6924 11.9267 10.6924 11.9267ZM10.6458 7.39644C12.3564 7.39644 13.743 6.00975 13.743 4.29919C13.743 2.58862 12.3564 1.20194 10.6458 1.20194C8.93522 1.20194 7.54854 2.58862 7.54854 4.29919C7.54854 6.00975 8.93522 7.39644 10.6458 7.39644Z" fill="#706F6F"/>
</svg>
