<svg width="12" height="13" viewBox="0 0 12 13" fill="none" xmlns="http://www.w3.org/2000/svg">
<path d="M6.02637 11.293C5.5937 11.9227 4.68235 11.9233 4.24023 11.3359L4.1582 11.2109L4.05176 11.0225C3.90731 10.7664 3.87206 10.4645 3.9502 10.1846L3.99023 10.0664L4.77344 8.13672L4.94629 7.70996H1.52441C0.922787 7.7099 0.44022 7.22983 0.422852 6.64258L0.425781 6.52344L0.773438 2.00586C0.817733 1.43199 1.29646 0.989258 1.87207 0.989258H10.5879C11.1964 0.989258 11.6904 1.48233 11.6904 2.09082V6.6084C11.6904 7.21685 11.1963 7.70996 10.5879 7.70996H8.48828L8.39551 7.84473L6.02637 11.293Z" stroke="#706F6F" stroke-width="0.62"/>
</svg>
