<svg width="40" height="40" viewBox="0 0 40 40" fill="none" xmlns="http://www.w3.org/2000/svg">
<path d="M25.5304 10.3423H14.8047V29.6168H25.5304V10.3423Z" fill="#FF5F00"/>
<path d="M15.4852 19.9802C15.4835 18.1239 15.9042 16.2916 16.7153 14.6219C17.5265 12.9522 18.7068 11.489 20.1671 10.3429C18.3588 8.92156 16.1871 8.03763 13.9001 7.79218C11.6132 7.54672 9.30337 7.94964 7.23461 8.95488C5.16586 9.96013 3.42166 11.5271 2.20138 13.4768C0.981107 15.4265 0.333984 17.6801 0.333984 19.9802C0.333984 22.2802 0.981107 24.5339 2.20138 26.4836C3.42166 28.4332 5.16586 30.0002 7.23461 31.0055C9.30337 32.0107 11.6132 32.4136 13.9001 32.1682C16.1871 31.9227 18.3588 31.0388 20.1671 29.6174C18.7069 28.4714 17.5265 27.0081 16.7153 25.3384C15.9042 23.6688 15.4836 21.8364 15.4852 19.9802Z" fill="#EB001B"/>
<path d="M39.9995 19.9802C39.9996 22.2802 39.3525 24.5338 38.1323 26.4835C36.9121 28.4332 35.168 30.0002 33.0992 31.0054C31.0305 32.0107 28.7207 32.4136 26.4338 32.1682C24.1469 31.9227 21.9753 31.0388 20.167 29.6174C21.6259 28.4702 22.8054 27.0067 23.6164 25.3373C24.4274 23.6679 24.8488 21.8361 24.8488 19.9802C24.8488 18.1242 24.4274 16.2924 23.6164 14.623C22.8054 12.9536 21.6259 11.4901 20.167 10.3429C21.9753 8.92156 24.1469 8.03763 26.4338 7.79217C28.7207 7.54672 31.0305 7.94965 33.0992 8.9549C35.168 9.96015 36.9121 11.5272 38.1323 13.4768C39.3525 15.4265 39.9996 17.6801 39.9995 19.9802Z" fill="#F79E1B"/>
<path d="M38.8301 27.5754V27.1808H38.9892V27.1004H38.584V27.1808H38.7432V27.5754H38.8301ZM39.6168 27.5754V27.0996H39.4926L39.3497 27.4269L39.2068 27.0996H39.0825V27.5754H39.1703V27.2165L39.3042 27.5259H39.3952L39.5292 27.2157V27.5754H39.6168Z" fill="#F79E1B"/>
</svg>
