<svg width="60" height="47" viewBox="0 0 60 47" fill="none" xmlns="http://www.w3.org/2000/svg">
<path fill-rule="evenodd" clip-rule="evenodd" d="M56.835 32.2964C56.8348 29.0749 54.2235 26.4634 51.002 26.4634H38.1689V38.1304H40.5964C40.5328 38.5096 40.4997 38.8991 40.4997 39.2964C40.4997 39.694 40.5328 40.0839 40.5965 40.4634H21.7385C21.8021 40.0839 21.8353 39.694 21.8353 39.2964C21.8353 38.8991 21.8022 38.5096 21.7386 38.1304H35.835V3.13037H13.6689C7.86996 3.13037 3.16895 7.83138 3.16895 13.6304V38.1304H7.93197C7.86838 38.5096 7.83529 38.8991 7.83529 39.2964C7.83529 39.694 7.86844 40.0839 7.93212 40.4634H0.834961V13.6304C0.834961 6.54272 6.58129 0.796387 13.6689 0.796387H38.1689V15.9634H40.1748C45.4405 15.9634 50.0983 19.2773 51.8623 24.1753C55.9681 24.6052 59.1688 28.0768 59.1689 32.2964V40.4634H54.4028C54.4665 40.0839 54.4997 39.694 54.4997 39.2964C54.4997 38.8991 54.4666 38.5096 54.403 38.1304H56.835V32.2964ZM38.1689 24.1304H49.3252C47.6907 20.6157 44.1449 18.2964 40.1748 18.2964H38.1689V24.1304Z" fill="#0C4178"/>
<circle cx="14.835" cy="39.2964" r="5.83333" stroke="#0C4178" stroke-width="2.33333"/>
<circle cx="47.499" cy="39.2964" r="5.83333" stroke="#0C4178" stroke-width="2.33333"/>
<path fill-rule="evenodd" clip-rule="evenodd" d="M13.6686 1.96338L5.50195 5.46338L2.00195 11.2967V38.13H7.83529L10.1686 35.7967L14.8353 33.4634L18.3353 34.63L21.8353 38.13H35.8353V1.96338H13.6686ZM31.2874 15.9705L31.1682 15.9637H10.1682C9.52388 15.9637 9.00122 16.4863 9.00122 17.1307C9.00122 17.775 9.52388 18.2976 10.1682 18.2976H31.1682L31.2874 18.2908C31.8757 18.2311 32.3352 17.7347 32.3352 17.1307C32.3352 16.5266 31.8757 16.0302 31.2874 15.9705ZM31.1682 8.96252L31.2874 8.96936C31.8757 9.02906 32.3352 9.52542 32.3352 10.1295C32.3352 10.7336 31.8757 11.23 31.2874 11.2897L31.1682 11.2965H10.1682C9.52388 11.2965 9.00122 10.7738 9.00122 10.1295C9.00122 9.48518 9.52388 8.96252 10.1682 8.96252H31.1682ZM31.2874 24.1366L31.1682 24.1298H10.1682C9.52388 24.1298 9.00122 24.6524 9.00122 25.2968C9.00122 25.9411 9.52388 26.4637 10.1682 26.4637H31.1682L31.2874 26.4569C31.8757 26.3972 32.3352 25.9008 32.3352 25.2968C32.3352 24.6927 31.8757 24.1963 31.2874 24.1366Z" fill="#0C4178"/>
</svg>
