<svg width="24" height="24" viewBox="0 0 24 24" fill="none" xmlns="http://www.w3.org/2000/svg">
<path d="M6.25781 2.66113C10.0503 2.25131 13.8751 2.24265 17.668 2.63574L18.4258 2.71973C19.0381 2.79191 19.4999 3.31117 19.5 3.92773V20.1152L19.4932 20.2568C19.427 20.9071 18.91 21.4238 18.2598 21.4902L18.1182 21.498L12.3477 21.5H5.88281C5.11936 21.5 4.5 20.8806 4.5 20.1172V4.07812L4.50586 3.94824C4.56223 3.35123 5.00427 2.85936 5.5918 2.73926L5.71973 2.71875L6.25781 2.66113Z" stroke="#706F6F"/>
<path d="M5.91211 8.98828C9.92702 8.68459 13.9585 8.67828 17.9736 8.96973L18.7764 9.03223C19.185 9.06595 19.4999 9.40739 19.5 9.81738V20.1162C19.4999 20.8316 18.9564 21.4201 18.2598 21.4912L18.1182 21.498L12.3477 21.5H5.88281C5.11936 21.5 4.5 20.8806 4.5 20.1172V9.93262C4.5 9.48985 4.81998 9.11706 5.24805 9.04297L5.33496 9.03223L5.91211 8.98828Z" stroke="#706F6F"/>
<path d="M4 19.7759C9.32085 19.2599 14.6792 19.2599 20 19.7759V20.1173C20 21.1568 19.1573 21.9996 18.1178 21.9996L12 22H5.88235C4.84276 22 4 21.1572 4 20.1176V19.7759Z" fill="#706F6F"/>
<path d="M8 7C10.6484 6.5586 13.3516 6.5586 16 7V6.23045C16 6.05657 15.8802 5.9056 15.7109 5.86609C13.2698 5.29636 10.7302 5.29628 8.28913 5.86587C8.11979 5.90538 8 6.05635 8 6.23023V7Z" fill="#706F6F"/>
<path d="M8 12C10.6484 11.5586 13.3516 11.5586 16 12V11.2304C16 11.0566 15.8802 10.9056 15.7109 10.8661C13.2698 10.2964 10.7302 10.2963 8.28913 10.8659C8.11979 10.9054 8 11.0563 8 11.2302V12Z" fill="#706F6F"/>
</svg>
