<svg width="31" height="30" viewBox="0 0 31 30" fill="none" xmlns="http://www.w3.org/2000/svg">
<path d="M10.5 14.375C10.1548 14.375 9.875 14.6548 9.875 15C9.875 15.3452 10.1548 15.625 10.5 15.625V14.375ZM27.1919 15.4419C27.436 15.1979 27.436 14.8021 27.1919 14.5581L23.2145 10.5806C22.9704 10.3365 22.5747 10.3365 22.3306 10.5806C22.0865 10.8247 22.0865 11.2204 22.3306 11.4645L25.8661 15L22.3306 18.5355C22.0865 18.7796 22.0865 19.1753 22.3306 19.4194C22.5747 19.6635 22.9704 19.6635 23.2145 19.4194L27.1919 15.4419ZM10.5 15.625L26.75 15.625V14.375L10.5 14.375V15.625Z" fill="#1A1A1A"/>
<path fill-rule="evenodd" clip-rule="evenodd" d="M19.8737 18.75C19.6403 18.75 19.4265 18.8757 19.2997 19.0715C17.9634 21.1348 15.6411 22.5 13 22.5C8.85786 22.5 5.5 19.1421 5.5 15C5.5 10.8579 8.85786 7.5 13 7.5C15.6411 7.5 17.9634 8.86521 19.2997 10.9285C19.4265 11.1243 19.6403 11.25 19.8737 11.25C20.3539 11.25 20.6657 10.7505 20.4098 10.3442C18.8611 7.88443 16.1214 6.25 13 6.25C8.16751 6.25 4.25 10.1675 4.25 15C4.25 19.8325 8.16751 23.75 13 23.75C16.1214 23.75 18.8611 22.1156 20.4098 19.6558C20.6657 19.2495 20.3539 18.75 19.8737 18.75Z" fill="#1A1A1A"/>
</svg>
