<svg width="24" height="24" viewBox="0 0 24 24" fill="none" xmlns="http://www.w3.org/2000/svg">
<path d="M4.02832 7.4248C8.99386 6.85098 14.0062 6.81529 18.9775 7.31738L19.9717 7.4248C20.2727 7.45979 20.4999 7.71448 20.5 8.01758V18.3711C20.4999 18.954 20.057 19.4334 19.4893 19.4912L19.374 19.4971L12 19.5H4.62598C4.00415 19.4999 3.50008 18.9958 3.5 18.374V8.01758C3.50009 7.75208 3.67434 7.5234 3.91992 7.44727L4.02832 7.4248Z" stroke="#706F6F"/>
<path d="M3 16.9196C8.98442 16.3081 15.0156 16.3081 21 16.9196L20.593 18.7304C20.4262 19.4726 19.7672 20 19.0065 20H12H4.99353C4.23283 20 3.57378 19.4726 3.40698 18.7304L3 16.9196Z" fill="#706F6F"/>
<path d="M7 6C10.328 5.73376 13.672 5.73376 17 6V5.80159C17 5.32218 16.6604 4.90992 16.1899 4.81806C13.4228 4.27779 10.5772 4.27772 7.81011 4.81787C7.33957 4.90972 7 5.32198 7 5.80139V6Z" fill="#706F6F"/>
<path d="M7 10C10.325 9.6675 13.675 9.6675 17 10V9.33213C17 8.98095 16.742 8.68311 16.3944 8.63303C13.4799 8.21318 10.5202 8.21309 7.60563 8.63279C7.25803 8.68284 7 8.98069 7 9.33188V10Z" fill="#706F6F"/>
<path d="M7 13C10.325 12.6675 13.675 12.6675 17 13V12.3321C17 11.9809 16.742 11.6831 16.3944 11.633C13.4799 11.2132 10.5202 11.2131 7.60563 11.6328C7.25803 11.6828 7 11.9807 7 12.3319V13Z" fill="#706F6F"/>
<path d="M7 15C10.325 14.6675 13.675 14.6675 17 15V14.3321C17 13.9809 16.742 13.6831 16.3944 13.633C13.4799 13.2132 10.5202 13.2131 7.60563 13.6328C7.25803 13.6828 7 13.9807 7 14.3319V15Z" fill="#706F6F"/>
</svg>
