<svg width="412" height="446" viewBox="0 0 412 446" fill="none" xmlns="http://www.w3.org/2000/svg">
<path d="M129.748 219.462C122.066 238.836 117.977 259.586 117.691 280.436L134.575 287.671L132.504 221.089L129.748 219.462Z" fill="#706F6F" stroke="#706F6F" stroke-width="7.14635"/>
<path d="M272.025 219.148C279.708 238.522 283.796 259.273 284.082 280.122L267.198 287.357L269.27 220.775L272.025 219.148Z" fill="#706F6F" stroke="#706F6F" stroke-width="7.14635"/>
<path d="M226.948 274.394L200.54 314.656L215.126 334.14H266.927V274.394H226.948Z" fill="#D9D9D9" stroke="#706F6F" stroke-width="7.14635"/>
<path d="M226.939 274.394L187.346 334.14H135.675V274.394H226.939Z" fill="#F3F3F3" stroke="#706F6F" stroke-width="7.14635"/>
<path d="M135.68 130.954C179.255 125.411 223.357 125.411 266.932 130.954V166.314L270.059 166.708L297.262 170.131V215.961H266.932V273.875C223.248 270.439 179.363 270.439 135.68 273.875V215.961H102.308V170.168L132.513 166.713L135.68 166.351V130.954Z" fill="#F3F3F3" stroke="#706F6F" stroke-width="7.14635"/>
<path d="M228.805 239.594H172.758V243.994L228.805 240.173V239.594Z" fill="#706F6F"/>
<path d="M99.4629 167.351C166.05 158.445 233.526 158.445 300.112 167.351V219.984C233.4 213.222 166.175 213.222 99.4629 219.984V167.351Z" fill="#D9D9D9" stroke="#706F6F" stroke-width="7.14468"/>
<path d="M312.698 94.2409C372.483 156.254 370.677 254.991 308.664 314.776C246.651 374.561 147.914 372.755 88.129 310.742C28.3438 248.729 30.1498 149.992 92.1628 90.2071C154.176 30.4219 252.913 32.2279 312.698 94.2409ZM109.983 289.673C158.132 339.616 237.652 341.071 287.595 292.922C337.538 244.773 338.993 165.253 290.844 115.31C242.695 65.3667 163.175 63.9122 113.232 112.061C63.2886 160.21 61.8341 239.73 109.983 289.673Z" fill="#706F6F"/>
<path d="M285.931 311.625L308.203 290.154L398.928 384.26C404.857 390.41 404.678 400.203 398.528 406.132C392.378 412.061 382.586 411.882 376.657 405.732L285.931 311.625Z" fill="#706F6F"/>
<rect x="30.1094" y="61.876" width="35.3256" height="35.3256" rx="7.73395" transform="rotate(-33.2688 30.1094 61.876)" fill="#706F6F"/>
<rect x="116.633" y="398.252" width="35.3256" height="35.3256" rx="7.73395" transform="rotate(-43.5156 116.633 398.252)" fill="#706F6F"/>
<rect x="329.945" y="35.252" width="69.1013" height="69.1013" rx="12.8899" transform="rotate(-6.17362 329.945 35.252)" fill="#706F6F"/>
<rect x="375.555" y="258.71" width="41.6091" height="41.6091" rx="7.73395" transform="rotate(30.2377 375.555 258.71)" fill="#706F6F"/>
<rect x="4.99951" y="355.336" width="87.2647" height="87.2647" rx="9.02294" transform="rotate(-10.3631 4.99951 355.336)" stroke="#706F6F" stroke-width="7.73395"/>
<rect x="266.022" y="42.7775" width="43.9552" height="43.9552" rx="5.78615" transform="rotate(-66.1744 266.022 42.7775)" stroke="#706F6F" stroke-width="3.89559"/>
</svg>
