<svg width="303" height="313" viewBox="0 0 303 313" fill="none" xmlns="http://www.w3.org/2000/svg">
<path d="M254.713 148.619C264.631 179.134 269.845 210.975 270.185 243.047L246.107 253.366L249.127 146.157L252.345 141.332L254.713 148.619Z" fill="#051B32" stroke="#051B32" stroke-width="10.1783"/>
<path d="M48.4746 147.099C38.557 177.615 33.3424 209.456 33.0029 241.528L57.0801 251.846L54.0605 144.637L50.8428 139.812L48.4746 147.099Z" fill="#051B32" stroke="#051B32" stroke-width="10.1783"/>
<path d="M115.581 221.914L171.974 307.008H245.567V221.914H115.581Z" fill="#0944D5" stroke="#051B32" stroke-width="10.1783"/>
<path d="M188.599 221.914L132.206 307.008H58.6123V221.914H188.599Z" fill="#36C3BB" stroke="#051B32" stroke-width="10.1783"/>
<path d="M58.6123 17.6113C120.675 9.7158 183.488 9.71586 245.551 17.6113V221.166C183.334 216.272 120.829 216.273 58.6123 221.167V17.6113Z" fill="#F9FAFD" stroke="#051B32" stroke-width="10.1783"/>
<path d="M111.445 172.343H191.27V178.611L111.445 173.168V172.343Z" fill="#051B32"/>
<path d="M6 59.9441V143.645H119.833L151.639 116.86L181.771 143.645H297.277V59.9441L294.61 60.2201C199.549 70.0539 103.728 70.0539 8.66783 60.2201L6 59.9441Z" fill="#2EA4FF" stroke="#051B32" stroke-width="10.1755"/>
</svg>
