<svg width="17" height="25" viewBox="0 0 17 25" fill="none" xmlns="http://www.w3.org/2000/svg">
<path d="M3.77801 11.6006V4.46191C3.77801 2.86798 4.67759 1.39455 6.13908 0.598153C7.60057 -0.199384 9.3997 -0.199384 10.8612 0.598153C12.3227 1.39458 13.2223 2.86804 13.2223 4.46191V11.6006C13.2223 13.1946 12.3227 14.668 10.8612 15.4644C9.39973 16.2619 7.6006 16.2619 6.13908 15.4644C4.67759 14.668 3.77801 13.1945 3.77801 11.6006ZM17 11.6006C17 11.1076 16.5774 10.7083 16.0556 10.7083C15.5338 10.7083 15.1111 11.1076 15.1111 11.6006C15.1111 13.8326 13.8515 15.8939 11.8055 17.0103C9.75964 18.1258 7.24051 18.1258 5.1945 17.0103C3.14865 15.8938 1.88886 13.8325 1.88886 11.6006C1.88886 11.1076 1.46624 10.7083 0.944428 10.7083C0.42262 10.7083 0 11.1076 0 11.6006C0.00236092 13.5749 0.774431 15.479 2.16747 16.9512C3.56169 18.4225 5.47886 19.3572 7.55539 19.5792V23.2011H4.72211C4.2003 23.2011 3.77768 23.6004 3.77768 24.0934C3.77768 24.5864 4.2003 24.9857 4.72211 24.9857H12.2775C12.7993 24.9857 13.222 24.5864 13.222 24.0934C13.222 23.6004 12.7993 23.2011 12.2775 23.2011H9.44425V19.5792C11.5208 19.3572 13.438 18.4225 14.8322 16.9512C16.2252 15.4789 16.9973 13.5749 16.9996 11.6006H17Z" fill="#706F6F"/>
</svg>
