<svg width="18" height="16" viewBox="0 0 18 16" fill="none" xmlns="http://www.w3.org/2000/svg">
<path d="M10.0036 1.46288C12.5407 3.64275 12.8302 7.46657 10.6503 10.0036C8.47047 12.5407 4.64665 12.8302 2.1096 10.6503C-0.427445 8.47047 -0.716993 4.64665 1.46288 2.1096C3.64275 -0.427445 7.46657 -0.716993 10.0036 1.46288ZM3.37686 9.17544C5.09934 10.6554 7.69545 10.4588 9.17544 8.73635C10.6554 7.01387 10.4588 4.41776 8.73635 2.93778C7.01387 1.4578 4.41776 1.65438 2.93778 3.37686C1.4578 5.09934 1.65438 7.69545 3.37686 9.17544Z" fill="#706F6F"/>
<path d="M9.78913 10.5413C9.35783 10.1707 9.30861 9.52064 9.67919 9.08934C10.0498 8.65804 10.6998 8.60882 11.1311 8.97939L17.1948 14.1894C17.6261 14.56 17.6754 15.2101 17.3048 15.6414C16.9342 16.0727 16.2842 16.1219 15.8529 15.7513L9.78913 10.5413Z" fill="#706F6F"/>
</svg>
