<?xml version="1.0" encoding="utf-8"?><svg viewBox="0 0 25.608 23" xmlns="http://www.w3.org/2000/svg" xmlns:xlink="http://www.w3.org/1999/xlink"><style>:root>svg{display:none}:root>svg:target{display:block}</style><svg fill="none" viewBox="0 0 20 20" id="i-apple" xmlns="http://www.w3.org/2000/svg"><path d="M0 0h20v20H0z"/><path d="M17.993 15.586a10.87 10.87 0 0 1-1.075 1.933c-.565.807-1.028 1.365-1.385 1.674-.553.509-1.146.77-1.78.784-.456 0-1.005-.13-1.645-.392-.641-.262-1.23-.392-1.77-.392-.565 0-1.172.13-1.82.392-.65.263-1.173.4-1.573.413-.609.026-1.216-.242-1.82-.805-.387-.337-.87-.914-1.45-1.733-.62-.874-1.132-1.888-1.532-3.043-.428-1.248-.643-2.457-.643-3.627 0-1.34.29-2.496.87-3.465A5.102 5.102 0 0 1 4.19 5.483a4.9 4.9 0 0 1 2.463-.695c.483 0 1.117.15 1.905.443.785.295 1.29.444 1.51.444.166 0 .726-.175 1.676-.523.898-.323 1.656-.457 2.277-.404 1.682.135 2.947.799 3.787 1.994-1.505.912-2.249 2.189-2.234 3.827.014 1.276.476 2.338 1.386 3.181.413.392.873.694 1.385.909-.11.322-.228.63-.353.927ZM14.134.4c0 1-.365 1.934-1.094 2.799-.879 1.027-1.942 1.621-3.095 1.527a3.114 3.114 0 0 1-.023-.379c0-.96.418-1.987 1.16-2.828.371-.425.842-.779 1.414-1.061.57-.278 1.11-.432 1.617-.458.015.134.021.267.021.4Z" fill="#F9FAFD"/></svg><svg fill="none" viewBox="0 0 25.608 14.085" id="i-arrow-down-select" xmlns="http://www.w3.org/2000/svg"><path d="M1.28 0 0 1.28l12.804 12.805L25.608 1.28 24.328 0 12.803 11.523 1.28 0Z" fill="#706F6F"/></svg><svg fill="none" viewBox="0 0 9.899 9.899" id="i-arrow-r" xmlns="http://www.w3.org/2000/svg"><path d="M4.243.707a1 1 0 0 1 1.414 0l3.535 3.536a1 1 0 0 1 0 1.414L5.657 9.192a1 1 0 0 1-1.414-1.414L7.07 4.95 4.243 2.12a1 1 0 0 1 0-1.414Z" fill="#F9FAFD"/></svg><svg fill="none" viewBox="0 0 20 20" id="i-facebook" xmlns="http://www.w3.org/2000/svg"><path d="M0 0h20v20H0z"/><path d="M20 10.061C20 4.505 15.523 0 10 0S0 4.505 0 10.061C0 15.083 3.657 19.245 8.438 20v-7.03h-2.54V10.06h2.54V7.845c0-2.522 1.492-3.915 3.777-3.915 1.094 0 2.238.197 2.238.197v2.476h-1.26c-1.243 0-1.63.775-1.63 1.57v1.888h2.773l-.443 2.908h-2.33V20c4.78-.755 8.437-4.917 8.437-9.939Z" fill="#F9FAFD"/></svg><svg fill="none" viewBox="0 0 20 20" id="i-google" xmlns="http://www.w3.org/2000/svg"><path d="M0 0h20v20H0z"/><path d="M20 10.239c0-.675-.066-1.373-.177-2.026h-9.625v3.856h5.513a4.542 4.542 0 0 1-2.045 3.028l3.29 2.506C18.89 15.838 20 13.267 20 10.239Z" fill="#4280EF"/><path d="M10.197 20c2.756 0 5.068-.893 6.757-2.418l-3.29-2.484c-.911.61-2.09.96-3.467.96-2.668 0-4.913-1.766-5.735-4.118l-3.379 2.549C2.817 17.864 6.329 20 10.197 20Z" fill="#34A353"/><path d="M4.462 11.917a5.96 5.96 0 0 1 0-3.835l-3.378-2.57a9.836 9.836 0 0 0 0 8.976l3.378-2.571Z" fill="#F6B704"/><path d="M10.197 3.965a5.628 5.628 0 0 1 3.912 1.504l2.912-2.876C15.176.893 12.73-.021 10.197 0c-3.868 0-7.38 2.135-9.114 5.512l3.379 2.571c.822-2.375 3.067-4.118 5.735-4.118Z" fill="#E54335"/></svg><svg fill="none" viewBox="0 0 19 19" id="i-info" xmlns="http://www.w3.org/2000/svg"><path d="M8.856 14.442v-6.86h1.287v6.86H8.857ZM9.5 6.287a.899.899 0 0 1-.63-.245.81.81 0 0 1-.266-.623c0-.252.088-.457.266-.616a.899.899 0 0 1 .63-.245c.247 0 .457.082.63.245a.788.788 0 0 1 .265.616.81.81 0 0 1-.265.623.883.883 0 0 1-.63.245Z" fill="#D9D9D9"/><rect width="18" height="18" x=".5" y=".5" rx="9" stroke="#D9D9D9"/></svg><svg fill="none" viewBox="0 0 16 16" id="i-looked" xmlns="http://www.w3.org/2000/svg"><path d="M0 0h16v16H0z"/><path d="M1.333 2h13.333v11.556H1.333z"/><path d="m1.333 6.162 1.767.182V3.697q0-.305.1-.572.1-.268.301-.497l.017-.02h.006a32.954 32.954 0 0 1 8.907 0c.263.035.458.259.458.523v.184q-.795-.026-1.59-.026-3.266 0-6.532.443v4.46l-2.6-.268v1.854h-.834V6.162Zm3.434 7.274c-.567.031-1.134.071-1.7.12v-.723h1.7v.603Z" fill="#F9FAFD" fill-rule="evenodd"/><path d="M1.333 5.467v4.252H6.65l1.329-1.36 1.329 1.36h5.315V5.467a58.06 58.06 0 0 1-13.289 0Z" fill="#F9FAFD"/><path d="m10.471 9.72.829-.85.829.85h2.493v-.834h-.978l-2.344-2.4-2.344 2.4h-.463l.814.833h1.164ZM1.333 5.466v4.252H6.65l.814-.833H2.167v-3.33a58.086 58.086 0 0 1-.834-.09Z" fill="#F9FAFD" fill-rule="evenodd"/></svg><svg fill="none" viewBox="0 0 23 23" id="i-safety" xmlns="http://www.w3.org/2000/svg"><defs><linearGradient id="ha" x1="-2.128" x2="19.751" y1="-.279" y2="27.444" gradientUnits="userSpaceOnUse"><stop stop-color="#0944D5" offset="0"/><stop stop-color="#29B6F9" offset=".481"/><stop stop-color="#4081EB" offset="1"/></linearGradient><linearGradient id="hb" x1="-2.128" x2="19.751" y1="-.279" y2="27.444" gradientUnits="userSpaceOnUse"><stop stop-color="#0944D5" offset="0"/><stop stop-color="#29B6F9" offset=".481"/><stop stop-color="#4081EB" offset="1"/></linearGradient></defs><path d="M0 0h23v23H0z"/><path d="M11.328 1.295a24.02 24.02 0 0 0 8.434 1.53h.742c0 7.157-2.95 13.999-8.153 18.913l-1.023.966-1.021-.966A26.016 26.016 0 0 1 2.153 2.824h.743c2.88 0 5.736-.518 8.432-1.529Zm3.84 7.148a.452.452 0 0 0-.635.057l-4.197 5.034-2.357-2.357a.452.452 0 0 0-.64.639l2.709 2.707.35.35.316-.38 4.513-5.415a.452.452 0 0 0-.058-.635Z" fill="url(#ha)"/><path d="M11.328 1.295a24.02 24.02 0 0 0 8.434 1.53h.742c0 7.157-2.95 13.999-8.153 18.913l-1.023.966-1.021-.966A26.016 26.016 0 0 1 2.153 2.824h.743c2.88 0 5.736-.518 8.432-1.529Zm2.24 4.05q-1.129-.265-2.24-.627-1.762.575-3.57.903-1.086.197-2.187.304.145 1.172.404 2.296A3.68 3.68 0 0 1 6.5 8q1.029-.355 1.94-.16.895.192 1.676.912l1.935-2.321.007-.008q.3-.356.665-.62.209-.152.439-.273l.005-.003c.081-.042.16-.08.24-.115q.08-.036.16-.068Zm1.6 3.098a.452.452 0 0 0-.635.057l-4.197 5.034-2.357-2.357a.452.452 0 0 0-.64.639l2.709 2.707.35.35.316-.38 4.513-5.415a.45.45 0 0 0-.058-.635Z" fill="url(#hb)" fill-rule="evenodd"/></svg><svg fill="none" viewBox="0 0 10 5" id="i-triangle-arrow" xmlns="http://www.w3.org/2000/svg"><path d="m0 0 5 5 5-5H0Z" fill="#706F6F"/></svg></svg>