<svg width="25" height="22" viewBox="0 0 25 22" fill="none" xmlns="http://www.w3.org/2000/svg">
<path d="M4.41211 1.10352C6.48326 0.297735 9.29167 0.758946 11.9424 3.70215L12.5 4.32129L13.0576 3.70215C15.6893 0.780638 18.4842 0.442951 20.5693 1.31738C22.7116 2.21581 24.25 4.44192 24.25 6.95312C24.2499 8.28686 23.6036 9.85074 22.5098 11.5039C21.4269 13.1405 19.9631 14.7795 18.4609 16.2451C16.9615 17.7081 15.4414 18.9809 14.2607 19.8857C13.67 20.3385 13.1696 20.6941 12.8047 20.9336C12.6846 21.0124 12.5825 21.075 12.5 21.124C12.4175 21.075 12.3154 21.0124 12.1953 20.9336C11.8303 20.6941 11.33 20.3375 10.7393 19.8848C9.55866 18.9799 8.0384 17.707 6.53906 16.2441C5.03702 14.7786 3.57306 13.1403 2.49023 11.5039C1.39637 9.85077 0.750115 8.28685 0.75 6.95312C0.75 4.1249 2.30663 1.92289 4.41211 1.10352Z" stroke="#0C4178" stroke-width="1.5"/>
</svg>
