<svg width="20" height="20" viewBox="0 0 20 20" fill="none" xmlns="http://www.w3.org/2000/svg">
<g clip-path="url(#clip0_2165_27647)">
<path d="M20.0018 10.239C20.0018 9.56364 19.9352 8.86648 19.824 8.21289H10.1992V12.0691H15.7118C15.4895 13.3109 14.756 14.4002 13.6668 15.0974L16.9566 17.6028C18.8904 15.8381 20.0018 13.2673 20.0018 10.239Z" fill="#4280EF"/>
<path d="M10.1956 20.0004C12.9519 20.0004 15.2636 19.1071 16.953 17.5821L13.6632 15.0985C12.7518 15.7085 11.5737 16.0571 10.1956 16.0571C7.5282 16.0571 5.28316 14.2924 4.46071 11.9395L1.08203 14.4885C2.81583 17.8653 6.32788 20.0004 10.1956 20.0004Z" fill="#34A353"/>
<path d="M4.46231 11.9169C4.03997 10.6751 4.03997 9.32432 4.46231 8.0825L1.08362 5.51172C-0.361208 8.34394 -0.361208 11.6772 1.08362 14.4877L4.46231 11.9169Z" fill="#F6B704"/>
<path d="M10.1956 3.96549C11.6404 3.9437 13.063 4.48836 14.1077 5.46874L17.0196 2.59295C15.1747 0.893619 12.7296 -0.0214061 10.1956 0.000380234C6.32788 0.000380234 2.81583 2.13544 1.08203 5.51232L4.46071 8.0831C5.28316 5.70839 7.5282 3.96549 10.1956 3.96549Z" fill="#E54335"/>
</g>
<defs>
<clipPath id="clip0_2165_27647">
<rect width="20" height="20" fill="white"/>
</clipPath>
</defs>
</svg>
