<svg width="40" height="41" viewBox="0 0 40 41" fill="none" xmlns="http://www.w3.org/2000/svg">
<path fill-rule="evenodd" clip-rule="evenodd" d="M20 40.1299C8.95431 40.1299 0 31.1756 0 20.1299C0 9.08419 8.95431 0.129883 20 0.129883C31.0457 0.129883 40 9.08419 40 20.1299C40 31.1756 31.0457 40.1299 20 40.1299ZM20.8648 15.1391C19.0736 15.8841 15.4936 17.4262 10.1249 19.7653C9.2531 20.1119 8.79642 20.4511 8.75485 20.7827C8.68458 21.3432 9.38643 21.5639 10.3422 21.8644C10.4722 21.9053 10.6069 21.9476 10.745 21.9925C11.6853 22.2982 12.9501 22.6558 13.6077 22.67C14.2042 22.6828 14.8699 22.4369 15.6049 21.9323C20.621 18.5462 23.2104 16.8348 23.3729 16.7979C23.4876 16.7718 23.6465 16.7391 23.7542 16.8348C23.8619 16.9305 23.8513 17.1118 23.8399 17.1604C23.7704 17.4568 21.0154 20.0181 19.5896 21.3436C19.1452 21.7568 18.8299 22.0499 18.7654 22.1169C18.6211 22.2668 18.4739 22.4087 18.3325 22.545C17.459 23.3871 16.8039 24.0186 18.3688 25.0499C19.1208 25.5455 19.7226 25.9553 20.323 26.3641C20.9786 26.8106 21.6326 27.256 22.4787 27.8106C22.6942 27.9519 22.9001 28.0987 23.1006 28.2416C23.8637 28.7856 24.5492 29.2743 25.3961 29.1964C25.8882 29.1511 26.3965 28.6884 26.6546 27.3083C27.2647 24.0467 28.464 16.98 28.7411 14.068C28.7654 13.8128 28.7348 13.4863 28.7103 13.343C28.6858 13.1996 28.6345 12.9954 28.4482 12.8442C28.2276 12.6652 27.8869 12.6274 27.7346 12.63C27.0419 12.6423 25.9792 13.0119 20.8648 15.1391Z" fill="#2EA4FF"/>
</svg>
