<svg width="50" height="51" viewBox="0 0 50 51" fill="none" xmlns="http://www.w3.org/2000/svg">
<path d="M28.14 6.75018C29.0974 6.75018 29.9557 7.3406 30.2982 8.23456L30.9086 9.82733C31.2249 10.6536 31.0417 11.5879 30.4369 12.2336L26.3158 16.634C25.6828 17.3097 24.6101 17.3095 23.9769 16.634L19.8549 12.2336C19.2502 11.5879 19.067 10.6535 19.3832 9.82733L19.9935 8.23456C20.336 7.34053 21.1943 6.75022 22.1517 6.75018H28.14ZM22.1517 8.53729C21.9346 8.53733 21.7401 8.67147 21.6625 8.87421L21.0521 10.466C20.9804 10.6534 21.0224 10.8655 21.1596 11.0119L25.1459 15.2678L29.1322 11.0119C29.2694 10.8655 29.3114 10.6534 29.2396 10.466L28.6303 8.87421C28.5526 8.67145 28.3571 8.53729 28.14 8.53729H22.1517Z" fill="#051B32"/>
<path d="M20.4346 10.8344H30.0435" stroke="#051B32" stroke-width="1.78711"/>
<circle cx="25.0008" cy="29.9815" r="13.5417" stroke="#051B32" stroke-width="2.08333"/>
</svg>
