<svg width="19" height="17" viewBox="0 0 19 17" fill="none" xmlns="http://www.w3.org/2000/svg">
<path d="M3.25033 14.8333V6.5L9.50033 1.5L15.7503 6.5V14.8333C15.7503 15.7538 15.0041 16.5 14.0837 16.5H11.7435C11.6552 16.5 11.5837 16.4284 11.5837 16.3402V12.75C11.5837 11.5994 10.6509 10.6667 9.50033 10.6667C8.34973 10.6667 7.41699 11.5994 7.41699 12.75V16.3402C7.41699 16.4284 7.34544 16.5 7.25717 16.5H4.91699C3.99652 16.5 3.25033 15.7538 3.25033 14.8333Z" fill="#706F6F"/>
<path d="M3.25033 6.5V14.8333C3.25033 15.7538 3.99652 16.5 4.91699 16.5H7.25718C7.34544 16.5 7.41699 16.4284 7.41699 16.3402V12.75C7.41699 11.5994 8.34973 10.6667 9.50033 10.6667V10.6667C10.6509 10.6667 11.5837 11.5994 11.5837 12.75V16.3402C11.5837 16.4284 11.6552 16.5 11.7435 16.5H14.0837C15.0041 16.5 15.7503 15.7538 15.7503 14.8333V6.5M3.25033 6.5L9.50033 1.5L15.7503 6.5M3.25033 6.5L1.16699 8.16667M15.7503 6.5L17.8337 8.16667" stroke="#706F6F" stroke-width="0.833333" stroke-linecap="round"/>
</svg>
