<svg width="24" height="24" viewBox="0 0 24 24" fill="none" xmlns="http://www.w3.org/2000/svg">
<path d="M4.0332 3.99316C7.73707 3.38067 11.5119 3.34303 15.2246 3.87891L15.9668 3.99316C16.2743 4.04402 16.5 4.31039 16.5 4.62207V10.3662L16.4941 10.4814C16.4401 11.0146 16.0165 11.4387 15.4834 11.4932L15.3672 11.499L9.66699 11.5H4.63281C4.00724 11.4998 3.50012 10.9928 3.5 10.3672V4.62207L3.51074 4.50781C3.55127 4.28458 3.70832 4.09901 3.92188 4.02246L4.0332 3.99316Z" stroke="#706F6F"/>
<path d="M16.6094 5.01758C17.7977 5.15526 18.7206 6.16343 18.7207 7.38867C18.7207 8.61394 17.7978 9.62205 16.6094 9.75977V5.01758Z" stroke="#706F6F"/>
<path d="M10.5 11.5V17.499L8.12988 17.5H5.5V11.5H10.5Z" stroke="#706F6F"/>
<path d="M19.8301 6.55566C20.1995 6.55568 20.4989 6.85516 20.499 7.22461V7.55273C20.499 7.92234 20.1997 8.2224 19.8301 8.22266H19.0547V6.55566H19.8301Z" stroke="#706F6F"/>
<path d="M11.3916 11.5C11.8197 11.5002 12.167 11.8473 12.167 12.2754V12.3906C12.167 12.8188 11.8197 13.1666 11.3916 13.167H10.5V11.5H11.3916Z" stroke="#706F6F"/>
<path d="M4.63281 17.5H11.9824C12.6079 17.5003 13.1151 18.0073 13.1152 18.6328V19.4492C13.1152 20.0359 12.6691 20.5182 12.0977 20.5762L11.9824 20.582L8.53809 20.583H4.63281C4.00715 20.5829 3.5 20.0749 3.5 19.4492V18.6328C3.50014 18.0461 3.94614 17.5637 4.51758 17.5059L4.63281 17.5Z" stroke="#706F6F"/>
<path d="M3.61328 19.2669C6.79757 18.8463 10.0233 18.8463 13.2076 19.2669V19.4496C13.2076 20.3515 12.4765 21.0826 11.5747 21.0827L8.41045 21.0829H5.24636C4.34444 21.0829 3.61328 20.3518 3.61328 19.4498V19.2669Z" fill="#706F6F"/>
<path d="M5 7.22461C8.056 6.95296 11.1301 6.95296 14.1861 7.22461C14.1861 6.85483 13.9106 6.53723 13.5437 6.49156C10.9201 6.16498 8.26604 6.16494 5.64241 6.49143C5.27546 6.5371 5 6.85483 5 7.22461Z" fill="#706F6F"/>
<path d="M5 9.06201C8.056 8.79037 11.1301 8.79037 14.1861 9.06201C14.1861 8.69224 13.9106 8.37463 13.5437 8.32896C10.9201 8.00238 8.26604 8.00234 5.64241 8.32884C5.27546 8.3745 5 8.69223 5 9.06201Z" fill="#706F6F"/>
</svg>
