<svg width="24" height="24" viewBox="0 0 24 24" fill="none" xmlns="http://www.w3.org/2000/svg">
<path d="M3.84082 3.19141C8.91359 2.45396 14.0614 2.40749 19.1436 3.05273L20.1592 3.19141C20.3546 3.21982 20.5 3.38746 20.5 3.58496V20.2832C20.5 20.9118 20.0224 21.4289 19.4102 21.4912L19.2861 21.4971L12.3916 21.5H4.71387C4.04356 21.4998 3.50022 20.9564 3.5 20.2861V3.58496C3.50002 3.41215 3.61085 3.26182 3.76953 3.20801L3.84082 3.19141Z" stroke="#706F6F"/>
<circle cx="12.0011" cy="14.0001" r="5.17286" stroke="#706F6F" stroke-width="0.797143"/>
<circle cx="10.5154" cy="14.0003" r="4.08571" fill="#706F6F"/>
<path d="M19.2383 3.34473C20.2034 3.39082 20.9403 4.22503 20.8662 5.18848L20.5723 9C15.1214 6.54708 8.88054 6.54701 3.42969 9V4.71387C3.42991 3.76742 4.19711 3.00023 5.14355 3H12.001L19.2383 3.34473ZM5.57227 4.71484C5.09907 4.71496 4.71597 5.09807 4.71582 5.57129C4.71582 6.04464 5.09897 6.4286 5.57227 6.42871C6.04565 6.42871 6.42969 6.0447 6.42969 5.57129C6.42954 5.098 6.04556 4.71484 5.57227 4.71484ZM18.4297 4.71484C17.9565 4.71496 17.5734 5.09807 17.5732 5.57129C17.5732 6.04464 17.9564 6.4286 18.4297 6.42871C18.9031 6.42871 19.2871 6.0447 19.2871 5.57129C19.287 5.098 18.903 4.71484 18.4297 4.71484Z" fill="#706F6F"/>
</svg>
