<svg width="24" height="24" viewBox="0 0 24 24" fill="none" xmlns="http://www.w3.org/2000/svg">
<path d="M10.9551 3.52197C11.546 3.11848 12.312 3.09356 12.9248 3.44678L13.0449 3.52197L18.4873 7.23975C19.1208 7.67268 19.4999 8.39039 19.5 9.15771V18.7651C19.5 19.3678 19.0763 19.8811 18.4971 20.0034L18.3799 20.0229C14.4061 20.4812 10.3946 20.5097 6.41602 20.1099L5.62109 20.0239C4.98248 19.9505 4.5 19.4099 4.5 18.7671V9.15771C4.50014 8.4381 4.83347 7.76211 5.39746 7.32373L5.5127 7.23975L10.9551 3.52197Z" stroke="#706F6F"/>
<path d="M12 14.2324C13.4131 14.2324 14.5585 15.3779 14.5586 16.791V20.3008L12 20.3516L9.44141 20.3008V16.791L9.45508 16.5293C9.58628 15.2392 10.6754 14.2325 12 14.2324Z" fill="#706F6F" stroke="#706F6F"/>
<circle cx="11.9993" cy="9.49638" r="2.32353" stroke="#706F6F"/>
</svg>
