<svg width="50" height="51" viewBox="0 0 50 51" fill="none" xmlns="http://www.w3.org/2000/svg">
<path d="M11.5225 6.27356C20.4238 4.53696 29.5772 4.53696 38.4785 6.27356C38.5154 6.2809 38.542 6.31401 38.542 6.35168V38.9581C29.5254 38.3261 20.4753 38.3272 11.459 38.963V6.35168C11.459 6.31392 11.4854 6.28079 11.5225 6.27356Z" stroke="#051B32" stroke-width="2.08333"/>
<path d="M10.417 34.1707V34.1707C20.0732 32.568 29.9275 32.568 39.5837 34.1707V34.1707V44.0704C39.5837 45.3189 38.5716 46.3311 37.3231 46.3314L25.0003 46.3336H12.678C11.4293 46.3336 10.417 45.3213 10.417 44.0726V34.1707Z" fill="#051B32"/>
<path d="M22.9167 9.52476V9.52476C24.2695 9.07587 25.731 9.07587 27.0838 9.52476V9.52476V10.9161H25.0003L22.9167 10.9169V9.52476Z" fill="#051B32"/>
</svg>
