<svg width="40" height="41" viewBox="0 0 40 41" fill="none" xmlns="http://www.w3.org/2000/svg">
<path fill-rule="evenodd" clip-rule="evenodd" d="M40 20.1299C40 31.1756 31.0457 40.1299 20 40.1299C8.9543 40.1299 0 31.1756 0 20.1299C0 9.08419 8.9543 0.129883 20 0.129883C31.0457 0.129883 40 9.08419 40 20.1299ZM24.6885 19.2375C24.558 19.2375 24.4324 19.1873 24.3379 19.0973C24.2433 19.0074 24.1869 18.8845 24.1804 18.7541C24.094 17.0257 23.2796 16.1793 21.6176 16.0899C21.4852 16.0793 21.3622 16.0175 21.2747 15.9175C21.1872 15.8175 21.1423 15.6873 21.1495 15.5547C21.1567 15.4221 21.2154 15.2975 21.3131 15.2075C21.4108 15.1175 21.5398 15.0693 21.6726 15.0731C23.8657 15.1939 25.0848 16.4463 25.1972 18.7034C25.2005 18.7702 25.1907 18.837 25.1682 18.9C25.1457 18.963 25.111 19.0209 25.0661 19.0705C25.0213 19.1201 24.9671 19.1604 24.9066 19.189C24.8462 19.2177 24.7807 19.2341 24.7139 19.2375H24.6885ZM27.2888 20.1135H27.3009C27.4342 20.1132 27.562 20.0607 27.6571 19.9674C27.7522 19.874 27.8069 19.7471 27.8096 19.6139C27.8543 17.6256 27.2459 15.9328 26.0226 14.5947C24.7992 13.2565 23.0786 12.4971 20.9079 12.3382C20.773 12.3283 20.6397 12.3725 20.5373 12.4609C20.4349 12.5493 20.3719 12.6748 20.362 12.8097C20.3522 12.9446 20.3963 13.0779 20.4848 13.1803C20.5732 13.2827 20.6987 13.3457 20.8336 13.3556C22.7626 13.4969 24.2095 14.1252 25.2716 15.284C26.3337 16.4427 26.8309 17.8522 26.7916 19.5927C26.7885 19.7277 26.8392 19.8584 26.9324 19.956C27.0257 20.0537 27.1539 20.1103 27.2888 20.1135ZM29.9761 21.1588C29.8417 21.1587 29.7128 21.1055 29.6175 21.0108C29.5221 20.9161 29.468 20.7876 29.4668 20.6532C29.4433 17.54 28.5467 15.1621 26.7259 13.3848C24.9267 11.6327 22.6539 10.7338 19.9697 10.7144C19.9029 10.7142 19.8367 10.7008 19.775 10.675C19.7133 10.6492 19.6573 10.6115 19.6101 10.564C19.515 10.4681 19.4618 10.3384 19.4623 10.2033C19.4627 10.0683 19.5169 9.93892 19.6127 9.84375C19.7086 9.74858 19.8383 9.69539 19.9734 9.69587H19.9776C22.9331 9.71762 25.4427 10.7132 27.4369 12.6562C29.4312 14.5991 30.4594 17.2923 30.486 20.6471C30.487 20.7821 30.4343 20.9119 30.3396 21.0081C30.2449 21.1043 30.1159 21.1589 29.981 21.1601L29.9761 21.1588ZM22.8474 25.1358C22.4619 25.6107 21.746 25.5502 21.746 25.5502C16.5135 24.2145 15.1131 18.9144 15.1131 18.9144C15.1131 18.9144 15.0503 18.1984 15.5276 17.813L16.4731 17.0614C16.9419 16.7002 17.2409 15.8236 16.7637 14.9675C16.3976 14.3249 15.9996 13.7011 15.5711 13.0983C15.1548 12.5298 14.1852 11.3656 14.1816 11.362C13.7139 10.8104 13.0264 10.6823 12.3015 11.0599C12.2993 11.0599 12.2963 11.0609 12.2934 11.0618C12.2907 11.0627 12.2881 11.0635 12.2864 11.0635C11.5653 11.479 10.9151 12.0068 10.3604 12.6271C10.3585 12.6308 10.3566 12.6326 10.3547 12.6344C10.3529 12.6361 10.3512 12.6378 10.3495 12.6409C9.90161 13.1815 9.64525 13.7113 9.58041 14.2304C9.56695 14.307 9.56229 14.3848 9.56651 14.4624C9.56411 14.6917 9.599 14.9198 9.66982 15.1379L9.69459 15.1548C9.92054 15.9571 10.486 17.2934 11.7148 19.5215C12.4177 20.8102 13.2283 22.0372 14.1381 23.1893C14.5938 23.7668 15.0824 24.3176 15.6013 24.8392C15.62 24.8579 15.6381 24.8766 15.6569 24.8947L15.7124 24.9503L15.768 25.0059L15.8236 25.0615C16.3451 25.5804 16.896 26.0689 17.4735 26.5247C18.6257 27.4346 19.8529 28.2452 21.1419 28.9479C23.3693 30.1768 24.7069 30.7422 25.508 30.9682L25.5249 30.993C25.7429 31.064 25.9711 31.0991 26.2003 31.0969C26.278 31.1006 26.3558 31.0958 26.4323 31.0824C26.9523 31.0207 27.4817 30.7648 28.0206 30.3145C28.0237 30.3128 28.0253 30.3111 28.0269 30.3095C28.0288 30.3075 28.0306 30.3056 28.0345 30.3036C28.6548 29.7487 29.1828 29.0986 29.5986 28.3776C29.5986 28.374 29.6017 28.3667 29.6017 28.3625C29.9792 27.6376 29.8512 26.95 29.2966 26.4818C29.2959 26.4818 29.2506 26.4446 29.1741 26.3815C28.8598 26.1225 28.0174 25.4285 27.5603 25.0923C26.9581 24.6639 26.3348 24.2659 25.6929 23.8997C24.8362 23.4225 23.9614 23.7215 23.5989 24.1903L22.8474 25.1358Z" fill="#2EA4FF"/>
</svg>
