<svg width="50" height="51" viewBox="0 0 50 51" fill="none" xmlns="http://www.w3.org/2000/svg">
<path d="M8.49219 16.6171C19.4644 15.4122 30.5356 15.4122 41.5078 16.6171C42.1908 16.6921 42.708 17.2698 42.708 17.957V38.207C42.708 39.4322 41.7154 40.4261 40.4902 40.4267L25 40.4326H9.51074C8.28517 40.4325 7.29199 39.4384 7.29199 38.2128V17.957C7.29199 17.2698 7.80916 16.6921 8.49219 16.6171Z" stroke="#051B32" stroke-width="2.08333"/>
<path d="M14.5698 14.0244V14.0244C21.4349 13.2108 28.3721 13.2108 35.2371 14.0244V14.0244V12.0347C35.2371 11.3566 34.7887 10.7601 34.1373 10.5716V10.5716C28.1051 8.82685 21.702 8.8266 15.6697 10.571V10.571C15.0183 10.7594 14.5698 11.3559 14.5698 12.0341V14.0244Z" fill="#051B32"/>
<circle cx="24.9035" cy="28.1858" r="9.29199" stroke="#051B32" stroke-width="2.08333"/>
<circle cx="24.999" cy="27.5831" r="6.25" fill="#051B32"/>
<circle cx="38.3834" cy="21.1186" r="2.12948" fill="#051B32"/>
</svg>
