<svg width="50" height="60" viewBox="0 0 50 60" fill="none" xmlns="http://www.w3.org/2000/svg">
<mask id="path-1-inside-1_2013_26915" fill="white">
<path fill-rule="evenodd" clip-rule="evenodd" d="M25.001 0.962891L26.6794 1.59229C32.917 3.93139 39.5245 5.12956 46.1862 5.12956H50.001V10.5407C50.001 26.5899 43.3886 41.9301 31.7207 52.9498L25.001 59.2962L18.2813 52.9498C6.61331 41.9301 0.000976562 26.5899 0.000976562 10.5407V5.12956H3.81572C10.4775 5.12956 17.085 3.93139 23.3226 1.59229L25.001 0.962891ZM39.7806 16.5624C39.2281 16.1022 38.4241 16.1441 37.9212 16.6366L37.8245 16.7411L24.9085 32.2382L17.6517 24.9813L17.5462 24.8856C17.0007 24.4405 16.1954 24.4728 15.6869 24.9813C15.1786 25.4899 15.1472 26.2943 15.5921 26.8397L15.6869 26.9452L24.0208 35.2782L25.096 36.3544L26.0697 35.1854L39.9583 18.5184C40.4492 17.9292 40.3698 17.0534 39.7806 16.5624Z"/>
</mask>
<path fill-rule="evenodd" clip-rule="evenodd" d="M25.001 0.962891L26.6794 1.59229C32.917 3.93139 39.5245 5.12956 46.1862 5.12956H50.001V10.5407C50.001 26.5899 43.3886 41.9301 31.7207 52.9498L25.001 59.2962L18.2813 52.9498C6.61331 41.9301 0.000976562 26.5899 0.000976562 10.5407V5.12956H3.81572C10.4775 5.12956 17.085 3.93139 23.3226 1.59229L25.001 0.962891ZM39.7806 16.5624C39.2281 16.1022 38.4241 16.1441 37.9212 16.6366L37.8245 16.7411L24.9085 32.2382L17.6517 24.9813L17.5462 24.8856C17.0007 24.4405 16.1954 24.4728 15.6869 24.9813C15.1786 25.4899 15.1472 26.2943 15.5921 26.8397L15.6869 26.9452L24.0208 35.2782L25.096 36.3544L26.0697 35.1854L39.9583 18.5184C40.4492 17.9292 40.3698 17.0534 39.7806 16.5624Z" fill="#0C4178"/>
<path d="M26.6794 1.59229L25.704 4.1932L25.704 4.1932L26.6794 1.59229ZM25.001 0.962891L25.9763 -1.63802L25.001 -2.00378L24.0256 -1.63802L25.001 0.962891ZM50.001 5.12956H52.7788V2.35178H50.001V5.12956ZM31.7207 52.9498L29.8134 50.9304L29.8134 50.9304L31.7207 52.9498ZM25.001 59.2962L23.0937 61.3157L25.001 63.117L26.9083 61.3157L25.001 59.2962ZM18.2813 52.9498L20.1886 50.9304L20.1886 50.9304L18.2813 52.9498ZM0.000976562 5.12956V2.35178H-2.7768V5.12956H0.000976562ZM23.3226 1.59229L22.3472 -1.00863L23.3226 1.59229ZM37.9212 16.6366L35.9777 14.652L35.9288 14.6999L35.8823 14.7501L37.9212 16.6366ZM39.7806 16.5624L41.5589 14.4284L41.5585 14.4281L39.7806 16.5624ZM37.8245 16.7411L35.7856 14.8546L35.7368 14.9074L35.6907 14.9627L37.8245 16.7411ZM24.9085 32.2382L22.9443 34.2023L25.095 36.353L27.0424 34.0166L24.9085 32.2382ZM17.6517 24.9813L19.6159 23.0171L19.5682 22.9695L19.5183 22.9242L17.6517 24.9813ZM17.5462 24.8856L19.4129 22.8285L19.3588 22.7795L19.3023 22.7333L17.5462 24.8856ZM15.6869 24.9813L13.7227 23.0171L13.722 23.0178L15.6869 24.9813ZM15.5921 26.8397L13.4398 28.5957L13.4815 28.6468L13.5255 28.6958L15.5921 26.8397ZM15.6869 26.9452L13.6202 28.8013L13.6701 28.8568L13.7228 28.9095L15.6869 26.9452ZM24.0208 35.2782L25.9859 33.3149L25.9849 33.3139L24.0208 35.2782ZM25.096 36.3544L23.131 38.3177L25.2823 40.471L27.2304 38.1321L25.096 36.3544ZM26.0697 35.1854L23.9357 33.4072L23.9353 33.4077L26.0697 35.1854ZM39.9583 18.5184L42.0923 20.2967L42.0926 20.2963L39.9583 18.5184ZM26.6794 1.59229L27.6547 -1.00863L25.9763 -1.63802L25.001 0.962891L24.0256 3.56381L25.704 4.1932L26.6794 1.59229ZM46.1862 5.12956V2.35178C39.8575 2.35178 33.5805 1.21352 27.6547 -1.00863L26.6794 1.59229L25.704 4.1932C32.2535 6.64926 39.1914 7.90734 46.1862 7.90734V5.12956ZM50.001 5.12956V2.35178H46.1862V5.12956V7.90734H50.001V5.12956ZM50.001 10.5407H52.7788V5.12956H50.001H47.2232V10.5407H50.001ZM31.7207 52.9498L33.628 54.9693C45.8516 43.4248 52.7788 27.3542 52.7788 10.5407H50.001H47.2232C47.2232 25.8257 40.9257 40.4354 29.8134 50.9304L31.7207 52.9498ZM25.001 59.2962L26.9083 61.3157L33.628 54.9693L31.7207 52.9498L29.8134 50.9304L23.0937 57.2767L25.001 59.2962ZM18.2813 52.9498L16.374 54.9693L23.0937 61.3157L25.001 59.2962L26.9083 57.2767L20.1886 50.9304L18.2813 52.9498ZM0.000976562 10.5407H-2.7768C-2.7768 27.3542 4.1504 43.4248 16.374 54.9693L18.2813 52.9498L20.1886 50.9304C9.07621 40.4354 2.77875 25.8257 2.77875 10.5407H0.000976562ZM0.000976562 5.12956H-2.7768V10.5407H0.000976562H2.77875V5.12956H0.000976562ZM3.81572 5.12956V2.35178H0.000976562V5.12956V7.90734H3.81572V5.12956ZM23.3226 1.59229L22.3472 -1.00863C16.4215 1.21352 10.1444 2.35178 3.81572 2.35178V5.12956V7.90734C10.8106 7.90734 17.7484 6.64926 24.2979 4.1932L23.3226 1.59229ZM25.001 0.962891L24.0256 -1.63802L22.3472 -1.00863L23.3226 1.59229L24.2979 4.1932L25.9763 3.56381L25.001 0.962891ZM37.9212 16.6366L39.8648 18.6212C39.3614 19.1142 38.5583 19.1595 38.0027 18.6967L39.7806 16.5624L41.5585 14.4281C39.8979 13.0449 37.4869 13.174 35.9777 14.652L37.9212 16.6366ZM37.8245 16.7411L39.8635 18.6276L39.9602 18.5231L37.9212 16.6366L35.8823 14.7501L35.7856 14.8546L37.8245 16.7411ZM24.9085 32.2382L27.0424 34.0166L39.9584 18.5195L37.8245 16.7411L35.6907 14.9627L22.7747 30.4597L24.9085 32.2382ZM17.6517 24.9813L15.6875 26.9455L22.9443 34.2023L24.9085 32.2382L26.8727 30.274L19.6159 23.0171L17.6517 24.9813ZM17.5462 24.8856L15.6796 26.9427L15.7851 27.0384L17.6517 24.9813L19.5183 22.9242L19.4129 22.8285L17.5462 24.8856ZM15.6869 24.9813L17.651 26.9455C17.1426 27.454 16.3394 27.486 15.7902 27.0379L17.5462 24.8856L19.3023 22.7333C17.662 21.395 15.2482 21.4916 13.7227 23.0171L15.6869 24.9813ZM15.5921 26.8397L17.7445 25.0837C18.1909 25.631 18.1616 26.4347 17.6517 26.9449L15.6869 24.9813L13.722 23.0178C12.1957 24.5451 12.1034 26.9576 13.4398 28.5957L15.5921 26.8397ZM15.6869 26.9452L17.7535 25.0891L17.6587 24.9836L15.5921 26.8397L13.5255 28.6958L13.6202 28.8013L15.6869 26.9452ZM24.0208 35.2782L25.9849 33.3139L17.6509 24.9809L15.6869 26.9452L13.7228 28.9095L22.0568 37.2425L24.0208 35.2782ZM25.096 36.3544L27.0611 34.3911L25.9859 33.3149L24.0208 35.2782L22.0558 37.2415L23.131 38.3177L25.096 36.3544ZM26.0697 35.1854L23.9353 33.4077L22.9616 34.5766L25.096 36.3544L27.2304 38.1321L28.2041 36.9632L26.0697 35.1854ZM39.9583 18.5184L37.8244 16.7402L23.9357 33.4072L26.0697 35.1854L28.2036 36.9637L42.0923 20.2967L39.9583 18.5184ZM39.7806 16.5624L38.0023 18.6963C37.4123 18.2047 37.3338 17.329 37.824 16.7406L39.9583 18.5184L42.0926 20.2963C43.5646 18.5293 43.3273 15.9021 41.5589 14.4284L39.7806 16.5624Z" fill="#0C4178" mask="url(#path-1-inside-1_2013_26915)"/>
</svg>
