<svg width="25" height="23" viewBox="0 0 25 23" fill="none" xmlns="http://www.w3.org/2000/svg">
<path d="M4.17773 2.40527C9.67256 1.65577 15.2444 1.65577 20.7393 2.40527C20.9721 2.43724 21.1453 2.63603 21.1455 2.87109V7.91113L21.7188 7.85352L24.4795 7.5752V14.8125H21.1455V21.8516C15.363 21.3889 9.55298 21.3898 3.77051 21.8525V14.8125H0.520508V7.57715L3.19629 7.85254L3.77051 7.91211V2.87109C3.77071 2.63601 3.94482 2.43721 4.17773 2.40527Z" stroke="#706F6F" stroke-width="1.04167"/>
<path d="M9.74609 14.7021L12.0859 12.3076L12.458 11.9258L12.8311 12.3076L15.1699 14.7021H24.3955V7.83008C16.4609 8.70123 8.45514 8.70128 0.520508 7.83008V14.7021H9.74609Z" stroke="#706F6F" stroke-width="1.04167"/>
</svg>
