<svg width="29" height="30" viewBox="0 0 29 30" fill="none" xmlns="http://www.w3.org/2000/svg">
<path d="M24.4173 13.662C25.3714 16.5977 25.8703 19.6612 25.9029 22.7467L23.5895 23.7387L23.8788 13.4254L24.1886 12.9602L24.4173 13.662Z" fill="#051B32" stroke="#051B32" stroke-width="0.97835"/>
<path d="M4.57544 13.5162C3.62134 16.4519 3.12247 19.5154 3.08983 22.6008L5.40327 23.5929L5.11397 13.2796L4.80414 12.8144L4.57544 13.5162Z" fill="#051B32" stroke="#051B32" stroke-width="0.97835"/>
<path d="M11.0316 20.7136L16.456 28.9001H23.5351V20.7136H11.0316Z" fill="#0944D5" stroke="#051B32" stroke-width="0.97835"/>
<path d="M18.0564 20.7136L12.632 28.9001H5.55287V20.7136H18.0564Z" fill="#36C3BB" stroke="#051B32" stroke-width="0.97835"/>
<path d="M5.55287 1.06086C11.5235 0.301282 17.5659 0.301264 23.5366 1.06086V20.6426C17.5512 20.1717 11.5382 20.1717 5.55287 20.6426V1.06086Z" fill="#F9FAFD" stroke="#051B32" stroke-width="0.97835"/>
<path d="M10.6319 15.9449H18.3111V16.5478L10.6319 16.0242V15.9449Z" fill="#051B32"/>
<path d="M0.489451 5.13116V13.1832H11.4402L14.5 10.6066L17.3987 13.1832H28.5105V5.13116L28.2539 5.15771C19.109 6.10373 9.89096 6.10373 0.746097 5.15771L0.489451 5.13116Z" fill="#29B6F9" stroke="#051B32" stroke-width="0.978077"/>
</svg>
